<svg height="46" viewBox="0 0 46 46" width="46" xmlns="http://www.w3.org/2000/svg" xmlns:xlink="http://www.w3.org/1999/xlink"><filter id="a" filterUnits="userSpaceOnUse" height="46" width="46" x="0" y="0"><feOffset dy="3"/><feGaussianBlur result="b" stdDeviation="3"/><feFlood flood-opacity=".161"/><feComposite in2="b" operator="in"/><feComposite in="SourceGraphic"/></filter><g filter="url(#a)"><circle cx="14" cy="14" fill="#017e01" r="14" transform="translate(9 6)"/></g><g fill="#fff" transform="translate(15 -17.522)"><path d="m186.51 199.008a1.961 1.961 0 1 1 -2.774 0 1.961 1.961 0 0 1 2.774 0" transform="translate(-177.128 -162.518)"/><path d="m13.992 32.483h-1.381l-1-1.961h-7.232l-1 1.962-1.379.003a1.984 1.984 0 0 0 -2 1.96v7.842a1.983 1.983 0 0 0 2 1.962h11.992a1.982 1.982 0 0 0 2-1.961v-7.845a1.982 1.982 0 0 0 -2-1.962zm-5.992 9.317a3.923 3.923 0 1 1 4-3.923 3.965 3.965 0 0 1 -4 3.923z"/></g></svg>