<svg height="46" viewBox="0 0 46 46" width="46" xmlns="http://www.w3.org/2000/svg" xmlns:xlink="http://www.w3.org/1999/xlink"><clipPath id="a"><circle cx="35" cy="168" r="23"/></clipPath><g clip-path="url(#a)" transform="translate(-12 -145)"><g transform="translate(12 145)"><path d="m37.225 14.225v1.048h-2.7v-1.048a11.53 11.53 0 1 0 -23.059 0v1.048h-2.7v-1.048a14.225 14.225 0 1 1 28.45 0z" fill="#393e9f"/><path d="m37.225 14.225v1.048h-2.7v-1.048a11.543 11.543 0 0 0 -11.525-11.525v-2.7a14.241 14.241 0 0 1 14.225 14.225z" fill="#340d66"/><path d="m15.748 22.335h-4.938a2.24 2.24 0 0 1 -2.24-2.24v-3.944a2.24 2.24 0 0 1 2.24-2.24h4.939z" fill="#fe4945"/><path d="m30.072 22.335h5.118a2.24 2.24 0 0 0 2.24-2.24v-3.944a2.24 2.24 0 0 0 -2.24-2.24h-5.118z" fill="#fa185e"/><path d="m46 42.19v3.81h-9.28l-1.348-1.348-1.347 1.348h-22.05l-1.348-1.348-1.347 1.348h-9.28v-3.81a3.812 3.812 0 0 1 2.623-3.622l13.805-4.525h13.182v.013l13.767 4.512a3.812 3.812 0 0 1 2.623 3.622z" fill="#13cffe"/><path d="m46 42.19v3.81h-9.28l-1.348-1.348-1.347 1.348h-11.025v-11.956h6.61v.013l13.767 4.512a3.812 3.812 0 0 1 2.623 3.621z" fill="#28abf9"/><path d="m29.61 27.522v6.522s-3.324 3.285-6.61 3.285-6.571-3.286-6.571-3.286v-6.521z" fill="#ffb9ab"/><path d="m29.61 27.522v6.522s-3.324 3.285-6.61 3.285v-9.807z" fill="#e39e8d"/><path d="m31.51 13.721v2.828l-.873.941h-15.274l-.873-.941v-2.828a8.51 8.51 0 1 1 17.02 0z" fill="#ffb81f"/><path d="m31.51 13.721v2.828l-.873.941h-7.637v-12.279a8.51 8.51 0 0 1 8.51 8.51z" fill="#fc9b28"/><path d="m31.51 16.555v5.828a9.637 9.637 0 0 1 -.16 1.756c-.085.463-1.278 1.348-1.278 1.348s.57.919.341 1.348a8.435 8.435 0 0 1 -7.413 4.607 8.232 8.232 0 0 1 -6.018-2.653 9.332 9.332 0 0 1 -2.492-6.406v-5.828h4.539a5.911 5.911 0 0 0 5.911-5.91 5.91 5.91 0 0 0 5.91 5.91z" fill="#fccbc3"/><path d="m31.51 16.555v5.828a9.637 9.637 0 0 1 -.16 1.756c-.085.463-1.278 1.348-1.278 1.348s.57.919.341 1.348a8.435 8.435 0 0 1 -7.413 4.607v-16.42a5.9 5.9 0 0 0 1.94-4.377 5.91 5.91 0 0 0 5.91 5.91z" fill="#ffb9ab"/><path d="m31.35 24.138a9.338 9.338 0 0 1 -.937 2.7h-5.867v-2.7z" fill="#340d66"/><path d="m9.28 41.867h2.7v4.133h-2.7z" fill="#28abf9"/><path d="m34.025 41.867h2.7v4.133h-2.7z" fill="#318def"/></g></g></svg>