<svg xmlns="http://www.w3.org/2000/svg" width="275.529" height="192.252"><defs><style>.a,.g{fill:#6c63ff}.a,.e,.h{opacity:.1}.j{fill:#017e01}.f{fill:#3f3d56}.i{fill:#02cb02}.l{fill:#f2f2f2}.m{fill:#fbbebe}.n{fill:#ff6f61}.o{fill:#3a3768}.q{fill:#e6e8ec}</style></defs><g transform="translate(-90.819 -112.7)"><path class="a" d="M200.701 137.276a64.963 64.963 0 0 0-78.059-8.79c25.019 8.956 52.624 9.284 78.059 8.79zM345.707 282.73l-27.321-47.322a.869.869 0 0 0-1.509 0l-27.321 47.322a.869.869 0 0 0 .753 1.317h8.15a.874.874 0 0 1 .872.872v10.1a.872.872 0 0 0 .869.872h10.633a.872.872 0 0 0 .872-.872v-4.889a.869.869 0 0 1 .869-.869h10.11a.872.872 0 0 1 .872.869v4.881a.872.872 0 0 0 .872.872h10.631a.872.872 0 0 0 .872-.872v-10.11a.872.872 0 0 1 .872-.872h8.15a.872.872 0 0 0 .754-1.307zm-38.1 5.237a.869.869 0 0 1-.616.263h-3.827a.872.872 0 1 1 0-1.744h3.835a.872.872 0 0 1 .616 1.488zm25.1 0a.868.868 0 0 1-.616.263h-3.825a.872.872 0 1 1 0-1.744h3.841a.872.872 0 0 1 .616 1.488zM176.836 283.144l-27.321-47.322a.872.872 0 0 0-1.509 0l-23.6 40.873a72.081 72.081 0 0 0 9.875 10.2h3.846a.872.872 0 0 1 0 1.744h-1.623a42.229 42.229 0 0 0 6.322 3.933v-2.015a.872.872 0 0 1 .872-.872h10.11a.872.872 0 0 1 .869.872v4.878a.848.848 0 0 0 .082.366.872.872 0 0 0 .79.506h10.634a.853.853 0 0 0 .693-.35.838.838 0 0 0 .176-.527v-10.1a.872.872 0 0 1 .872-.872h8.15a.872.872 0 0 0 .761-1.309zm-18.057 4a.869.869 0 0 1 .616-.263h3.835a.872.872 0 1 1 0 1.744h-3.833a.872.872 0 0 1-.616-1.488zm-17.161-17.512a.872.872 0 0 1-.872-.872v-6.622a.872.872 0 0 1 .872-.872h14.29a.872.872 0 0 1 .869.872v6.622a.872.872 0 0 1-.869.872zM284.83 198.136h-33.809v-7.312a1.749 1.749 0 0 0-1.749-1.749h-9.928v-7.789a1.1 1.1 0 0 0-1.1-1.1h-12.79a1.1 1.1 0 0 0-1.1 1.1v7.786H212.68a1.749 1.749 0 0 0-1.749 1.749v7.312h-32.238a.356.356 0 0 0-.353.356v97.075a.356.356 0 0 0 .353.356h21.426a.356.356 0 0 0 .356-.356v-13.06a.358.358 0 0 1 .356-.356h9.049a.358.358 0 0 1 .356.356v13.06a.356.356 0 0 0 .353.356h42.343a.358.358 0 0 0 .356-.356v-13.06a.356.356 0 0 1 .353-.356h9.051a.356.356 0 0 1 .356.356v13.06a.358.358 0 0 0 .356.356h21.426a.358.358 0 0 0 .356-.356v-97.073a.358.358 0 0 0-.356-.355zm-88.19 79.477a.353.353 0 0 1-.353.353h-13.235a.353.353 0 0 1-.356-.353v-4.512a.356.356 0 0 1 .356-.356h13.234a.356.356 0 0 1 .353.356zm0-11.68a.353.353 0 0 1-.353.356h-13.235a.353.353 0 0 1-.356-.356v-4.518a.353.353 0 0 1 .356-.356h13.234a.353.353 0 0 1 .353.356zm0-11.677a.356.356 0 0 1-.353.356h-13.235a.356.356 0 0 1-.356-.356v-4.52a.356.356 0 0 1 .356-.356h13.234a.356.356 0 0 1 .353.356zm0-11.68a.353.353 0 0 1-.353.356h-13.235a.353.353 0 0 1-.356-.356v-4.51a.353.353 0 0 1 .356-.356h13.234a.353.353 0 0 1 .353.356zm0-11.677a.356.356 0 0 1-.353.356h-13.235a.356.356 0 0 1-.356-.356v-4.52a.353.353 0 0 1 .356-.353h13.234a.353.353 0 0 1 .353.353zm0-11.677a.353.353 0 0 1-.353.353h-13.235a.353.353 0 0 1-.356-.353v-4.52a.356.356 0 0 1 .356-.356h13.234a.356.356 0 0 1 .353.356zm0-11.68a.353.353 0 0 1-.353.356h-13.235a.353.353 0 0 1-.356-.356v-4.51a.353.353 0 0 1 .356-.356h13.234a.353.353 0 0 1 .353.356zm31.375 70.067a.353.353 0 0 1-.356.353h-13.234a.356.356 0 0 1-.356-.353v-4.51a.358.358 0 0 1 .356-.356h13.234a.356.356 0 0 1 .356.356zm0-11.68a.353.353 0 0 1-.356.356h-13.234a.356.356 0 0 1-.356-.356v-4.515a.356.356 0 0 1 .356-.356h13.234a.353.353 0 0 1 .356.356zm0-11.677a.356.356 0 0 1-.356.356h-13.234a.358.358 0 0 1-.356-.356v-4.518a.358.358 0 0 1 .356-.356h13.234a.356.356 0 0 1 .356.356zm0-11.68a.353.353 0 0 1-.356.356h-13.234a.356.356 0 0 1-.356-.356v-4.507a.356.356 0 0 1 .356-.356h13.234a.353.353 0 0 1 .356.356zm0-11.677a.356.356 0 0 1-.356.356h-13.234a.358.358 0 0 1-.356-.356v-4.518a.356.356 0 0 1 .356-.353h13.234a.353.353 0 0 1 .356.353zm0-11.677a.353.353 0 0 1-.356.353h-13.234a.356.356 0 0 1-.356-.353v-4.517a.358.358 0 0 1 .356-.356h13.234a.356.356 0 0 1 .356.356zm0-11.68a.353.353 0 0 1-.356.356h-13.234a.356.356 0 0 1-.356-.356v-4.507a.356.356 0 0 1 .356-.356h13.234a.353.353 0 0 1 .356.356zm21.439 70.068a.353.353 0 0 1-.356.353h-13.234a.356.356 0 0 1-.356-.353v-4.507a.358.358 0 0 1 .356-.356h13.234a.356.356 0 0 1 .356.356zm0-11.68a.353.353 0 0 1-.356.356h-13.234a.356.356 0 0 1-.356-.356v-4.512a.356.356 0 0 1 .356-.356h13.234a.353.353 0 0 1 .356.356zm0-11.677a.356.356 0 0 1-.356.355h-13.234a.358.358 0 0 1-.356-.355v-4.515a.358.358 0 0 1 .356-.356h13.234a.356.356 0 0 1 .356.356zm0-11.68a.353.353 0 0 1-.356.356h-13.234a.356.356 0 0 1-.356-.356v-4.5a.356.356 0 0 1 .356-.356h13.234a.353.353 0 0 1 .356.356zm0-11.677a.356.356 0 0 1-.356.356h-13.234a.359.359 0 0 1-.356-.356v-4.515a.356.356 0 0 1 .356-.353h13.234a.353.353 0 0 1 .356.353zm0-11.677a.353.353 0 0 1-.356.353h-13.234a.356.356 0 0 1-.356-.353V214.7a.359.359 0 0 1 .356-.356h13.234a.356.356 0 0 1 .356.356zm0-11.68a.353.353 0 0 1-.356.356h-13.234a.356.356 0 0 1-.356-.356v-4.5a.356.356 0 0 1 .356-.356h13.234a.353.353 0 0 1 .356.356zm31.375 70.068a.356.356 0 0 1-.356.353h-13.234a.353.353 0 0 1-.356-.353v-4.5a.356.356 0 0 1 .356-.356h13.241a.358.358 0 0 1 .356.356zm0-11.68a.356.356 0 0 1-.356.356h-13.234a.353.353 0 0 1-.359-.355v-4.51a.353.353 0 0 1 .356-.356h13.244a.356.356 0 0 1 .356.356zm0-11.677a.358.358 0 0 1-.356.356h-13.234a.356.356 0 0 1-.356-.356v-4.512a.356.356 0 0 1 .356-.356h13.241a.358.358 0 0 1 .356.356zm0-11.68a.356.356 0 0 1-.356.356h-13.234a.353.353 0 0 1-.356-.356v-4.5a.353.353 0 0 1 .356-.356h13.241a.356.356 0 0 1 .356.356zm0-11.677a.358.358 0 0 1-.356.356h-13.234a.356.356 0 0 1-.356-.356v-4.512a.353.353 0 0 1 .356-.353h13.241a.356.356 0 0 1 .356.353zm0-11.677a.355.355 0 0 1-.353.361h-13.237a.353.353 0 0 1-.356-.353v-4.52a.356.356 0 0 1 .356-.356h13.241a.358.358 0 0 1 .356.356zm0-11.68a.356.356 0 0 1-.356.356h-13.234a.353.353 0 0 1-.356-.356v-4.5a.353.353 0 0 1 .356-.356h13.241a.355.355 0 0 1 .356.356zM188.544 171.825a7.609 7.609 0 0 0-4.417.479 6.509 6.509 0 0 1-5.329-.013 7.433 7.433 0 0 0-6.238.124 3.885 3.885 0 0 1-1.8.448c-2.529 0-4.633-2.547-5.071-5.908a4.85 4.85 0 0 0 1.264-1.362 7.1 7.1 0 0 1 12.681-.045 4.876 4.876 0 0 0 4.2 2.307h.066c2.044.001 3.784 1.615 4.644 3.97z"/><path class="a" d="M196.236 161.276l-4.088 2.592 2.481-4.512a4.04 4.04 0 0 0-2.473-.882h-.066a4.784 4.784 0 0 1-.848-.063l-1.38.88.6-1.08a4.926 4.926 0 0 1-2.423-1.844l-2.488 1.576 1.562-2.855a7.259 7.259 0 0 0-5.555-2.808 7.615 7.615 0 0 0-6.359 3.922 4.755 4.755 0 0 1-4.215 2.268h-.14c-2.847 0-5.155 3.227-5.155 7.21s2.307 7.21 5.155 7.21a3.849 3.849 0 0 0 1.8-.45 7.434 7.434 0 0 1 6.238-.121 6.509 6.509 0 0 0 5.305 0 7.431 7.431 0 0 1 6.185.119 3.859 3.859 0 0 0 1.775.44c2.848 0 5.155-3.229 5.155-7.21a9.156 9.156 0 0 0-1.066-4.392zM309.978 219.891a5.349 5.349 0 0 0-3.092.335 4.548 4.548 0 0 1-3.714 0 5.2 5.2 0 0 0-4.367.087 2.709 2.709 0 0 1-1.256.314c-1.77 0-3.243-1.783-3.548-4.136a3.444 3.444 0 0 0 .885-.954 4.976 4.976 0 0 1 8.882-.032 3.409 3.409 0 0 0 2.94 1.615h.047c1.394-.006 2.614 1.129 3.223 2.771z"/><path class="a" d="M315.357 212.515l-2.861 1.815 1.736-3.161a2.829 2.829 0 0 0-1.731-.616h-.045a3.4 3.4 0 0 1-.593-.045l-.972.614.416-.753a3.475 3.475 0 0 1-1.7-1.288l-1.741 1.1 1.1-1.994a5.057 5.057 0 0 0-3.888-1.968 5.32 5.32 0 0 0-4.452 2.747 3.324 3.324 0 0 1-2.942 1.58h-.087c-1.991 0-3.609 2.257-3.609 5.044s1.617 5.047 3.609 5.047a2.707 2.707 0 0 0 1.257-.313 5.194 5.194 0 0 1 4.367-.084 4.576 4.576 0 0 0 3.714 0 5.2 5.2 0 0 1 4.328.084 2.727 2.727 0 0 0 1.243.306c1.994 0 3.609-2.258 3.609-5.047a6.413 6.413 0 0 0-.758-3.068zM153.675 203.032a5.353 5.353 0 0 1 3.092.334 4.541 4.541 0 0 0 3.711 0 5.205 5.205 0 0 1 4.367.087 2.715 2.715 0 0 0 1.257.313c1.77 0 3.245-1.783 3.551-4.135a3.408 3.408 0 0 1-.885-.954 4.976 4.976 0 0 0-8.888-.042 3.424 3.424 0 0 1-2.945 1.62h-.045a3.705 3.705 0 0 0-3.215 2.777z"/><path class="a" d="M148.28 195.656l2.861 1.807-1.739-3.161a2.834 2.834 0 0 1 1.731-.616h.047a3.424 3.424 0 0 0 .593-.045l.969.614-.416-.753a3.479 3.479 0 0 0 1.7-1.288l1.736 1.1-1.1-1.994a5.082 5.082 0 0 1 3.891-1.968 5.32 5.32 0 0 1 4.452 2.747 3.322 3.322 0 0 0 2.942 1.58h.095c1.994 0 3.609 2.257 3.609 5.044s-1.615 5.047-3.609 5.047a2.723 2.723 0 0 1-1.256-.313 5.194 5.194 0 0 0-4.367-.084 4.57 4.57 0 0 1-3.711 0 5.207 5.207 0 0 0-4.33.084 2.719 2.719 0 0 1-1.243.306c-1.991 0-3.609-2.257-3.609-5.047a6.413 6.413 0 0 1 .754-3.06z"/><path d="M148.422 297.109c3.567 2.265 8.706-.026 12.3 2.2.927.574 1.675 1.42 2.634 1.941a8.511 8.511 0 0 0 3.814.79c10.963.424 22.111-2.634 32.8-.163 2.99.69 5.914 1.812 8.977 1.976 5.292.287 10.363-2.294 15.66-2.437 8.034-.216 15.929 5.16 23.681 3.04 2.55-.7 4.889-2.186 7.52-2.437 2.932-.263 5.75 1.014 8.6 1.76 10.107 2.634 20.633-1.633 31.083-1.952 6.814-.208 13.563 1.278 20.372 1.62a121.654 121.654 0 0 0 14.53-.435 10.935 10.935 0 0 0 5.318-1.3c1.543-1.012 2.492-3.185 1.538-4.765z" fill="#005d00"/><path d="M148.422 295.564c3.567 2.265 8.706-.026 12.3 2.2.927.574 1.675 1.42 2.634 1.941a8.511 8.511 0 0 0 3.814.79c10.963.424 22.111-2.634 32.8-.163 2.99.69 5.914 1.812 8.977 1.976 5.292.287 10.363-2.294 15.66-2.437 8.034-.216 15.929 5.16 23.681 3.04 2.55-.7 4.889-2.186 7.52-2.437 2.932-.263 5.75 1.014 8.6 1.76 10.107 2.634 20.633-1.633 31.083-1.952 6.814-.208 13.563 1.278 20.372 1.62a121.654 121.654 0 0 0 14.53-.435 10.935 10.935 0 0 0 5.318-1.3c1.543-1.012 2.492-3.185 1.538-4.765z" fill="#017e01" opacity=".1"/><path d="M148.422 295.792c3.567 2.265 8.706-.026 12.3 2.2.927.574 1.675 1.42 2.634 1.941a8.512 8.512 0 0 0 3.814.79c10.963.424 22.111-2.634 32.8-.163 2.99.69 5.914 1.812 8.977 1.976 5.292.287 10.363-2.294 15.66-2.437 8.034-.216 15.929 5.16 23.681 3.04 2.55-.7 4.889-2.186 7.52-2.436 2.932-.264 5.75 1.014 8.6 1.759 10.107 2.634 20.633-1.633 31.083-1.952 6.814-.208 13.563 1.277 20.372 1.62a121.654 121.654 0 0 0 14.53-.435 10.932 10.932 0 0 0 5.318-1.3c1.543-1.011 2.492-3.185 1.538-4.765z" fill="#006500"/><g class="e" transform="translate(99.345 167.534)"><path class="f" d="M23.703 95.8a6.441 6.441 0 0 1-.852 3.261 6.675 6.675 0 0 1 0 6.522 5.994 5.994 0 0 1 .643 1.581 119.611 119.611 0 0 1-7.926-11.854 6.322 6.322 0 0 1 .832-2.782 6.44 6.44 0 0 1-.851-3.261 6.707 6.707 0 0 1 .385-2.268 5.632 5.632 0 0 1 .466-.993 3.544 3.544 0 0 1 6.451 0 5.87 5.87 0 0 1 .456.961 6.751 6.751 0 0 1 .4 2.3 6.44 6.44 0 0 1-.851 3.261 6.44 6.44 0 0 1 .847 3.272z"/><ellipse class="f" cx="4.075" cy="5.337" rx="4.075" ry="5.337" transform="translate(15.55 77.422)"/><ellipse class="f" cx="4.075" cy="5.337" rx="4.075" ry="5.337" transform="translate(15.55 70.9)"/><path class="g" d="M39.064 43.661a19.434 19.434 0 0 1-4.18 12.072 19.527 19.527 0 0 1-11.59 31.233c-.469.095-.946.169-1.428.226a19.725 19.725 0 0 1-4.478.024q-.743-.079-1.467-.219a19.308 19.308 0 0 1-6.058-2.215A194.539 194.539 0 0 1 .694 62.711a19.437 19.437 0 0 1 3.5-6.967 19.542 19.542 0 0 1-3.161-18.336l14.825 4.976-13.9-7.223A19.6 19.6 0 0 1 4.184 31.6 19.527 19.527 0 1 1 36.433 9.75L22.101 20.286l15.541-8.06a19.55 19.55 0 0 1-.374 15.47l-11.59-.087 10.71 1.76a19.609 19.609 0 0 1-1.52 2.234 19.439 19.439 0 0 1 4.2 12.059z"/><path class="h" d="M39.065 67.818a19.531 19.531 0 0 1-15.754 19.16c-.472.1-.949.169-1.431.227a19.725 19.725 0 0 1-4.478.024q-.743-.079-1.467-.219a19.307 19.307 0 0 1-6.058-2.215A194.525 194.525 0 0 1 .694 62.713a19.439 19.439 0 0 1 3.5-6.967 19.447 19.447 0 0 1-4.18-12.083c0-2.192 37.489 8.751 34.87 12.072a19.434 19.434 0 0 1 4.181 12.083z"/></g><g class="e"><path class="f" d="M358.156 258.256a206.607 206.607 0 0 1-2.419 7.225 6.759 6.759 0 0 1-.347-2.162 5.432 5.432 0 0 1 2.766-5.063z"/><path class="g" d="M366.348 216.226c0 4.623-.932 11.927-2.634 20.283a222.776 222.776 0 0 1-5.571 21.747 208.716 208.716 0 0 1-2.418 7.225c-.961 2.687-1.976 5.3-3.037 7.8a19.6 19.6 0 0 1-8.669-30.5 19.62 19.62 0 0 1-3.161-18.376l14.825 4.986-13.9-7.239a19.685 19.685 0 0 1 2.226-3.569 19.6 19.6 0 0 1 7.671-30.095 33.6 33.6 0 0 1 12.841 16.84l-2.568 1.912 2.755-1.43a33.433 33.433 0 0 1 1.6 8.774h-.774l.79.129c.024.504.024 1.005.024 1.513z"/><path class="h" d="M363.727 236.509a222.735 222.735 0 0 1-5.571 21.747c-.764 2.439-1.58 4.86-2.418 7.225a145.88 145.88 0 0 1-3.037 7.8 19.6 19.6 0 0 1-8.669-30.5 19.519 19.519 0 0 1-4.178-12.1c0-1.308 13.623 2.142 23.873 5.828z"/></g><path class="a" d="M366.313 214.714v-.124a33.433 33.433 0 0 0-1.6-8.774c-.053-.161-.105-.324-.161-.482a33.438 33.438 0 0 0-56.61-11.429 47.26 47.26 0 0 0-2.663-9.343 150.043 150.043 0 0 1-26.507.988 106.949 106.949 0 0 0 16.806 6.1l-.205.764a107.924 107.924 0 0 1-18.787-7.033l-1.82-.882 2.018.132a150.087 150.087 0 0 0 28.185-.809 47.527 47.527 0 0 0-8.3-13.192c-15.162-1.528-30.205-4.71-44.253-11.019l.324-.719c13.674 6.145 28.327 9.3 43.121 10.858a47.351 47.351 0 0 0-75.265 8 65.034 65.034 0 0 0-16.131-36.588 151.887 151.887 0 0 1-24.964 7.563 150.972 150.972 0 0 1-39.022 3.106 106.944 106.944 0 0 0 16.806 6.1l-.205.764a107.922 107.922 0 0 1-18.781-7.033l-1.82-.882 2.018.132a149.937 149.937 0 0 0 65.413-10.362q-1.172-1.283-2.413-2.508c-25.925.527-54.16.263-79.722-9.043a65.2 65.2 0 0 0-30.956 55.551c0 12.238 3.364 29.067 9.219 45.952a195.254 195.254 0 0 0 9.2 22.127 159.598 159.598 0 0 0 5.682 10.55 119.744 119.744 0 0 0 7.926 11.853q.774 1.019 1.567 2a72.307 72.307 0 0 0 9.873 10.239q1.1.917 2.21 1.746a42.1 42.1 0 0 0 6.322 3.951 29.149 29.149 0 0 0 11.933 3.235c.327.013.656.021.983.021v.134h177.008v-.134h.132a8.957 8.957 0 0 0 2.992-.527c6.259-2.221 12.022-11.137 16.814-22.406 1.054-2.5 2.076-5.113 3.037-7.8a191.14 191.14 0 0 0 2.418-7.225 222.767 222.767 0 0 0 5.571-21.747c1.688-8.355 2.634-15.66 2.634-20.283.008-.518.008-1.019-.027-1.522z"/><path class="i" d="M178.815 288.607l5.042-2.966a12.153 12.153 0 0 0-2.579-3.085l-9.512 2.958 7.455-4.381a12.117 12.117 0 0 0-17.939 10.626c0 6.691 5.424 6.922 12.117 6.922s12.117-.232 12.117-6.922a12.062 12.062 0 0 0-1.04-4.918z"/><path class="h" d="M180.097 295.107a9.408 9.408 0 0 0-1.786-1.4 8.316 8.316 0 0 0-2.942-1.436 22.07 22.07 0 0 0-2.9-.084 6.759 6.759 0 0 1-4.428-2.028 13.827 13.827 0 0 0-2.057-2.131 4.524 4.524 0 0 0-3.084-.566 7.636 7.636 0 0 0-.911.187 12.078 12.078 0 0 0-.717 4.112c0 6.691 5.424 6.922 12.117 6.922 3.248 0 6.2-.055 8.371-.875l-.364-.68a9.586 9.586 0 0 0-1.299-2.021z"/><circle class="f" cx="9.417" cy="9.417" r="9.417" transform="translate(225.578 152.217)"/><path class="j" d="M229.532 234.889c.972 6.82-.213 13.774-2.06 20.409a15.159 15.159 0 0 1-1.362 3.59 38.3 38.3 0 0 1-2.3 3.106 26.961 26.961 0 0 0-3.374 7.281 205.368 205.368 0 0 0-6.011 21.421 1.468 1.468 0 0 0 0 .914c.229.527.925.6 1.5.593l7.391-.039c.263-.506-.224-1.054-.527-1.538-1.054-1.638-.042-3.767.888-5.482a58.927 58.927 0 0 0 5.21-13.171 35.718 35.718 0 0 1 1.739-5.724 57.5 57.5 0 0 1 3.814-6.172 51.708 51.708 0 0 0 3.606-7.62 49.371 49.371 0 0 0 3.569-11.182 44.67 44.67 0 0 0-.079-11.013.7.7 0 0 0-.806-.79l-9.918-.511c-2.044-.105-2.529-.553-2.218 1.454.211 1.498.722 2.957.938 4.474z"/><path class="h" d="M229.532 236.433c.972 6.82-.213 13.774-2.06 20.409a15.159 15.159 0 0 1-1.362 3.59 38.3 38.3 0 0 1-2.3 3.106 26.961 26.961 0 0 0-3.374 7.281 205.368 205.368 0 0 0-6.011 21.421 1.468 1.468 0 0 0 0 .914c.229.527.925.6 1.5.593l7.391-.039c.263-.506-.224-1.054-.527-1.538-1.054-1.638-.042-3.767.888-5.482a58.927 58.927 0 0 0 5.21-13.171 35.718 35.718 0 0 1 1.739-5.724 57.5 57.5 0 0 1 3.814-6.172 51.708 51.708 0 0 0 3.606-7.62 49.371 49.371 0 0 0 3.569-11.182 44.67 44.67 0 0 0-.079-11.013.7.7 0 0 0-.806-.79l-9.918-.511c-2.044-.105-2.529-.553-2.218 1.454.211 1.498.722 2.957.938 4.474z"/><path d="M231.481 218.309c-2.015 2.9-4.128 6.232-3.459 9.7.508 2.634 2.516 4.676 4.409 6.585 7.57 7.6 15.014 16.047 17.591 26.465.664 2.692.985 5.455 1.557 8.166a90.179 90.179 0 0 0 4.741 14.316l4.942 12.472a7.47 7.47 0 0 0 7.143-4.737 3.127 3.127 0 0 1-1.873-1.2c-2.107-2.916-2.539-6.667-3.079-10.223-.6-3.93-1.4-7.828-2.2-11.724l-3.54-17.238c-.408-1.989-.817-3.98-1.349-5.94-2.06-7.591-5.964-14.751-6.567-22.6a5.308 5.308 0 0 0-.927-3.277 4.815 4.815 0 0 0-3.39-1.125c-4.935-.322-9.192-.804-13.999.36z" fill="#016101"/><path class="l" d="M218.171 290.519a7.88 7.88 0 0 0-1.638-.211 3.4 3.4 0 0 0-2.676 1.462 6.65 6.65 0 0 0-.719 1.581l-.714 2.049a2.278 2.278 0 0 0-.1 1.844 1.955 1.955 0 0 0 .959.74 17.8 17.8 0 0 0 5.558 1c1.828.179 3.64.5 5.445.838.622.119 1.241.237 1.87.3a22.283 22.283 0 0 0 4.23-.126l1.451-.14a5.226 5.226 0 0 0 1.428-.263 1.8 1.8 0 0 0 1.054-.946 1.708 1.708 0 0 0-1.351-2.123c-.382-.074-.79-.039-1.164-.09a5.5 5.5 0 0 1-1.275-.382 25.43 25.43 0 0 1-5.366-2.616c-.453-.319-.927-.764-.877-1.317a2.69 2.69 0 0 1 .234-.682 2.492 2.492 0 0 0 .021-1.762c-.09-.242-.263-.5-.508-.527-.7-.084-.611.93-.714 1.317-.14.527-.392.574-.888.527-1.426-.133-2.848-.204-4.26-.473zM259.756 297.596a4.648 4.648 0 0 0 1.006 2.832 2.2 2.2 0 0 0 .716.577 2.875 2.875 0 0 0 1.317.208 10.551 10.551 0 0 0 3.659-.74 10.459 10.459 0 0 1 1.264-.477 14.233 14.233 0 0 1 1.644-.237c2.178-.313 4.091-1.6 6.2-2.25a13 13 0 0 0 1.844-.606 8.45 8.45 0 0 0 2.168-1.694 3.891 3.891 0 0 0 1.422-3.588.682.682 0 0 0-.063-.371.555.555 0 0 0-.237-.187 3.439 3.439 0 0 0-2.107-.034 37.453 37.453 0 0 1-7.781.287 1.13 1.13 0 0 1-1.2-.682l-.988-1.58c-.282-.453-.73-.972-1.241-.817a1.011 1.011 0 0 0-.558 1.054 5.626 5.626 0 0 1 .066 1.275 1.741 1.741 0 0 1-.843 1.1 5.383 5.383 0 0 1-1.317.506 10.118 10.118 0 0 0-4.27 1.947c-.828.754-.751 2.453-.701 3.477z"/><path class="m" d="M259.246 193.091a6.1 6.1 0 0 0 1.438-1.565 6.381 6.381 0 0 0 .614-2.163l.414-2.613a7.875 7.875 0 0 1 1.459-4.064c.962-1.1 2.877-1.491 3.854-.406a3.381 3.381 0 0 1 .7 1.749 12.734 12.734 0 0 1-3.114 10.536c-1.183 1.3-2.634 2.326-3.885 3.551-1.091 1.054-2.036 2.263-3.042 3.409a41.991 41.991 0 0 1-8.289 7.244 37.2 37.2 0 0 0 0-6.008c-.213-1.407-.79-2.165.572-3.085a104.5 104.5 0 0 0 9.279-6.585zM232.678 173.815a4.819 4.819 0 0 1-1.844 3.643q4.923 1.723 9.712 3.8a3.365 3.365 0 0 1-.832-2.355 11.886 11.886 0 0 1 1.818-6.348 1.542 1.542 0 0 0 .3-.838c-.037-.622-.774-.909-1.38-1.054a33.949 33.949 0 0 0-6.3-.914c-.909-.029-1.986-.316-1.781.84a12.722 12.722 0 0 1 .307 3.226z"/><circle class="m" cx="7.7" cy="7.7" r="7.7" transform="translate(231.331 159.166)"/><path class="n" d="M246.653 187.662a9.3 9.3 0 0 0-.977-1.638 34.086 34.086 0 0 0-4.62-5.666 28.757 28.757 0 0 0-4.386-3.221 9.953 9.953 0 0 0-2.745-1.317 10.734 10.734 0 0 0-1.762-.24l-2-.163a1.636 1.636 0 0 0-.527.016 1.135 1.135 0 0 0-.674 1.357 3.34 3.34 0 0 0 .89 1.4c.09 4.08-1.725 8.105-1.97 12.18-.429 7.125 3.92 13.753 4.267 20.883a2.252 2.252 0 0 1-.1.956c-.058.148-.145.282-.211.427a4.168 4.168 0 0 0-.235 1.449 7.359 7.359 0 0 1-2.168 4.641 3.222 3.222 0 0 0 1.222.932 22.06 22.06 0 0 0 2.737.653 21.249 21.249 0 0 0 7.136 1.22 6.3 6.3 0 0 0 .55-2.073c.342-.213.738.242.79.643s-.024.867.263 1.156a1.084 1.084 0 0 0 1 .2 44.257 44.257 0 0 0 4.346-1.019 8.107 8.107 0 0 1 4.407-.016 1.179 1.179 0 0 0-.068-1.291 5.775 5.775 0 0 1-.693-1.183 2.66 2.66 0 0 1-.084-.777c0-2.252.464-4.528.024-6.738-.129-.648-.335-1.28-.466-1.931a16.649 16.649 0 0 1-.19-3.851c.034-1.288-.121-2.681-.148-3.988a12.742 12.742 0 0 0-.105-1.615c-.089-.561-.263-1.109-.311-1.675-.142-1.438.437-2.866.35-4.309-.141-2.191-2.688-3.381-3.542-5.402z"/><path class="m" d="M229.277 186.629a84.79 84.79 0 0 0-3.688 15.4l-2.107 12.238a59.221 59.221 0 0 0-1.175 10.447 11.181 11.181 0 0 1-.195 2.94 15.877 15.877 0 0 1-1.81 3.424 11.269 11.269 0 0 0-1.212 7.62c.216 1.093.806 2.334 1.915 2.46a2.653 2.653 0 0 0 2.231-1.372 17.676 17.676 0 0 0 2.371-5.824 131.727 131.727 0 0 0 3.654-20.306 19.773 19.773 0 0 1 .366-2.581 18.324 18.324 0 0 1 .89-2.571q1.209-3 2.421-6a95.778 95.778 0 0 1 6.293-13.529c-2.529-.727-5.16-1.58-7.689-2.3a6.945 6.945 0 0 0-2.265-.046z"/><path class="n" d="M233.659 190.388a28.934 28.934 0 0 0-5.408-.308 1.166 1.166 0 0 1-.727-.19c-.366-.313-.211-.9-.026-1.346l.875-2.107a3.067 3.067 0 0 1 .7-1.164 2.972 2.972 0 0 1 1.662-.564 15.059 15.059 0 0 1 5.758.224 6.887 6.887 0 0 1 4.446 3.445 2.344 2.344 0 0 1 .047 2.3c-.685.983-2.22 2.081-3.366 1.544-1.372-.646-2.423-1.508-3.961-1.834z"/><path class="f" d="M243.072 154.907a7.776 7.776 0 0 0-4.294 1.238 9.417 9.417 0 0 0-9.246-2.165 5.382 5.382 0 1 0-6.217 6.227 9.417 9.417 0 0 0 18.075 5.292 8.428 8.428 0 0 0 1.688.171c3.714 0 6.728-2.41 6.728-5.382s-3.026-5.381-6.734-5.381z"/><path class="h" d="M244.412 162.978a8.192 8.192 0 0 1-1.688-.171 9.37 9.37 0 0 1-1.233 2.71 8.448 8.448 0 0 0 1.581.153c3.472 0 6.322-2.107 6.688-4.8a7.421 7.421 0 0 1-5.348 2.108zM233.649 169.705a9.43 9.43 0 0 1-9-12.191 5.382 5.382 0 0 1-4.449-5.3 5.292 5.292 0 0 1 .087-.964 5.381 5.381 0 0 0 3.019 8.956 9.417 9.417 0 1 0 17.988 5.579 9.4 9.4 0 0 1-7.642 3.92z"/><rect class="o" width=".176" height="1.459" rx=".088" transform="rotate(35.51 -155.554 510.914)"/><rect class="o" width=".1" height=".479" rx=".05" transform="rotate(35.51 -150.827 502.303)"/><rect class="o" width=".111" height=".835" rx=".055" transform="rotate(35.51 -152.204 501.853)"/><rect class="o" width=".105" height=".843" rx=".053" transform="rotate(35.51 -153.965 501.299)"/><rect class="o" width="5.921" height="12.035" rx="2.52" transform="rotate(35.51 -149.024 503.813)"/><rect class="h" width="5.921" height="12.035" rx="2.52" transform="rotate(35.51 -149.024 503.813)"/><rect width="5.921" height="12.035" rx="2.52" transform="rotate(35.51 -148.38 503.185)" fill="#005300"/><path class="i" d="M268.696 183.013l-.551-.4-.047.066a.385.385 0 0 1-.527.092l-1.76-1.257a.387.387 0 0 1-.089-.54l.047-.066-.527-.369a.469.469 0 0 0-.656.108l-6.08 8.521a.472.472 0 0 0 .108.656l3.461 2.468a.469.469 0 0 0 .656-.111l6.08-8.519a.469.469 0 0 0-.116-.656z"/><rect class="q" width=".827" height=".169" rx=".084" transform="rotate(35.51 -150.14 506.735)"/><circle class="q" cx=".095" cy=".095" r=".095" transform="translate(267.184 182.072)"/><path class="j" d="M267.306 116.37a17.649 17.649 0 0 0-17.649 17.649c0 9.746 18.492 42.025 18.492 42.025s16.808-32.266 16.808-42.025a17.649 17.649 0 0 0-17.651-17.649zm0 29.418a3.83 3.83 0 1 1 0 .008z"/><path class="h" d="M267.306 114.825a17.649 17.649 0 0 0-17.649 17.649c0 9.746 18.492 42.025 18.492 42.025s16.808-32.266 16.808-42.025a17.649 17.649 0 0 0-17.651-17.649zm0 29.418a3.83 3.83 0 1 1 0 .008z"/><path class="i" d="M267.306 112.7a17.649 17.649 0 0 0-17.649 17.649c0 9.746 18.492 45.7 18.492 45.7s16.806-35.95 16.806-45.7a17.649 17.649 0 0 0-17.652-17.649zm0 29.418a9.246 9.246 0 1 1 9.246-9.246 9.246 9.246 0 0 1-9.246 9.246z"/></g></svg>