<svg height="272" viewBox="0 0 307 272" width="307" xmlns="http://www.w3.org/2000/svg"><rect fill="#02cb02" height="307" opacity=".05" rx="40" transform="matrix(0 1 -1 0 307 0)" width="272"/><g fill="#6c63ff"><path d="m393.257 100.119a64.226 64.226 0 0 0 -10.457-16.667l-145.134-1.431 119.491-16.783a67.881 67.881 0 0 0 -24.245-4.809 67.952 67.952 0 0 0 -81.172-2.746 67.66 67.66 0 0 0 -31.066-7.49c-32.247 0-59.116 22.335-65.143 51.951z" opacity=".1" transform="translate(-113.64 -2.296)"/><path d="m335.579 293.134a62.744 62.744 0 0 0 -4.521-23.444l-251.531 26.4a63.166 63.166 0 0 0 -5.885 14.883l77.9 11.61-79.682 8.468c2.4 33.528 31.139 60 66.249 60a67.221 67.221 0 0 0 45.635-17.651 67.487 67.487 0 0 0 106.056-18.905c21.374-6.783 37.977-23.816 43.659-45.125l-98.5-15.277h100.61c.005-.32.01-.64.01-.959z" opacity=".1" transform="translate(-50.86 -170.471)"/><ellipse cx="28.018" cy="227.713" opacity=".1" rx="6.446" ry=".886"/><ellipse cx="52.713" cy="230.217" opacity=".1" rx="6.446" ry=".886"/><ellipse cx="81.802" cy="226.827" opacity=".1" rx="6.446" ry=".886"/><ellipse cx="42.829" cy="237.348" opacity=".1" rx="4.584" ry=".629"/><ellipse cx="68.462" cy="236.719" opacity=".1" rx="4.584" ry=".629"/></g><path d="m188.528 646.46s-9.043-29.641 1.413-41.512c7.825-8.883 16.7-7.82 20.68-6.721a7.35 7.35 0 0 1 4.744 3.942c1.391 3 1.138 7.867-8.676 13.549-16.433 9.515-17.454 22.565-17.454 22.565z" fill="#05a705" transform="translate(-135.675 -416.442)"/><path d="m217.492 617.23s-26.655 8.334-20.678 44.029" fill="none" stroke="#166a16" stroke-miterlimit="10" transform="translate(-143.962 -431.241)"/><path d="m219.91 629.2s3.67 2.472 2.5 6.189" fill="none" stroke="#166a16" stroke-miterlimit="10" transform="translate(-161.946 -440.223)"/><path d="m256.6 633.786s-2.247-2.282-4.973-1.024" fill="none" stroke="#166a16" stroke-miterlimit="10" transform="translate(-185.747 -442.612)"/><path d="m214.448 681.727s-3.94-2-4.958.5" fill="none" stroke="#166a16" stroke-miterlimit="10" transform="translate(-154.128 -479.068)"/><path d="m190.3 700.636s2.959-.235 3.013 1.181" fill="none" stroke="#166a16" stroke-miterlimit="10" transform="translate(-139.729 -493.813)"/><path d="m198 731.179s10.591-21.544 13.5-21.072c1.381.225 2.017 1.583 2.307 2.949a8.688 8.688 0 0 1 -.577 5.258c-1.498 3.433-5.548 9.986-15.23 12.865z" fill="#05a705" transform="translate(-145.507 -500.924)"/><path d="m211.862 726.51s-11.115 16.119-13.262 16.825" fill="none" stroke="#166a16" stroke-miterlimit="10" transform="translate(-145.957 -513.238)"/><path d="m66.929 215.787h-2.594" fill="none" stroke="#166a16" stroke-miterlimit="10"/><path d="m63.821 221.684-4.065.175" fill="none" stroke="#166a16" stroke-miterlimit="10"/><path d="m61.347 216.967.442 2.117" fill="none" stroke="#166a16" stroke-miterlimit="10"/><path d="m57.022 223.414.08 1.925" fill="none" stroke="#166a16" stroke-miterlimit="10"/><path d="m151.212 731.179s-10.591-21.544-13.5-21.072c-1.381.225-2.017 1.583-2.307 2.949a8.671 8.671 0 0 0 .579 5.243c1.501 3.448 5.538 10.001 15.228 12.88z" fill="#05a705" transform="translate(-98.411 -500.924)"/><path d="m145.48 726.51s11.115 16.119 13.262 16.825" fill="none" stroke="#166a16" stroke-miterlimit="10" transform="translate(-106.099 -513.238)"/><path d="m38.36 215.787h2.594" fill="none" stroke="#166a16" stroke-miterlimit="10"/><path d="m41.466 221.684 4.067.175" fill="none" stroke="#166a16" stroke-miterlimit="10"/><path d="m43.942 216.967-.442 2.117" fill="none" stroke="#166a16" stroke-miterlimit="10"/><path d="m48.267 223.414-.08 1.925" fill="none" stroke="#166a16" stroke-miterlimit="10"/><path d="m254.445 805.927a1.837 1.837 0 0 0 .6-.909.809.809 0 0 0 -.422-.926c-.387-.15-.8.12-1.114.389a1.5 1.5 0 0 1 -1.084.524 1.651 1.651 0 0 0 .5-1.543.645.645 0 0 0 -.14-.315c-.215-.23-.6-.13-.861.05a3.206 3.206 0 0 0 -1.051 2.686 5.114 5.114 0 0 1 -.015-1.106 1.13 1.13 0 0 0 -.417-.979 1.218 1.218 0 0 0 -.632-.15 1.361 1.361 0 0 0 -1.029.292 1.022 1.022 0 0 0 .04 1.263 4.026 4.026 0 0 0 1.064.851 2.373 2.373 0 0 1 .749.724.754.754 0 0 1 .055.13h2.312a6.388 6.388 0 0 0 1.445-.981z" fill="#05a705" transform="translate(-183.461 -570.642)"/><path d="m92.81 771.175a1.832 1.832 0 0 0 .6-.909.814.814 0 0 0 -.422-.929c-.387-.147-.8.122-1.114.392a1.492 1.492 0 0 1 -1.084.522 1.643 1.643 0 0 0 .5-1.543.652.652 0 0 0 -.142-.312c-.215-.23-.6-.132-.861.05a3.206 3.206 0 0 0 -1.051 2.686 5.135 5.135 0 0 1 -.015-1.109 1.123 1.123 0 0 0 -.414-.976 1.228 1.228 0 0 0 -.634-.15 1.305 1.305 0 0 0 -1.029.292 1 1 0 0 0 .04 1.248 3.956 3.956 0 0 0 1.066.854 2.34 2.34 0 0 1 .749.724.885.885 0 0 1 .057.13h2.3a6.433 6.433 0 0 0 1.454-.97z" fill="#05a705" transform="translate(-62.18 -544.566)"/><path d="m146.685 805.927a1.837 1.837 0 0 0 .6-.909.809.809 0 0 0 -.422-.926c-.387-.15-.8.12-1.114.389a1.5 1.5 0 0 1 -1.084.524 1.65 1.65 0 0 0 .5-1.543.644.644 0 0 0 -.14-.315c-.215-.23-.6-.13-.861.05a3.206 3.206 0 0 0 -1.051 2.686 5.113 5.113 0 0 1 -.015-1.106 1.128 1.128 0 0 0 -.414-.979 1.235 1.235 0 0 0 -.634-.15 1.365 1.365 0 0 0 -1.029.292 1.022 1.022 0 0 0 .04 1.263 4.023 4.023 0 0 0 1.064.851 2.375 2.375 0 0 1 .749.724.755.755 0 0 1 .055.13h2.3a6.387 6.387 0 0 0 1.456-.981z" fill="#05a705" transform="translate(-102.605 -570.642)"/><path d="m309.928 744.43s.864 1.131-.4 2.836-2.3 3.146-1.883 4.209c0 0 1.9-3.168 3.455-3.213s.533-1.927-1.172-3.832z" fill="#05a705" transform="translate(-227.706 -526.684)"/><path d="m310.077 744.43a1.434 1.434 0 0 1 .177.355c1.513 1.778 2.317 3.435.864 3.478-1.356.04-2.979 2.462-3.368 3.073.012.047.027.092.045.14 0 0 1.9-3.168 3.455-3.213s.532-1.928-1.173-3.833z" opacity=".1" transform="translate(-227.856 -526.684)"/><path d="m322.9 749.437c0 .4-.045.719-.1.719s-.1-.322-.1-.719.057-.21.112-.21.088-.187.088.21z" fill="#ffd037" transform="translate(-239.073 -530.25)"/><path d="m323.664 751.27c-.35.19-.654.3-.679.25s.235-.25.584-.432.21-.052.237 0 .208-.008-.142.182z" fill="#ffd037" transform="translate(-239.285 -531.608)"/><path d="m292.972 744.43s-.864 1.131.4 2.836 2.3 3.146 1.882 4.209c0 0-1.9-3.168-3.455-3.213s-.522-1.927 1.173-3.832z" fill="#05a705" transform="translate(-215.315 -526.684)"/><path d="m292.972 744.43a1.387 1.387 0 0 0 -.175.355c-1.513 1.778-2.319 3.435-.866 3.478 1.356.04 2.981 2.462 3.371 3.073-.015.047-.03.092-.047.14 0 0-1.9-3.168-3.455-3.213s-.523-1.928 1.172-3.833z" opacity=".1" transform="translate(-215.315 -526.684)"/><path d="m292.36 749.437c0 .4.045.719.1.719s.1-.322.1-.719-.055-.21-.11-.21-.09-.187-.09.21z" fill="#ffd037" transform="translate(-216.308 -530.25)"/><path d="m289.488 751.27c.35.19.654.3.682.25s-.237-.25-.584-.432-.212-.052-.25 0-.195-.008.152.182z" fill="#ffd037" transform="translate(-213.987 -531.608)"/><path d="m293.46 768.128a8.82 8.82 0 0 0 3.143-.592c.727-.519 3.715-1.138 3.9-.307s3.628 4.135.9 4.157-6.334-.424-7.061-.866-.882-2.392-.882-2.392z" fill="#a8a8a8" transform="translate(-217.133 -543.485)"/><path d="m301.452 775.011c-2.726.023-6.337-.424-7.063-.866-.554-.337-.774-1.545-.846-2.1h-.082s.155 1.95.881 2.392 4.334.889 7.061.866c.789 0 1.059-.287 1.044-.7-.114.248-.411.403-.995.408z" opacity=".2" transform="translate(-217.133 -547.4)"/><ellipse cx="173.895" cy="241.485" fill="#6c63ff" opacity=".1" rx="82.246" ry="3.73"/><path d="m623.642 389.839s5.243 9.919 5.65 11.335a1.913 1.913 0 0 0 1.768 1.413s5.223 1.248 6.471 1.416 12.069 1.081 12.069 1.081 2.746.085 3.078-.914c.3-.914 5.61-5.715 8.681-1.525a3.053 3.053 0 0 1 .444 2.726c-.564 1.8-1.723 4.651-2.966 2.876-1.748-2.5-3.78-1.8-3.78-.464s-2.8.836-3.71 1.024c-.5.1-2.217.559-3.7.959a26.974 26.974 0 0 1 -5.273.876c-2.949.192-7.3.352-8.836-.23a23.985 23.985 0 0 0 -6.491-.906 2.134 2.134 0 0 1 -1.266-.454 19.747 19.747 0 0 1 -4.806-5.465c-2.165-3.745-6.616-11.5-6.317-13.747s8.984-.001 8.984-.001z" fill="#efb7b9" transform="translate(-458.127 -259.873)"/><path d="m623.642 389.839s5.243 9.919 5.65 11.335a1.913 1.913 0 0 0 1.768 1.413s5.223 1.248 6.471 1.416 12.069 1.081 12.069 1.081 2.746.085 3.078-.914c.3-.914 5.61-5.715 8.681-1.525a3.053 3.053 0 0 1 .444 2.726c-.564 1.8-1.723 4.651-2.966 2.876-1.748-2.5-3.78-1.8-3.78-.464s-2.8.836-3.71 1.024c-.5.1-2.217.559-3.7.959a26.974 26.974 0 0 1 -5.273.876c-2.949.192-7.3.352-8.836-.23a23.985 23.985 0 0 0 -6.491-.906 2.134 2.134 0 0 1 -1.266-.454 19.747 19.747 0 0 1 -4.806-5.465c-2.165-3.745-6.616-11.5-6.317-13.747s8.984-.001 8.984-.001z" opacity=".05" transform="translate(-458.127 -259.873)"/><path d="m836.691 557.94c-2.374 2.582-4.122 3.6-4.04.874.25-8.239-14.231-45.49-14.231-45.49l4.28-.324c9.347 16.1 12.822 32.659 13.991 44.94z" fill="none" transform="translate(-611.027 -353.034)"/><path d="m849.605 703.045a20.6 20.6 0 0 1 -41.118 1.748c-.03-.335-.052-.669-.062-1v-.018q-.015-.372-.015-.749a20.6 20.6 0 1 1 41.2 0z" fill="#65617d" transform="translate(-603.517 -480.163)"/><circle cx="225.491" cy="222.87" fill="#dce0ed" r="11.235"/><circle cx="225.491" cy="222.87" fill="#65617d" r="6.741"/><path d="m525.189 562.818-49.6 1v-7.31c.444-5.885 6.491-7.949 11.984-8.6a34.4 34.4 0 0 1 12.815.961c10.524 2.786 17.227 3.326 20.53 3.378a3.148 3.148 0 0 1 3.046 2.562c.157.836.312 1.748.457 2.646.11.7.215 1.4.31 2.045.276 1.865.458 3.318.458 3.318z" fill="#65617d" transform="translate(-353.791 -379.064)"/><path d="m511.005 577.22h-103.035a4.057 4.057 0 0 1 -3.758-2.429c-.776-1.855.31-3.038 1.468-3.733a11.672 11.672 0 0 0 5.073-6.207c1.1-3.246 2.172-8.324 2.594-16.258.434-8.207 3.405-12.264 6.616-14.231a13.1 13.1 0 0 1 8.693-1.585l41.777.334a8.031 8.031 0 0 1 2.04 1.331c3.723 3.465-1.705 7.989-1.705 7.989-11.652 12.316-2.831 24.8-2.831 24.8h21.377a19.672 19.672 0 0 0 11.2-3.428 11.281 11.281 0 0 0 4.439-5.1c.33-.894.664-1.785 1.064-2.649 5.608-12.161-1.156-31.945-4.075-39.343-.724-1.84-1.211-2.914-1.211-2.914l6.7-.5 4.244-.322h.042c9.343 16.114 12.815 32.672 13.981 44.94.11 1.156.2 2.277.272 3.353a14.98 14.98 0 0 1 -14.968 15.946z" fill="#05a705" transform="translate(-300.038 -353.019)"/><path d="m524.735 588.855h-49.145v-2.045h48.835c.11.69.215 1.39.31 2.045z" opacity=".1" transform="translate(-353.791 -408.416)"/><path d="m520.61 593.47h-52.115a1 1 0 0 1 -.394-.08 13.1 13.1 0 0 1 8.693-1.585l41.777.334a8.03 8.03 0 0 1 2.039 1.331z" opacity=".1" transform="translate(-348.171 -412.033)"/><rect fill="#dce0ed" height="2.045" rx="1.022" width="72.828" x="101.066" y="178.881"/><path d="m836.691 557.94c-2.374 2.582-4.122 3.6-4.04.874.25-8.239-14.231-45.49-14.231-45.49l4.28-.324c9.347 16.1 12.822 32.659 13.991 44.94z" opacity=".1" transform="translate(-611.027 -353.034)"/><path d="m849.533 700.85c-2.459.589-5.493 1.188-9.238 1.748q-2.09.307-4.494.589c-3.827.454-8.254.851-13.367 1.156q-2.172.13-4.511.237-4.382.2-9.38.3l-.062-1v-.017c4.656-1.88 11.984-6.9 13.163-19.961a20.608 20.608 0 0 1 27.893 16.963z" opacity=".1" transform="translate(-603.569 -480.237)"/><path d="m792.92 654.3s23.644-2.567 15.5-38.591c0 0 11.682 10.711 18.95 16.663s20.223 14.159 20.223 14.159-7.735 7.229-54.673 7.769z" fill="#05a705" transform="translate(-591.894 -430.101)"/><path d="m792.92 654.3s23.644-2.567 15.5-38.591c0 0 11.682 10.711 18.95 16.663s20.223 14.159 20.223 14.159-7.735 7.229-54.673 7.769z" fill="#fff" opacity=".1" transform="translate(-591.894 -430.101)"/><circle cx="137.86" cy="222.87" fill="#65617d" r="20.598"/><circle cx="137.86" cy="222.87" fill="#dce0ed" r="11.235"/><circle cx="137.86" cy="222.87" fill="#65617d" r="6.741"/><path d="m490.607 667.793a23.6 23.6 0 1 0 -47.187 0q0 .844.057 1.67h47.073q.057-.826.057-1.67z" opacity=".1" transform="translate(-329.653 -451.11)"/><path d="m492.36 668.812a22.725 22.725 0 1 0 -45.44 0c0 .542.02 1.076.055 1.608h45.325c.04-.532.06-1.067.06-1.608z" fill="#00c100" transform="translate(-332.279 -452.543)"/><path d="m492.36 668.812c0 .372 0 .749-.028 1.108 0 .167-.017.332-.027.5h-45.33c0-.167-.02-.332-.027-.5-.018-.367-.028-.749-.028-1.108a22.725 22.725 0 1 1 45.44 0z" fill="#fff" opacity=".1" transform="translate(-332.279 -452.543)"/><path d="m492.415 743c0 .167-.017.332-.027.5h-45.33c0-.167-.02-.332-.027-.5z" opacity=".1" transform="translate(-332.362 -525.611)"/><rect height="5.325" opacity=".1" rx="2.663" width="61.039" x="104.702" y="218.376"/><rect fill="#dce0ed" height="5.325" rx="2.663" width="61.039" x="104.702" y="217.876"/><ellipse cx="2.991" cy="7.53" opacity=".1" rx="2.991" ry="7.53" transform="matrix(.91118768 -.41199151 .41199151 .91118768 212.67 170.654)"/><ellipse cx="2.991" cy="7.53" fill="#dce0ed" rx="2.991" ry="7.53" transform="matrix(.91118768 -.41199151 .41199151 .91118768 212.92 170.403)"/><path d="m802.533 513v3.912h-7.615a13.121 13.121 0 0 1 -2.117-.17c-.724-1.84-1.211-2.914-1.211-2.914l6.7-.5z" opacity=".1" transform="translate(-590.896 -353.034)"/><path d="m776.144 456.339h-7.615c-6.689 0-12.109-4.993-12.109-11.178v-1.036c0-6.172 5.42-11.175 12.109-11.175l7.615.692z" fill="#05a705" transform="translate(-564.507 -292.97)"/><path d="m760.6 458.7s4.556 2.434 1.935 6.554c0 0-3.216 5.273-8.271 4.774l-1.844-11.328s6.054-.562 8.18 0z" fill="#3f3" transform="translate(-561.505 -312.104)"/><path d="m758.861 458.47a4.843 4.843 0 0 1 3.705 1.952 3.99 3.99 0 0 1 -.015 4.821s-3.216 5.273-8.271 4.774l-1.84-11.327a53.717 53.717 0 0 1 6.421-.22z" opacity=".1" transform="translate(-561.521 -312.094)"/><path d="m762.56 390.17h1.468a4.649 4.649 0 0 1 4.649 4.649v13.4a4.649 4.649 0 0 1 -4.649 4.649h-1.468z" opacity=".1" transform="translate(-551.173 -249.499)"/><path d="m763.56 390.17h1.468a4.649 4.649 0 0 1 4.649 4.649v13.4a4.649 4.649 0 0 1 -4.649 4.649h-1.468z" fill="#dce0ed" transform="translate(-551.923 -249.499)"/><path d="m618.88 518.25s1.176.429 2.746 1.029a62.175 62.175 0 0 1 7.24 3.133c1.223.769 5.785 2.032 9.2 2.921a29.96 29.96 0 0 0 7.755.956c2.656-.025 5.875-.05 6.764-.05a2.8 2.8 0 0 1 .464.035c.934.155.9.781.874.931v.032c-5.493 3.328-12.151 18.226-12.566 20.722-.312 1.873-3.056 7.063-4.409 9.545-.454.831-.749 1.358-.749 1.358l1.665 1.912 4.826 2.165 4.576 2s4.829.25 4.911 0 .082-2.829.082-2.829a13.616 13.616 0 0 1 -1.668-1.268 27.577 27.577 0 0 1 -3.076-3.143c-2.661-3.163 2.664-9.238 2.664-9.238l10.236-13.315s.831-1.5 4.826-7.49 0-9.238 0-9.238l-7.031-2.919c-12.194-4.564-26.9-8.222-26.9-8.222l-.21-.027-3.118-.389z" fill="#efb7b9" transform="translate(-461.306 -348.427)"/><path d="m697.773 716.112s.874 1.031.22 1.123a10.876 10.876 0 0 1 -2.372-.28l-10.893-5.742s-1.186-.844-1.466.811-.469 1.5-.469 1.5-1.436 3.088 0 3.728 10.059 3.168 10.059 3.168 12.516 2.841 13.7-.437-2.122-2.714-2.122-2.714-4.119-1-5.525-3c-.005.003-2.036.565-1.132 1.843z" fill="#444053" transform="translate(-508.783 -501.599)"/><path d="m665.233 518.417-7.033-2.917c-12.194-4.564-26.9-8.222-26.9-8.222l-.21-.027-3.118-.389-9.093 11.39s1.176.43 2.746 1.029a62.182 62.182 0 0 1 7.24 3.133c1.223.769 5.785 2.032 9.2 2.921a29.952 29.952 0 0 0 7.755.956c2.656-.025 5.875-.05 6.764-.05a2.8 2.8 0 0 1 .464.035c.934.155.9.781.874.931v.032c-5.493 3.328-12.151 18.226-12.566 20.722-.312 1.872-3.056 7.063-4.409 9.545l-.182.335c-.362-.06-.814.07-.974 1.014-.282 1.653-.469 1.5-.469 1.5s-1.436 3.088 0 3.728 10.052 3.168 10.052 3.168 12.516 2.841 13.7-.437-2.122-2.714-2.122-2.714-4.12-1-5.525-3a2.756 2.756 0 0 0 -.365.135c-.147-.12-.3-.25-.472-.394a27.58 27.58 0 0 1 -3.076-3.143c-2.661-3.163 2.664-9.238 2.664-9.238l10.237-13.315s.831-1.5 4.826-7.49-.008-9.238-.008-9.238z" opacity=".05" transform="translate(-461.306 -348.427)"/><path d="m585.3 289.264.38.479.212.267 1.323 1.665s3.158 1.014 5.927 1.67c2.884.682 5.343.979 3.388-.652-1.213-1.011-1.293-2.7-.851-4.519a18.7 18.7 0 0 1 1.588-4.02q.147-.285.292-.554a33.326 33.326 0 0 1 2.057-3.323 59.061 59.061 0 0 0 -5.515-3.388c-2.287-1.183-4.164-1.7-2.974.642a5.48 5.48 0 0 1 -.2 4.791c-.055.127-.115.25-.177.382a17.172 17.172 0 0 1 -2.357 3.468 27.372 27.372 0 0 1 -3.093 3.092z" fill="#efb7b9" transform="translate(-436.11 -175.122)"/><path d="m569.524 436.24 1.693 1.545 1.635 6.292h-2.729l-3.013-3.92z" fill="#444053" transform="translate(-404.52 -284.066)"/><path d="m567.11 440.157 1.823 2.369 1.191 1.55h2.729l-.28-1.076-1.191-4.584-.165-.632-1.693-1.545-2.312 3.75z" opacity=".1" transform="translate(-404.52 -284.066)"/><path d="m567.11 440.157 1.823 2.369 1.191 1.55h2.729l-.28-1.076-1.191-4.584-.165-.632-1.693-1.545-2.312 3.75z" opacity=".1" transform="translate(-404.52 -284.066)"/><path d="m602.64 523.272s1.176.429 2.746 1.029a62.186 62.186 0 0 1 7.24 3.133c1.223.769 5.785 2.032 9.2 2.921a29.962 29.962 0 0 0 7.755.959c2.657-.025 5.875-.05 6.763-.05a2.811 2.811 0 0 1 .464.035c.934.155.9.781.874.931v.032c-5.493 3.328-12.151 18.226-12.566 20.722-.312 1.872-3.056 7.063-4.409 9.545-.454.831-.749 1.358-.749 1.358l1.665 1.912 4.824 2.162 4.576 2s4.829.25 4.911 0 .082-2.829.082-2.829a13.644 13.644 0 0 1 -1.668-1.268 27.594 27.594 0 0 1 -3.076-3.143c-2.661-3.163 2.664-9.238 2.664-9.238l10.236-13.315s.831-1.5 4.826-7.49 0-9.238 0-9.238l-6.406-3.663c-9.987-6.074-24.053-9.57-24.053-9.57l-.21-.027-3.118-.389z" fill="#efb7b9" transform="translate(-449.121 -350.626)"/><path d="m672 722.363 1.665 1.912 4.826 2.165 4.576 2s4.829.25 4.911 0 .082-2.829.082-2.829a13.651 13.651 0 0 1 -1.668-1.268c-.517.277-1.1.8-.537 1.6 0 0 .874 1.029.22 1.123a10.714 10.714 0 0 1 -2.372-.28l-10.893-5.742-.062-.042z" opacity=".1" transform="translate(-501.164 -509.103)"/><path d="m681.533 727.417s.874 1.029.217 1.123a10.661 10.661 0 0 1 -2.372-.282l-10.891-5.742s-1.186-.841-1.468.811-.467 1.5-.467 1.5-1.436 3.091 0 3.73 10.049 3.158 10.049 3.158 12.513 2.839 13.7-.437-2.122-2.716-2.122-2.716-4.12-1-5.523-3c.008.013-2.03.575-1.123 1.855z" fill="#444053" transform="translate(-496.598 -510.08)"/><path d="m605.3 281.679c1.443 1 3.645 2.579 5.525 2.579a9.211 9.211 0 0 0 1.448-.115 33.757 33.757 0 0 1 2.349-3.877s-10.985-7.657-8.489-2.746c.825 1.632.013 2.434-.833 4.159z" opacity=".1" transform="translate(-451.117 -175.112)"/><path d="m591.43 244.425a8.973 8.973 0 0 0 4.1 7.54 8.248 8.248 0 0 0 .879.5 8.988 8.988 0 1 0 -4.976-8.044z" fill="#efb7b9" transform="translate(-440.71 -144.767)"/><path d="m602.64 523.272s1.176.429 2.746 1.029a13.244 13.244 0 0 1 2.419-1.86c.916-.335 3.912-2.082 3.83-2.582a4.379 4.379 0 0 1 2.412-2.746c1.163-.335.5-2.08.5-2.08s2.247-.831 2.806-2 2.272-2.664 1.688-2.579a1.813 1.813 0 0 1 -.709-.277l-3.118-.389z" opacity=".1" transform="translate(-449.121 -350.626)"/><path d="m565.69 508.71s3.83 3.163 4.007 4.576 2.734 1.333 2.734 1.333 3.83-3.663 4.744-3.995 3.912-2.082 3.83-2.582a4.378 4.378 0 0 1 2.412-2.746c1.163-.335.5-2.08.5-2.08s2.247-.831 2.806-2 2.272-2.664 1.688-2.579a4.23 4.23 0 0 1 -1.361-.647c-.821-.5-1.863-1.176-2.711-1.748-.9-.609-1.585-1.094-1.585-1.094s-.392-.07-1.064-.167c-3.623-.524-15.422-1.862-18.161 2.5a6.606 6.606 0 0 0 -.811 1.865c-1.228 4.645 2.972 9.364 2.972 9.364z" fill="#444053" transform="translate(-418.996 -339.06)"/><path d="m574.594 511.37s-3.91 2.207-5.368 2.207 5.368-2.207 5.368-2.207z" opacity=".1" transform="translate(-423.896 -351.811)"/><path d="m584.267 517.975s-5.822 1.957-5.822 3.5-.545-4.124 5.822-3.5z" opacity=".1" transform="translate(-430.958 -356.731)"/><path d="m657.382 482.81-.083.112a.249.249 0 0 0 .083-.112z" opacity=".1" transform="translate(-490.134 -330.382)"/><path d="m585.3 320.163.38.479.212.267 1.323 1.665s3.158 1.014 5.927 1.67c2.884.682 5.343.979 3.388-.652-1.213-1.011-1.293-2.7-.851-4.519l-.087-.112s.087 1.683-.909 1.715c-1.343.042-1.361-.409-2.6-.931a8.355 8.355 0 0 1 -3.69-2.676 27.372 27.372 0 0 1 -3.093 3.094z" opacity=".1" transform="translate(-436.11 -206.022)"/><path d="m563.39 489.9a2.884 2.884 0 0 0 2.142.05c2.579-.834 6.659-2.841 8.571-1.962 1.533.7 7.707.684 9.987.092.567-.147.891-.33.841-.544a1.5 1.5 0 0 1 .087-.732 13.485 13.485 0 0 1 1.521-2.834l-.165-.632-1.693-1.546-2.312 3.745c-3.623-.524-15.422-1.862-18.161 2.5a6.605 6.605 0 0 0 -.818 1.863z" opacity=".1" transform="translate(-419.67 -329.616)"/><path d="m555.655 364.781a2.832 2.832 0 0 0 3.578 1.5c2.579-.831 6.659-2.841 8.571-1.962s11.07.629 10.821-.452 2.247-4.494 2.247-4.494-1.363-.25-2.207-4.7c-.125-.649-.237-1.388-.332-2.227a28.34 28.34 0 0 1 -.145-5.178c.337-4.819 2.025-6.786 2.025-6.786a5.6 5.6 0 0 0 .332-6.324c-1.046-1.92-5.268-7.24-5.325-9.612-.052-2.152-2.11-4.654-2.11-4.654s.087 1.683-.909 1.715c-1.343.042-1.361-.409-2.6-.931-1.82-.769-3.69-2.125-3.812-3.031 0 0-7.63-.382-9.3 7.358s-1.081 11.984-.831 12.9 2.412 12.733.664 17.726a17.2 17.2 0 0 0 -.667 9.152z" fill="#a36468" transform="translate(-413.621 -206.448)"/><path d="m591.991 417.237a19.579 19.579 0 0 0 5.408 5.91 37.47 37.47 0 0 1 4.369.292c-.125-.649-.25-1.388-.332-2.227a28.35 28.35 0 0 1 -.145-5.178 1.885 1.885 0 0 1 -.979-1.208c-.417-1.416-4.129-8.157-4.129-8.157s-8.686-2.247-8.988 0 2.632 6.823 4.796 10.568z" opacity=".1" transform="translate(-437.516 -272.501)"/><path d="m590.945 389.839s5.243 9.919 5.65 11.335a1.912 1.912 0 0 0 1.768 1.413s5.223 1.248 6.471 1.416 12.076 1.081 12.076 1.081 2.746.085 3.078-.914c.3-.914 5.61-5.715 8.681-1.525a3.054 3.054 0 0 1 .444 2.726c-.564 1.8-1.723 4.651-2.966 2.876-1.748-2.5-3.78-1.8-3.78-.464s-2.8.836-3.71 1.024c-.5.1-2.217.559-3.7.959a26.97 26.97 0 0 1 -5.285.876c-2.949.192-7.3.352-8.836-.23a23.959 23.959 0 0 0 -6.491-.906 2.134 2.134 0 0 1 -1.266-.454 19.746 19.746 0 0 1 -4.8-5.465c-2.165-3.745-6.616-11.5-6.317-13.747s8.983-.001 8.983-.001z" fill="#efb7b9" transform="translate(-433.591 -259.873)"/><path d="m587.007 334.117a67.2 67.2 0 0 1 4.109 7.989c1.3 3.328 2.881 9.155 2.881 9.155l-7.825-.916-.664-1.081s-5.588 3.5-4.921 4.993a13.086 13.086 0 0 1 -1.331-6.491c.167-4.244-.6-11.819 0-13.649s5.911-1.417 7.751 0z" opacity=".1" transform="translate(-431.4 -217.896)"/><path d="m579.272 345.773a13.089 13.089 0 0 0 1.331 6.491c-.667-1.5 4.921-4.993 4.921-4.993l.657 1.081 7.822.916s-1.58-5.827-2.881-9.155a50.907 50.907 0 0 0 -2.676-5.493c-.8-1.456-1.433-2.5-1.433-2.5a8.815 8.815 0 0 0 -5.183-1.2 6.7 6.7 0 0 0 -.846.1 2.354 2.354 0 0 0 -1.62.881 1.155 1.155 0 0 0 -.1.22c-.601 1.832.168 9.407.008 13.652z" fill="#a36468" transform="translate(-431.406 -216.401)"/><path d="m566 437s3.308 4.556 4.307 4.681c-.007.01-4.252-.936-4.307-4.681z" opacity=".1" transform="translate(-421.629 -296.009)"/><path d="m566 463s6.242 6.3 8.239 6.367-8.239-6.367-8.239-6.367z" opacity=".1" transform="translate(-421.629 -315.518)"/><path d="m566 473.54s3.995 4.681 4.244 4.681-4.316-1.621-4.244-4.681z" opacity=".1" transform="translate(-421.626 -323.426)"/><path d="m580.33 260.2a5.538 5.538 0 0 0 1.833-.614c.215-.112.427-.237.634-.37a15 15 0 0 0 2.277-1.872 9.693 9.693 0 0 0 2.769-3.865 6.957 6.957 0 0 0 .235-1.079c.285-1.92.045-4.04 1.418-5.345a3.266 3.266 0 0 1 .876-.592c1.947-.926 4.771-.327 6.224-2 .924-1.059.9-2.529 1.61-3.68a7.737 7.737 0 0 1 1.383-1.391 8.988 8.988 0 1 0 -12.389 12.489c-.055.127-.115.25-.177.382a23.808 23.808 0 0 1 -5.45 6.561l.379.479a2.445 2.445 0 0 0 -1.622.897z" opacity=".1" transform="translate(-432.381 -144.7)"/><path d="m458.539 221.4c-1.69 1.937-5.243.809-7.1 2.584-1.633 1.555-.984 4.269-1.65 6.424a9.71 9.71 0 0 1 -2.769 3.865c-1.673 1.628-3.812 3.281-6.1 2.814-1.356-.277-2.684-1.291-3.995-.824a4.67 4.67 0 0 0 -1.605 1.3 11.063 11.063 0 0 1 -6.134 3.173 2.624 2.624 0 0 1 -1.391-.065c-.7-.285-1.076-1.049-1.713-1.456-1.248-.8-2.851.02-4.147.734a29.019 29.019 0 0 1 -23.838 1.715l2.02-1c-.429-.876-1.59-1.069-2.329-1.71-1.523-1.321-.627-3.962.984-5.173s3.7-1.633 5.363-2.764a1.391 1.391 0 0 0 .717-.941 1.5 1.5 0 0 0 -.272-.834c-.889-1.565-1.872-3.246-1.673-5.036.3-2.746 3.3-4.434 6.057-4.626s5.48.637 8.239.684a5.4 5.4 0 0 0 2.9-.6c1.2-.719 1.8-2.09 2.524-3.281a13.4 13.4 0 0 1 5.368-4.948c2.5-1.261 5.323-1.7 7.919-2.746 2.651-1.064 5.063-2.746 7.837-3.423 4.027-1 8.341.307 11.819 2.564 1.675 1.086 7.026 4.571 6.991 6.8-.027 1.323-1.748 2.04-2.4 3.078-.721 1.165-.698 2.636-1.622 3.692z" fill="#965d7b" transform="translate(-294.823 -121.879)"/><g opacity=".1" transform="translate(102.18 91.764)"><path d="m422.046 288.371a1.52 1.52 0 0 1 .272.834.843.843 0 0 1 -.087.3 10.528 10.528 0 0 1 -1.62-4.107 15.879 15.879 0 0 0 1.435 2.973z" transform="translate(-414.718 -274.023)"/><path d="m397.547 334.122c.736.642 1.9.834 2.329 1.71l-.714.355a8.033 8.033 0 0 1 -1.366-.816 2.349 2.349 0 0 1 -.779-1.94 2.144 2.144 0 0 0 .529.692z" transform="translate(-397.01 -310.061)"/><path d="m424.989 264.887c1.3-.714 2.9-1.533 4.147-.734.634.407 1.014 1.171 1.713 1.456a2.614 2.614 0 0 0 1.388.065 11.07 11.07 0 0 0 6.137-3.173 4.6 4.6 0 0 1 1.605-1.3c1.3-.467 2.631.547 3.995.824 2.287.467 4.424-1.186 6.1-2.814a9.686 9.686 0 0 0 2.766-3.865c.669-2.155.02-4.868 1.653-6.424 1.865-1.775 5.41-.647 7.1-2.584.921-1.059.9-2.529 1.61-3.68.6-.971 2.152-1.66 2.372-2.831a2.172 2.172 0 0 1 .277 1c-.027 1.323-1.748 2.04-2.4 3.078-.709 1.151-.689 2.622-1.61 3.68-1.693 1.937-5.243.809-7.1 2.584-1.633 1.555-.984 4.269-1.653 6.424a9.7 9.7 0 0 1 -2.766 3.865c-1.675 1.628-3.812 3.281-6.1 2.814-1.358-.277-2.686-1.291-3.995-.824a4.624 4.624 0 0 0 -1.605 1.3 11.071 11.071 0 0 1 -6.137 3.173 2.614 2.614 0 0 1 -1.388-.065c-.7-.285-1.079-1.049-1.713-1.456-1.248-.8-2.851.02-4.147.734a29.019 29.019 0 0 1 -23.838 1.715l1.4-.692a29.074 29.074 0 0 0 22.189-2.27z" transform="translate(-400.304 -239.83)"/></g><path d="m740.374 595.3 2.1-1.016v-.4a11.674 11.674 0 0 0 -2.973.472c.933.167.899.793.873.944z" opacity=".1" transform="translate(-551.811 -413.697)"/><ellipse cx="190.387" cy="152.488" fill="#05a705" rx="5.058" ry="6.154"/><path d="m378.674 405.42-8.132 8.019-26.732-.467 7.35-7.552z" fill="#dda2a6" transform="translate(-236.971 -260.941)"/><path d="m459.012 432.854v-27.434l-8.132 8.019v26.844z" fill="#b77b7f" transform="translate(-317.309 -260.941)"/><path d="m343.81 435.67v27.311h26.732v-26.844z" fill="#dda2a6" transform="translate(-236.971 -283.639)"/><path d="m343.81 435.67v27.311h26.732v-26.844z" fill="#fff" opacity=".3" transform="translate(-236.971 -283.639)"/><path d="m374.643 457.393-19.881-3.413-2.592 13.053 20.468 3.76z" fill="#dce0ed" transform="translate(-243.244 -297.377)"/><path d="m385.279 473.55-13.365-2.1-.335 1.743 13.365 2.267z" fill="#05a705" transform="translate(-257.808 -310.486)"/><path d="m387.877 491.474-7.6-1.1-.335 1.935 7.937 1.114z" fill="#05a705" transform="translate(-264.081 -324.682)"/><path d="m462.912 430.631-.362-10.8-2.09 2.062.365 10.826z" fill="#65617d" transform="translate(-324.497 -271.753)"/><path d="m357.363 416.49 25.688.347.864.487-2.09 2.062-.722-.424-25.444-.722z" fill="#65617d" transform="translate(-245.863 -269.247)"/></svg>