<svg height="272" viewBox="0 0 307 272" width="307" xmlns="http://www.w3.org/2000/svg" xmlns:xlink="http://www.w3.org/1999/xlink"><linearGradient id="a" gradientUnits="objectBoundingBox" x1=".5" x2=".5" y1="1"><stop offset="0" stop-color="#808080" stop-opacity=".251"/><stop offset=".54" stop-color="#808080" stop-opacity=".122"/><stop offset="1" stop-color="#808080" stop-opacity=".102"/></linearGradient><rect fill="#02cb02" height="307" opacity=".05" rx="40" transform="matrix(0 1 -1 0 307 0)" width="272"/><g fill="#6c63ff"><ellipse cx="124.895" cy="143.483" opacity=".1" rx="82.246" ry="3.73"/><path d="m401.647 106.647c-.052.246-.1.491-.16.734a78.983 78.983 0 0 1 -9.172 23.792c-.146.246-.293.491-.442.737a68.367 68.367 0 0 1 -10.34 13.051 31.347 31.347 0 0 1 -7.427 5.7c-3.984 2.082-8.642 2.927-13.22 3.617-4.755.721-9.575 1.323-14.382 1.971q-2.562.34-5.094.721c-4.644.688-9.255 1.483-13.755 2.537a80.646 80.646 0 0 0 -16.05 5.4q-.61.276-1.207.585c-.4.2-.8.4-1.19.6s-.779.409-1.162.618c-.2.108-.4.215-.594.329s-.389.213-.58.323c-.574.32-1.138.649-1.7.98l-.022.014c-.373.218-.74.442-1.1.665-2.082 1.265-4.119 2.584-6.157 3.912l-1.281.828-1.985 1.284c-.387.251-.781.5-1.171.751-.276.182-.552.364-.853.552-1.447.911-2.913 1.806-4.418 2.659-.356.2-.715.409-1.077.607a61.191 61.191 0 0 1 -9.5 4.285l-.044.017a43.349 43.349 0 0 1 -5.047 1.425c-.986.215-1.974.392-2.974.527a31.881 31.881 0 0 1 -8.062.113c-5.265-.61-10.2-2.631-15.462-3.313-10.834-1.381-21.357 3.067-31.545 6.552q-3.758 1.284-7.571 2.4c-1.69.5-3.385.972-5.094 1.427a191.681 191.681 0 0 1 -31.945 5.6 89.97 89.97 0 0 1 -13.57.3 49.831 49.831 0 0 1 -5.091-.552c-5.715-.884-11.044-2.736-15.346-6.13a29.968 29.968 0 0 1 -7.963-10.216 44.58 44.58 0 0 1 -4.117-12.3c-.1-.583-.2-1.168-.276-1.753q-.207-1.5-.309-3.021a43.235 43.235 0 0 1 1.9-15.973c1.822-5.776 4.859-11.32 6.2-17.141q.083-.37.157-.737a25.519 25.519 0 0 0 .406-2.675c.682-7.151-1.933-14.123-3.984-21.116-.072-.243-.144-.489-.213-.734q-.331-1.165-.635-2.328a48.529 48.529 0 0 1 -.734-22.69c.052-.246.116-.491.177-.734a33.221 33.221 0 0 1 6.234-12.769 49.523 49.523 0 0 1 11.776-10.194q3.25-2.126 6.72-3.973 2.485-1.325 5.091-2.51a100.268 100.268 0 0 1 45.532-8.766c.828.036 1.657.08 2.485.141s1.734.133 2.6.213c10.122.983 19.971 3.355 29.75 5.947 3.277.87 6.549 1.762 9.818 2.637 1.455.387 2.907.773 4.362 1.149 7.126 1.842 14.357 3.509 21.68 4.755q2.543.439 5.091.8a145.842 145.842 0 0 0 17.806 1.51q3.476.069 6.955-.061 1.756-.063 3.515-.191c12.107-.853 23.808-3.708 35.529-6.375q2.543-.58 5.094-1.143c2.231-.491 4.462-.966 6.7-1.405 13.952-2.742 26.387-1.165 39.359 4.492 2.949 1.284 5.895 2.836 7.7 5.246s2.259 5.37 2.6 8.228c.478 4.07.79 8.192.908 12.336 0 .243 0 .489.017.734a110.738 110.738 0 0 1 -2.141 24.999z" opacity=".1" transform="translate(-112.936 -25.033)"/><path d="m317.477 131.483h-.911v.737h1.034zm-10.335 0a.047.047 0 0 0 0 .019c-.025.2-.052.4-.08.607v.11h7.9v-.044l.552-.693zm-21.163 0v-23.792h9.084c-.1-.063-.2-.13-.3-.191l-.133-.086-.171-.1c-.1-.058-.2-.116-.3-.171s-.168-.094-.257-.141l-.061-.033h-7.861v-1.311l-.213.083-.224.1h-.017l-.047.025-.141.075-.141.075c-.138.075-.276.157-.414.243l-.133.088-.276.177c-.356.237-.707.486-1.069.718-.091.058-.182.116-.276.168-.2.116-.4.226-.6.326a2.3 2.3 0 0 1 -.276.119l-.149.058-.138.047a6.469 6.469 0 0 1 -.994.26v23.259h-13.62c0 .028.019.05.028.077.075.221.149.439.221.66h13.391v25.5h.207l.24.014.433.025.693.083.318.03.345.036h.052l.61.075.13.017.3.041.422.061 1.013-.044.138.025a.959.959 0 0 1 .171.028v-25.887h21.078v-.11c.028-.2.055-.406.08-.607a.047.047 0 0 1 0-.019zm31.5 0h-.911v.737h1.032zm-10.9 0c-.033.246-.064.491-.1.737h8.8l.6-.737zm-20.595 0v-23.792h9.084c-.1-.063-.2-.13-.3-.191l-.133-.086-.171-.1c-.1-.058-.2-.116-.3-.171s-.168-.094-.257-.141l-.061-.033h-7.866v-1.311l-.213.083-.224.1h-.017l-.047.025-.141.075-.141.075c-.138.075-.276.157-.414.243l-.133.088-.276.177c-.356.237-.707.486-1.069.718-.091.058-.182.116-.276.168-.2.116-.4.226-.6.326a2.307 2.307 0 0 1 -.276.119l-.149.058-.138.047a6.469 6.469 0 0 1 -.994.26v23.259h-13.62c0 .028.019.05.028.077.075.218.152.439.224.66h13.388v25.5h.207l.24.014.433.025.693.086.318.03.345.036h.052l.61.075.13.017.3.041.422.061 1.013-.044.138.025a.959.959 0 0 1 .171.028v-25.89h20.526c.033-.246.063-.491.1-.737zm68.9-49.544h57.283c0-.246 0-.491-.017-.734h-57.272v-28.886q-2.551.552-5.094 1.143v27.738h-62.3l-.157-.141.237-.21 23.174-20.819q-3.479.133-6.955.061l-17.806 16v-17.5q-2.551-.362-5.091-.8v17.5l-26.034-23.4c-3.269-.875-6.541-1.767-9.818-2.637l35.4 31.818-.157.141h-64.991v-37.89q-1.3-.121-2.6-.213c-.828-.061-1.657-.1-2.485-.141v38.231h-45.541v-29.464q-2.579 1.182-5.091 2.51v26.954h-24.742c-.061.243-.124.489-.177.734h24.918v25.018h-23.549c.069.246.141.491.213.734h23.336v23.792h-19.758q-.075.367-.157.737h19.915v66.522c1.657.257 3.371.436 5.091.552v-67.069h45.532v61.165c1.709-.456 3.4-.928 5.094-1.427v-59.738h65.6v53.44a43.349 43.349 0 0 0 5.047-1.425l.044-.017v-52h63.8v25.065q2.54-.373 5.094-.715v-24.348h45.369c.149-.246.3-.491.442-.737h-45.803v-23.792h54.983c.058-.243.108-.489.16-.734h-55.143zm-190.219 0h45.532v25.018h-45.537zm0 49.544v-23.792h45.532v23.792zm50.626-49.544h65.6v25.018h-65.6zm0 49.544v-23.792h65.6v23.792zm134.5 0h-63.8v-23.792h63.8zm0-24.526h-63.8v-24.347l.895-.671h62.91zm-42.641 24.526a.047.047 0 0 0 0 .019c-.025.2-.052.4-.08.607v.11h7.9v-.044l.552-.693zm10.335 0h-.911v.737h1.026zm-31.5 0v-23.792h9.084c-.1-.063-.2-.13-.3-.191l-.133-.086-.171-.1c-.1-.058-.2-.116-.3-.171s-.168-.094-.257-.141l-.061-.033h-7.867v-1.311l-.213.083-.224.1h-.017l-.047.025-.141.075-.141.075c-.138.075-.276.157-.414.243l-.133.088-.276.177c-.356.237-.707.486-1.069.718-.091.058-.182.116-.276.168-.2.116-.4.226-.6.326a2.3 2.3 0 0 1 -.276.119l-.149.058-.138.047a6.469 6.469 0 0 1 -.994.26v23.259h-13.62c0 .028.019.05.028.077.075.221.149.439.221.66h13.391v25.5h.207l.24.014.433.025.693.083.318.03.345.036h.052l.61.075.13.017.3.041.422.061 1.013-.044.138.025a.959.959 0 0 1 .171.028v-25.887h21.078v-.11c.028-.2.055-.406.08-.607a.047.047 0 0 1 0-.019z" opacity=".1" transform="translate(-121.312 -25.343)"/><path d="m318.214 117.625h.395a.8.8 0 0 1 -.483-.643c0-.508.759-.922 1.687-.922h11.806c.928 0 1.684.414 1.684.922 0 .505-.757.922-1.684.922h-.395a.792.792 0 0 1 .483.641c0 .433-.552.8-1.289.895h3.4c.925 0 1.684.414 1.684.922s-.759.922-1.684.922h-11.81c-.925 0-1.684-.417-1.684-.922 0-.433.552-.8 1.289-.895h-3.4c-.928 0-1.684-.414-1.684-.922s.757-.92 1.685-.92z" opacity=".1" transform="translate(-252.974 -78.252)"/><path d="m781.654 149.4h.395a.8.8 0 0 1 -.48-.643c0-.508.756-.922 1.684-.922h11.806c.928 0 1.687.414 1.687.922 0 .505-.759.919-1.687.919h-.392a.8.8 0 0 1 .48.643c0 .434-.552.8-1.289.895h3.4c.928 0 1.684.414 1.684.922s-.756.922-1.684.922h-11.807c-.928 0-1.687-.417-1.687-.922 0-.433.552-.8 1.289-.895h-3.4c-.925 0-1.684-.414-1.684-.922s.76-.919 1.685-.919z" opacity=".1" transform="translate(-588.457 -101.251)"/><path d="m252.577 285.356h.392a.8.8 0 0 1 -.48-.643c0-.505.759-.922 1.684-.922h11.809c.925 0 1.684.417 1.684.922 0 .508-.759.922-1.684.922h-.395a.79.79 0 0 1 .48.641c0 .433-.552.8-1.289.895h3.4c.928 0 1.687.417 1.687.922s-.759.922-1.687.922h-11.8c-.928 0-1.684-.414-1.684-.922 0-.431.552-.8 1.289-.895h-3.41c-.928 0-1.687-.414-1.687-.922s.774-.92 1.691-.92z" opacity=".1" transform="translate(-205.457 -199.672)"/><ellipse cx="17.936" cy="59.023" opacity=".1" rx="17.936" ry="59.023" transform="matrix(.200223 -.97975035 .97975035 .200223 150.178 178.011)"/></g><path d="m828.56 383.687s3.139-15.409 15.125-13.982c0 0 8.283.569 9.987 5.991v11.986z" fill="#3a3768" transform="translate(-623.631 -261.798)"/><path d="m696.431 382.359-106.731-8.849-13.7 2.855.856 19.12.933.113 1.063 28.712 104.734 18.833 11.132-9.418v-31.125l1.425-.837z" fill="#d48a9b" transform="translate(-425.863 -254.76)"/><path d="m981.268 405.56-.287 19.4-11.558 5.423-.144-20.263z" opacity=".05" transform="translate(-710.557 -277.961)"/><path d="m977.169 478.94.141 30.537-11.13 9.418.715-35.388z" opacity=".05" transform="translate(-708.313 -331.08)"/><path d="m582.79 455.1 106.6 13.007.055-2.468-106.735-11.509z" opacity=".05" transform="translate(-430.721 -313.12)"/><path d="m978.291 480.061v-1.121l-10.561 4.66v2.474z" opacity=".05" transform="translate(-709.435 -331.08)"/><path d="m575.48 376.365 13.7-2.855 106.733 8.849-11.986 4.564z" fill="#efc6cd" transform="translate(-425.487 -254.76)"/><path d="m949.863 407.55 5.238.342-8.681 2.6-4.42-.318z" opacity=".1" transform="translate(-690.81 -279.401)"/><path d="m949.863 406.72 5.238.342-8.681 2.6-4.42-.32z" fill="#fff" transform="translate(-690.81 -278.801)"/><path d="m1022.32 444.494c.207-.088.425.08.646.121.127.025.257 0 .384.025.257.033.511.2.756.119" fill="#d3dae1" transform="translate(-763.893 -315.986)"/><path d="m1021.34 445.063c.2-.088.425.077.646.122.127.022.257 0 .384.022.257.036.511.207.757.122" fill="#d3dae1" transform="translate(-763.184 -316.398)"/><path d="m1019.08 446.2c.207-.088.428.077.649.119.124.025.257 0 .381.025.26.036.514.207.757.119" fill="#d3dae1" transform="translate(-761.547 -317.223)"/><path d="m867.863 398.21 5.238.345-8.681 2.6-4.42-.32z" opacity=".1" transform="translate(-631.45 -272.64)"/><path d="m867.863 397.39 5.238.342-8.681 2.6-4.42-.317z" fill="#fff" transform="translate(-631.45 -272.047)"/><path d="m940.32 435.163c.207-.088.425.077.646.121.127.022.257 0 .384.022.257.036.511.207.757.121" fill="#d3dae1" transform="translate(-704.533 -309.232)"/><path d="m939.34 435.733c.2-.088.425.077.646.119.127.025.257 0 .384.025.257.036.511.207.757.119" fill="#d3dae1" transform="translate(-703.824 -309.644)"/><path d="m937.08 436.864c.207-.088.428.08.649.121.124.025.257 0 .381.025.26.033.514.207.757.119" fill="#d3dae1" transform="translate(-702.188 -310.463)"/><path d="m907.193 402.88 5.24.342-8.681 2.6-4.423-.32z" opacity=".1" transform="translate(-659.921 -276.021)"/><path d="m907.193 402.06 5.24.342-8.681 2.6-4.423-.32z" fill="#fff" transform="translate(-659.921 -275.427)"/><path d="m979.65 439.833c.207-.088.428.077.649.119.124.025.254 0 .381.025.257.033.513.207.756.119" fill="#d3dae1" transform="translate(-733.004 -312.612)"/><path d="m978.67 440.394c.207-.088.428.08.649.121.124.025.254 0 .381.025.257.033.514.207.757.119" fill="#d3dae1" transform="translate(-732.295 -313.018)"/><path d="m976.42 441.533c.2-.088.425.077.646.121.127.022.257 0 .384.022.257.036.511.207.757.121" fill="#d3dae1" transform="translate(-730.666 -313.843)"/><ellipse cx="128.688" cy="222.617" fill="#6c63ff" opacity=".1" rx="55.905" ry="11.508"/><path d="m494.381 286.273a37.455 37.455 0 0 0 -2.957-10.241l.179-1.767s.039-.884-.019-2.209a10.048 10.048 0 0 1 .323-2.452 5.049 5.049 0 0 0 -.726-3.589c-.121-.174.061-3.534-1.027-5.182s-8.333-4.713-8.333-4.713-.389-.815-.939-1.767l.05-.1a10.383 10.383 0 0 0 -1.657-2.234c-.445-.475-.872-.745-1.218-.613a9.952 9.952 0 0 1 -.32-1.4c.072.019.146.039.218.052a2.253 2.253 0 0 0 .911.022 2.708 2.708 0 0 0 1.5-1.325 21.126 21.126 0 0 0 3.813-9.33 5.931 5.931 0 0 0 -.1-2.06 6.95 6.95 0 0 0 -.646-1.5 12.093 12.093 0 0 0 -1.822-2.686 10.381 10.381 0 0 0 -4.9-2.681 16.947 16.947 0 0 0 -6.323-.472c-.552.063-1.1.155-1.657.19a17.209 17.209 0 0 1 -2.1-.036l-3.614-.21-.017-.055-.6-.036a1.524 1.524 0 0 0 .3 1.474 2.515 2.515 0 0 1 .61 1.425 2.912 2.912 0 0 1 -.7 1.381 1.328 1.328 0 0 0 -.224 1.444.828.828 0 0 0 .146.16 1.82 1.82 0 0 0 1.328.353h.083a8.993 8.993 0 0 0 -1.831 5.445 9.156 9.156 0 0 0 4.995 8.112c.052.179.1.364.155.552a16.914 16.914 0 0 1 .58 5.969l-.064.138-.039-.146s-4.258 2.888-5.522 3.653a7.979 7.979 0 0 0 -2.6 4.064c-.061.707-2.054 11.367-2.054 11.367a26.12 26.12 0 0 0 -1 3.291l-2.543 2.234s-5.246.472-6.765.119l.044.293a22.945 22.945 0 0 0 -4.075-.552 4.322 4.322 0 0 0 -2.209.3l-.052.025-.041.019a8.753 8.753 0 0 0 -2.319.652c-.088.036-.168.072-.246.108l.017-.362-5.674-.297-2.9-.588s-1.027-.828-1.632-.707-1.872-.707-1.872-.707a5.063 5.063 0 0 0 -.933-.58c-.1-.668-.157-1.074-.157-1.074s-2.256-8.951-3.946-14.214a12.114 12.114 0 0 0 -3.722-6c-.428-.745-.71-1.226-.71-1.226a5.484 5.484 0 0 0 -1.461-2.137c-.041-.066-.072-.1-.088-.1a.323.323 0 0 0 -.163.025 17.563 17.563 0 0 1 -.025-7.908 8.728 8.728 0 0 0 3.186-6.726q0-.058 0-.116v-.119a8.689 8.689 0 0 0 -2.052-5.6l-.094-.1a.735.735 0 0 0 .072-.058 1.48 1.48 0 0 0 .522-1.425 9.763 9.763 0 0 0 -.751-1.45 9.389 9.389 0 0 1 -.307-1.182 3.644 3.644 0 0 0 -.87-1.516l.041.11a5.247 5.247 0 0 0 -4.619-1.552c-1.245.2-2.4.779-3.656.958-.9.127-1.811.044-2.714.135a7.043 7.043 0 0 0 -2.408.7 1.38 1.38 0 0 0 -.511.375 2.022 2.022 0 0 0 -.254.71c-.306 1.118-1.278 1.916-1.982 2.849a6.668 6.668 0 0 0 -1.336 3.683 2.884 2.884 0 0 0 .1 1.008c.061.2.155.381.2.58a3.979 3.979 0 0 1 -.334 1.814 3.531 3.531 0 0 0 .2 2.3c1.091 2.441 4.672 3.255 5.417 5.818a7.128 7.128 0 0 0 1.792.552c.05.254.094.511.13.77a.208.208 0 0 0 -.047.028 5.491 5.491 0 0 0 -1.207 2.761l-.116.094c-.395.326-1.745 1.419-2.965 2.261-1.45 1-3.865 4.36-5.555 5.362s-3.081 7.179-2.717 9.423 1.872 8.54 1.267 10.837.906 12.781.906 12.781a15.44 15.44 0 0 1 2.96.878l-.03.458-.091 1.381s-2.736 9.9-1.69 17.513-.483 8.4-.483 8.4.32 3.377-.483 4.556a9.8 9.8 0 0 0 -.966 3.769s-.08 5.812.08 7.455.24 4.636-.323 5.343-1.61 5.337-1.53 6.751-2.013 4.636-.886 8.8-3.313 4.241-3.313 4.241.566 6.35 1.773 8.167l.177.26c-.03.1-.061.215-.094.334-.456 1.657-1.08 4.271-.646 4.9.643.944.966.784.966.784l.24 4.241s4.832 4.084 8.537 3.929 2.979-3.929 2.979-3.929l-3.156-8.184-.108-.276 3.507-6.627s.966-2.9 1.207-3.926 1.552-4.641 1.552-4.641 3.313-7.852 3.382-8.8.323-6.044.966-7.068a65.406 65.406 0 0 0 2.416-6.9l.044.039a2.328 2.328 0 0 1 .6 2.316 18.508 18.508 0 0 0 -.163 4.553 30.976 30.976 0 0 1 -.483 3.929c-.323 1.336-.4 12.251.163 14.841a42.016 42.016 0 0 1 .414 7.424c-.378 1.56-.71 3.5-.094 3.727 1.049.395 6.364.315 6.364.315s2.253-.787 5.315 1.963 12.48-.784 12.48-.784 2.9-.787-2.819-3.062c-3.99-1.588-6.566-2.645-8.25-3.777.039-.075.08-.149.116-.229 0 0-2.336-2.209-.4-6.124a17.053 17.053 0 0 0 1.853-7.226l.323-13.195-.966-17.516-.748-18.383.133-.044c.127 3.379.787 11.425 4.241 9.865 4.349-1.963.643-7.068.643-7.068l-1.952-3.8.583-.2-2.184-7.057a15.92 15.92 0 0 1 -.083-4.161 16.475 16.475 0 0 0 -.05-2.43 43.564 43.564 0 0 1 6.091-.908c.58.141 3.824.168 5.1.174-.417.326-.751.649-.751.649l5.194 3.5s1.762-.964 2.129-1.985a2.291 2.291 0 0 0 .972-.519c.055 1.207.376 2.513 1.491 2.543a1.932 1.932 0 0 0 .812-.16l8.493-1.682-.729 4.553.508.9c-.257 3.841-.552 7.919-.812 11.505l-.119.784.061.014c-.4 5.522-.726 9.705-.726 9.705a5.088 5.088 0 0 1 2.118-2.129l.055 8.195s.425 12.958.425 14.725.058 5.713.058 5.713.908 4.829 1.45 6.419.966 8.835.966 8.835 1.27 2 .726 2.761 2.115 2.413 2.115 2.413-1.692 2.3-1.814 3.829c-.014.177.16.365.475.552-.1.08-.2.16-.315.237a5.516 5.516 0 0 1 -3.661.74c-4.713-.414-8.035 3.945-5.135 4.829s11.6 1.06 11.6 1.06 2.634-1.643 4.694-.9c-.03 1.728.055 3.313.069 3.523l-.025.019a19.151 19.151 0 0 1 -5.892 3.78c-3.313 1.118-4.048 5.655.24 6.243s10.569-.707 10.569-.707 3.261-2.413 5.737-2.943 4.592-1.709 4.169-3.123c-.276-.9-.986-3.269-1.466-4.859q-.041-.144-.083-.276c.075-.166.149-.337.218-.514 0 0-1.267-6.6-.24-8.244s.483-18.143.483-18.143-1.753-4.18-.845-6.712-1.449-6.127-1.449-6.127a111.919 111.919 0 0 1 .947-11.218l.091-.5a22.62 22.62 0 0 0 3.368-1.3s.6-9.073.966-11.133c.036-.193.086-.505.146-.911l.276-1.455.326-1.657 1.1-5.646 1.993-2.579 5.135-5.246s1.23-2.782.625-8.025zm-79.2-32.4-.039.028a.47.47 0 0 1 -.014-.061.25.25 0 0 0 .056.037zm50.74 6.43-.2.433.726-.723-.986 1.1.331-.7zm-4.9 10.133c-.191.505-.395 1.052-.607 1.621l.389-1.162z" fill="url(#a)" transform="translate(-304.472 -157.895)"/><path d="m595.656 442.027s-.676 4.5 1.353 4.561 3.385-3.473 3.385-3.473l-.828-2.825z" fill="#585b8a" transform="translate(-454.954 -312.961)"/><path d="m595.656 442.027s-.676 4.5 1.353 4.561 3.385-3.473 3.385-3.473l-.828-2.825z" opacity=".2" transform="translate(-454.954 -312.961)"/><path d="m406.034 759.7c-3.611.157-8.322-3.923-8.322-3.923l-.235-4.238s-.312.157-.941-.784c-.422-.632.185-3.252.63-4.9.215-.806.392-1.38.392-1.38l7.924 2.12.378 1 3.076 8.178s.706 3.767-2.902 3.927z" fill="#636992" transform="translate(-310.787 -533.156)"/><path d="m500.616 732.514s-9.18 3.531-12.149.784-5.18-1.963-5.18-1.963-5.18.08-6.2-.315c-.6-.229-.276-2.192.1-3.755.254-1.08.53-1.971.53-1.971s9.023-3.062 10.437-1.179a6.767 6.767 0 0 0 1.5 1.436c1.635 1.182 4.188 2.253 8.228 3.9 5.558 2.276 2.734 3.063 2.734 3.063z" fill="#636992" transform="translate(-368.959 -517.978)"/><path d="m527.375 496.35 2.51 5.022s3.611 5.1-.627 7.063-4.158-11.3-4.158-11.3z" fill="#ffd6d6" transform="translate(-403.957 -353.543)"/><path d="m495.25 338.61s2.747 1.256 4.4 6.513 3.846 14.206 3.846 14.206 1.491 10.122 1.254 12.634a16.29 16.29 0 0 0 .08 4.158l2.118 7.063-4.238 1.491-6.513-24.954z" fill="#dce6f2" transform="translate(-382.349 -239.356)"/><path d="m495.25 338.61s2.747 1.256 4.4 6.513 3.846 14.206 3.846 14.206 1.491 10.122 1.254 12.634a16.29 16.29 0 0 0 .08 4.158l2.118 7.063-4.238 1.491-6.513-24.954z" opacity=".05" transform="translate(-382.349 -239.356)"/><path d="m407.484 746.608.378 1-.464.886c-1.806.784-6.279.157-6.279.157s-.828-1.052-1.96-2.783c.215-.806.392-1.38.392-1.38z" opacity=".1" transform="translate(-312.79 -533.171)"/><path d="m491.014 725.921c-2.289 5.185-10.07 3.261-12.231 2.612-.356-.108-.552-.179-.552-.179s.014-.422.019-1.088c.254-1.079.53-1.971.53-1.971s9.023-3.062 10.437-1.179a6.771 6.771 0 0 0 1.5 1.436 2.663 2.663 0 0 0 .297.369z" opacity=".1" transform="translate(-370.028 -517.978)"/><path d="m428.646 529.172c-1.883 3.921.395 6.121.395 6.121-2.289 5.182-10.07 3.261-12.231 2.609-.356-.1-.552-.177-.552-.177a47.806 47.806 0 0 0 -.392-8.007c-.549-2.59-.472-13.5-.157-14.83a31.574 31.574 0 0 0 .469-3.926 19.129 19.129 0 0 1 .157-4.55 2.35 2.35 0 0 0 -.585-2.314l-.041-.041a65.335 65.335 0 0 1 -2.355 6.9c-.63 1.016-.861 6.121-.941 7.063s-3.3 8.791-3.3 8.791-1.254 3.609-1.488 4.628-1.179 3.926-1.179 3.926l-3.783 7.3c-1.806.784-6.279.157-6.279.157s-.861-1.1-2.04-2.9-1.726-8.159-1.726-8.159 4.315-.08 3.217-4.238.942-7.378.864-8.791.941-6.041 1.491-6.748.469-3.689.312-5.337-.077-7.455-.077-7.455a9.968 9.968 0 0 1 .941-3.766c.784-1.176.472-4.553.472-4.553s1.488-.784.469-8.4 1.657-17.5 1.657-17.5l.091-1.381.144-2.236s22.444-1.414 24.25.312a5.952 5.952 0 0 1 1.146 1.643 16.347 16.347 0 0 1 1.3 4.177l.942 23.778.941 17.5-.315 13.184a17.527 17.527 0 0 1 -1.817 7.22z" fill="#565988" transform="translate(-308.055 -327.82)"/><path d="m481.879 538.42-2.355 51.007-2.827 4.65c-.356-.1-.552-.177-.552-.177a47.8 47.8 0 0 0 -.392-8.007c-.549-2.59-.472-13.5-.157-14.829a31.584 31.584 0 0 0 .469-3.926 19.133 19.133 0 0 1 .157-4.55 2.349 2.349 0 0 0 -.585-2.314l.039-.276z" opacity=".1" transform="translate(-367.942 -383.997)"/><path d="m406.735 732.066s6.121-2.432 7.063-1.657-7.217 1.96-7.217 1.96z" opacity=".1" transform="translate(-318.161 -522.867)"/><path d="m501.665 713.5c-.235.08-6.2 2.209-5.649 4.473s5.649-4.473 5.649-4.473z" opacity=".1" transform="translate(-382.878 -510.737)"/><path d="m449.07 285.419s2 4.826.941 7.3 11.417 6.709 11.417 6.709-3.647-9.418-.116-14.716-12.242.707-12.242.707z" fill="#ffd6d6" transform="translate(-348.919 -198.758)"/><path d="m664.336 774.018c-2.413.53-5.591 2.943-5.591 2.943s-6.121 1.295-10.3.707-3.471-5.122-.235-6.24a18.789 18.789 0 0 0 5.746-3.774c.53-.489.845-.828.845-.828l11.715-2.355s.19.654.456 1.557c.469 1.593 1.162 3.957 1.427 4.857.41 1.426-1.65 2.603-4.063 3.133z" fill="#505484" transform="translate(-491.145 -547.634)"/><path d="m638.858 742.9s-4.945.53-7-.646-5 .707-5 .707-8.476-.177-11.3-1.06.411-5.246 5-4.826a5.274 5.274 0 0 0 3.57-.74 3.76 3.76 0 0 0 1.554-2.33l9.94.588 1.378 3.518z" fill="#505484" transform="translate(-468.668 -525.577)"/><path d="m662.4 739.718s-11.552-1.888-13.027-3.388a3.76 3.76 0 0 0 1.554-2.33l9.94.588 1.381 3.523z" opacity=".1" transform="translate(-493.916 -525.577)"/><path d="m634.52 513.325.119 17.243s.411 12.949.411 14.716.058 5.707.058 5.707.884 4.826 1.414 6.417.942 8.835.942 8.835 1.237 2 .707 2.761 2.06 2.413 2.06 2.413-1.657 2.3-1.764 3.827 13.181 3.7 13.181 3.7l-5.178-53.084-4.122-13.3z" fill="#575988" transform="translate(-483.166 -365.277)"/><path d="m634.52 513.325.119 17.243s.411 12.949.411 14.716.058 5.707.058 5.707.884 4.826 1.414 6.417.942 8.835.942 8.835 1.237 2 .707 2.761 2.06 2.413 2.06 2.413-1.657 2.3-1.764 3.827 13.181 3.7 13.181 3.7l-5.178-53.084-4.122-13.3z" opacity=".1" transform="translate(-483.166 -365.277)"/><path d="m689.026 766.041c-3.846 9.169-12.993 2.093-12.993 2.093s0-.177-.022-.48c.53-.489.845-.828.845-.828l11.715-2.355s.189.667.455 1.57z" opacity=".1" transform="translate(-513.2 -547.634)"/><path d="m665.436 577.824c-3.769 9.664-13.126 2.413-13.126 2.413s-.3-5 .3-7.3-.649-9.183-.649-9.183-.707-6.121-1.353-7.532a13.421 13.421 0 0 1 -.588-4.473 8.54 8.54 0 0 0 -.3-3.415 22.992 22.992 0 0 1 -.828-4.473 47.194 47.194 0 0 0 -.53-7.121l-1.825-9.111-3.3-18.659 1.03-.177 18.452-3.236s3.473 17.671 2.294 19.482a7.6 7.6 0 0 0 -.663 2.388c-.674 4.009-.925 11.207-.925 11.207s2.294 3.589 1.414 6.121.828 6.709.828 6.709.53 16.481-.472 18.129.241 8.231.241 8.231z" fill="#575988" transform="translate(-489.478 -360.21)"/><path d="m681.194 300.136s-16.715 11.77-12.949 5.884c2.029-3.17 1.657-7.206.861-10.255a24.2 24.2 0 0 0 -1.657-4.5s14.2-6.041 12.32-.627a10.145 10.145 0 0 0 -.552 3.932 10.492 10.492 0 0 0 1.977 5.566z" fill="#d28690" transform="translate(-507.004 -202.999)"/><path d="m585.558 426.162s-7.063-2.04-8.239-.039.353 6.395 2.485 7.1 7.024-2.394 7.024-2.394z" fill="#d28690" transform="translate(-441.463 -302.069)"/><path d="m610.965 416-2.943 2.709s-5.122.469-6.593.116c0 0 1.356 9.064-.588 10.183l11.889-2.413z" fill="#585b8a" transform="translate(-458.785 -295.378)"/><path d="m610.965 416-2.943 2.709s-5.122.469-6.593.116c0 0 1.356 9.064-.588 10.183l11.889-2.413z" opacity=".1" transform="translate(-458.785 -295.378)"/><path d="m454.3 251.01a8.835 8.835 0 0 1 -8.835 8.835c-4.534-2.178-8.835-3.951-8.835-8.835a8.835 8.835 0 1 1 17.657 0z" opacity=".1" transform="translate(-339.91 -169.294)"/><path d="m454.4 251.122a8.819 8.819 0 1 1 -2-5.586 8.819 8.819 0 0 1 2 5.586z" fill="#ffd6d6" transform="translate(-340.012 -169.643)"/><path d="m452.354 463.346a19.969 19.969 0 0 1 -2.736 1.419s-4.473-.649-5.119.116-6.35 1.06-6.35 1.06-8.711-.411-10.006-1.53a5.3 5.3 0 0 0 -1.323-.784l.144-2.236s22.444-1.414 24.25.312a5.952 5.952 0 0 1 1.14 1.643z" opacity=".1" transform="translate(-332.813 -327.842)"/><path d="m440.252 351.281c-.177 1-3.827 2.529-3.827 2.529s-4.473-.646-5.119.119-6.35 1.06-6.35 1.06-8.711-.414-10.006-1.532a11.233 11.233 0 0 0 -4.18-1.657s-1.472-10.475-.881-12.77-.884-8.6-1.237-10.832 1-8.416 2.648-9.415 4-4.357 5.414-5.356c1.19-.842 2.5-1.933 2.888-2.261l.113-.094a5.572 5.572 0 0 1 1.179-2.761c.942-.936 9.592 5.944 9.592 5.944s.061.53.649-.469c.133-.224 1.273 1.422 1.472 2.118 0 0 4.708 8.242 5 9.94s1.53 7.239 1.764 8.592c.061.348.16 1.568.276 3.2.022.32.041.66.066 1.013.174 2.711.362 6.174.475 8.791 0 .3.025.585.033.861a29.315 29.315 0 0 1 .031 2.98z" fill="#dce6f2" transform="translate(-319.62 -217.359)"/><path d="m415 387.21s3.236 3.943 4.3 3.943-4.3-3.943-4.3-3.943z" opacity=".1" transform="translate(-324.256 -274.537)"/><path d="m427.481 417.91s-5.3 5.768-4.592 6.828 4.592-6.828 4.592-6.828z" opacity=".1" transform="translate(-329.921 -296.761)"/><path d="m425.62 436.026s6.074-6.651 6.35-8.946z" opacity=".1" transform="translate(-331.944 -303.399)"/><path d="m453.33 442.27s7-3.708 7.593-6.651-7.593 6.651-7.593 6.651z" opacity=".1" transform="translate(-352.003 -309.174)"/><path d="m482.972 329.568-.972 2.352 1.618.765 1.59 4.445s4.385 8.769 4.208 13.33a80.8 80.8 0 0 0 .8 11.417l2.529-.469-1.193-13.416a19.353 19.353 0 0 0 -1.541-6.022c-2.021-4.628-5.782-13.17-6.019-13.17-.323 0-.1.119-.1.119z" opacity=".1" transform="translate(-372.757 -232.254)"/><path d="m483.822 328.715-.972 2.355 1.621.765 1.588 4.445s4.385 8.769 4.208 13.33a80.806 80.806 0 0 0 .8 11.417l2.532-.469-1.2-13.416a19.275 19.275 0 0 0 -1.538-6.022c-2.021-4.63-5.782-13.17-6.016-13.17-.326 0-.1.119-.1.119z" fill="#575989" transform="translate(-373.372 -231.639)"/><path d="m574.826 434.516c-1.231-.094-4.186-1.588-5.359-2.209l-.5-.276.061-4.558a8.005 8.005 0 0 1 .9-.456c1.568-.685 4.785-1.615 6.4 1.38 2.172 4.018.058 6.224-1.502 6.119z" fill="#ffd6d6" transform="translate(-435.714 -302.85)"/><path d="m452.281 245.458a1.3 1.3 0 0 1 -.411.168c-1.024.224-2.189-.657-3.067-.091a2.223 2.223 0 0 0 -.732 1.7q-.188 1.657-.375 3.291a4.062 4.062 0 0 1 -.243 1.135 2.847 2.847 0 0 1 -2.709 1.441 1.615 1.615 0 0 1 -1.168-.387c-.191-.193-.293-.464-.5-.641-1.381-1.157-1.8 1.679-1.436 2.485.585 1.317 2.664 2.587 1.792 4.26a1.6 1.6 0 0 1 -.641.643 8.835 8.835 0 1 1 9.492-14.01z" opacity=".1" transform="translate(-339.887 -169.565)"/><path d="m435.387 241.6c.207.174.312.445.5.638a1.618 1.618 0 0 0 1.168.387 2.833 2.833 0 0 0 2.706-1.444 3.931 3.931 0 0 0 .246-1.132l.375-3.291a2.213 2.213 0 0 1 .732-1.7c.878-.552 2.043.315 3.068.091a1.5 1.5 0 0 0 1.1-1.728 9.729 9.729 0 0 0 -.729-1.447 9.454 9.454 0 0 1 -.3-1.179c-.572-2.143-3.087-3.346-5.274-2.987-1.215.2-2.344.781-3.562.958-.872.127-1.764.044-2.645.138a6.676 6.676 0 0 0 -2.347.693 1.364 1.364 0 0 0 -.5.376 2.071 2.071 0 0 0 -.249.707 9.438 9.438 0 0 1 -1.933 2.849 6.789 6.789 0 0 0 -1.309 3.675 2.945 2.945 0 0 0 .094 1.008c.058.193.149.381.193.58a4.038 4.038 0 0 1 -.326 1.811 3.622 3.622 0 0 0 .193 2.3c1.06 2.438 4.553 3.253 5.279 5.812a5.8 5.8 0 0 0 2.054.552 1.982 1.982 0 0 0 1.811-.925c.87-1.657-1.207-2.943-1.792-4.258-.356-.809.06-3.641 1.447-2.484z" fill="#353045" transform="translate(-332.437 -159.099)"/><path d="m679.813 290.64a10.142 10.142 0 0 0 -.552 3.932c-.425.362-.889-.721-1.381-.442-1.347.779-2.9 2.631-4.572 2.631a9.158 9.158 0 0 1 -4.161-1 24.2 24.2 0 0 0 -1.657-4.5s14.21-6.035 12.323-.621z" opacity=".1" transform="translate(-507.033 -202.999)"/><path d="m673.626 259.683a9.183 9.183 0 1 1 -9.183-9.183 9.183 9.183 0 0 1 9.183 9.183z" fill="#d28690" transform="translate(-498.18 -175.573)"/><path d="m660.892 324.75s-1.728 1.883-1.963 2.038-5.246 21.26-5.334 21.506-5.967 19.3-5.967 19.3l-9.418 4.63.79-23.307 6.9-19.222s2.278-2.59 2.982-3.531 9.5-6.593 9.5-6.593l1.5 3.1z" fill="#f0f3f7" transform="translate(-485.837 -225.573)"/><path d="m687 324.375-10.829 7.753-.171-4.257c.707-.941 9.5-6.591 9.5-6.591z" opacity=".1" transform="translate(-513.193 -226.811)"/><path d="m687.867 322.665-10.829 7.753-.168-4.255c.707-.944 9.5-6.593 9.5-6.593z" fill="#f0f3f7" transform="translate(-513.823 -225.573)"/><path d="m640.589 336.59.362 1.894-2.422 2.46 1.933-4.327s-4.141 2.885-5.384 3.65a7.86 7.86 0 0 0 -2.532 4.061c-.047.707-2 11.359-2 11.359s-1.472 3.943-1.057 5.061-2.236 36.374-2.236 36.374a5.246 5.246 0 0 1 3.54-2.714l-.944-20.835s1.148-13.86 1.207-14.037l2.678-8.211z" fill="#585b8a" transform="translate(-477.903 -237.893)"/><path d="m644.626 344.3-.188 3.865s-2.62 8.269-3.5 9.622-3.562 9.418-3.562 9.418l-1.51 14.009-2.59 1.179-1.276-2.349 2.12-13.529s4-11.417 4.592-12.6l2.951-6.218z" opacity=".1" transform="translate(-481.342 -243.475)"/><path d="m643.745 343.45-.185 3.865s-2.62 8.269-3.5 9.622-3.559 9.418-3.559 9.418l-1.5 14.007-2.59 1.176-1.295-2.352 2.12-13.529s4-11.42 4.589-12.6l2.974-6.21z" fill="#663d5c" transform="translate(-480.697 -242.859)"/><path d="m566.31 446.944 5.061 3.5s3.57-2 1.491-3.3a9.218 9.218 0 0 0 -4.592-1.491c-.67.007-1.96 1.291-1.96 1.291z" fill="#d28690" transform="translate(-433.789 -316.849)"/><path d="m579.037 425.629a.778.778 0 0 0 -.367.665c0 1.074.121 3.918 1.022 2.634 1.1-1.571.9-2.982 2.59-1.963a9.94 9.94 0 0 1 2.706 2.485l-.469-3.374s-3.469-1.711-5.482-.447z" fill="#d28690" transform="translate(-442.736 -302.011)"/><path d="m667.354 525a7.6 7.6 0 0 0 -.663 2.388 19.95 19.95 0 0 1 -17.872-3.449 90.058 90.058 0 0 1 -2.236-9.415 30.684 30.684 0 0 1 .028-5.771l18.452-3.236s3.47 17.66 2.291 19.483z" opacity=".1" transform="translate(-491.81 -360.181)"/><path d="m677.907 337.513a18.3 18.3 0 0 0 -.293 4.65l-4.238 20.012s-2.06 15.42-2.413 17.48-.942 11.124-.942 11.124a19.936 19.936 0 0 1 -21.26-2.118 90.243 90.243 0 0 1 -2.236-9.418c-.591-3.5 1.149-17.5 1.971-23.72.246-1.842.411-3 .411-3l3.093-11.479s3.8-9.683 5.21-12.508 7.09-9.169 7.09-9.169c.7-.447 1.831 1.132 2.667 2.57.632 1.088 1.1 2.1 1.1 2.1s7.063 3.059 8.12 4.694.884 5 1 5.18a5.188 5.188 0 0 1 .72 3.602z" fill="#585b8a" transform="translate(-491.77 -225.37)"/><path d="m667.38 331.008s.53 3.12-.828 4.061c-1.312.911-11.074 20.109-11.682 21.307.246-1.844.411-3 .411-3l3.09-11.475s3.8-9.683 5.21-12.51 7.093-9.169 7.093-9.169c.7-.447 1.828 1.132 2.664 2.571-1.261 2.615-3.893 7.568-5.958 8.215z" opacity=".1" transform="translate(-497.897 -225.985)"/><path d="m666.516 330.158s.527 3.12-.828 4.061-11.072 20.106-11.687 21.3c.246-1.842.411-3 .411-3l3.09-11.478s3.8-9.683 5.21-12.508 7.09-9.169 7.09-9.169c.7-.447 1.831 1.132 2.667 2.571-1.257 2.62-3.891 7.577-5.953 8.223z" fill="#585b8a" transform="translate(-497.267 -225.37)"/><path d="m608.764 411.006-3.322 17.281-.318 1.654-.715 3.719-3.051-.646-1.422-.3-19.678-4.169-1.447-.306-3.3-.7.646-4.291.268-1.784 2.383-15.821z" fill="#02cb02" transform="translate(-425.509 -278.026)"/><path d="m666.863 511.92s-7.828 2.825-6.121 6.179 12.654-2.59 12.654-2.59z" fill="#d28690" transform="translate(-501.972 -364.814)"/><path d="m703.8 599.1c0 .235.3 3.239 1.472 4.3s-1.472-4.3-1.472-4.3z" opacity=".1" transform="translate(-533.317 -427.923)"/><path d="m675.24 637.68s1.411 3.885 7 5.475-7-5.475-7-5.475z" opacity=".1" transform="translate(-512.643 -455.851)"/><path d="m678.31 259.746a9.18 9.18 0 0 1 -4.6 7.96 4.886 4.886 0 0 1 -1.38-1.151 1.784 1.784 0 0 1 -.472-1.728c.193-.467.7-.762.828-1.245a1.833 1.833 0 0 0 -.044-.889c-.1-.456-.2-.911-.3-1.364-.086-.387-.237-.842-.621-.936s-.7.226-1.005.464a3.151 3.151 0 0 1 -3.037.5c-.886-.478-.638-2.076-.781-2.941a.514.514 0 0 0 -.193-.389.807.807 0 0 0 -.4-.028 1.153 1.153 0 0 1 -1-.886 7.628 7.628 0 0 1 -.16-1.422 1.586 1.586 0 0 0 -.635-1.229 1.963 1.963 0 0 0 -1.047-.171l-1.731.019a9.183 9.183 0 0 1 16.566 5.445z" opacity=".1" transform="translate(-502.863 -175.636)"/><path d="m666.755 254.365c.3-.237.632-.552 1.005-.461s.533.552.618.933l.3 1.361a1.85 1.85 0 0 1 .047.892c-.141.486-.649.779-.845 1.245a1.784 1.784 0 0 0 .472 1.726 4.97 4.97 0 0 0 2.841 1.7 2.087 2.087 0 0 0 .886.019 2.623 2.623 0 0 0 1.458-1.323 21.419 21.419 0 0 0 3.716-9.324 5.982 5.982 0 0 0 -.094-2.057 6.908 6.908 0 0 0 -.63-1.5 12.147 12.147 0 0 0 -1.775-2.686 10.083 10.083 0 0 0 -4.771-2.675 16.158 16.158 0 0 0 -6.16-.483c-.552.063-1.082.155-1.626.191a16.368 16.368 0 0 1 -2.049-.033l-4.064-.243a1.579 1.579 0 0 0 .276 1.474 2.647 2.647 0 0 1 .6 1.425 2.931 2.931 0 0 1 -.682 1.381 1.359 1.359 0 0 0 -.218 1.444 1.545 1.545 0 0 0 1.381.453l2.049-.022a1.958 1.958 0 0 1 1.041.179 1.59 1.59 0 0 1 .635 1.229 8.133 8.133 0 0 0 .16 1.422 1.149 1.149 0 0 0 1 .886.746.746 0 0 1 .4.03.508.508 0 0 1 .193.387c.143.864-.122 2.46.781 2.94a3.18 3.18 0 0 0 3.055-.51z" fill="#663d5c" transform="translate(-498.658 -169.144)"/><path d="m691.832 353.4a4.5 4.5 0 0 0 -4.735 3.023c-1.1 3.145-2.946 8.819-2.485 11.061.649 3.178 1.414 8.476 1.414 8.476s3.355 1.933 1.656 3.882a11 11 0 0 0 -2.178 4.71 4.9 4.9 0 0 0 -2.648 2.943c-.469 2-3.65 4.766-3.65 4.766l-4.766 4.768s7.885 8.007 9.476 8.416l4.884-5.71 5.768-7.651 5-5.246s1.176-2.761.588-8.007a38.318 38.318 0 0 0 -2.885-10.241l.177-1.767s.544-12.655-5.616-13.423z" opacity=".1" transform="translate(-512.064 -250.046)"/><path d="m693.539 353.4a4.5 4.5 0 0 0 -4.73 3.023c-1.1 3.145-2.946 8.819-2.485 11.061.646 3.178 1.411 8.476 1.411 8.476s3.355 1.933 1.657 3.882a10.973 10.973 0 0 0 -2.176 4.71 4.9 4.9 0 0 0 -2.651 2.943c-.472 2-3.647 4.766-3.647 4.766l-4.768 4.768s7.886 8.007 9.476 8.416l4.884-5.71 5.754-7.651 5-5.246s1.179-2.761.588-8.007a38.489 38.489 0 0 0 -2.883-10.241l.177-1.767s.554-12.653-5.607-13.423z" fill="#585b8a" transform="translate(-513.302 -250.048)"/><path d="m721.28 418.34s5 6.118 7.123 4.766-7.123-4.766-7.123-4.766z" opacity=".1" transform="translate(-545.971 -297.072)"/><path d="m728.1 401.28c.53.177 4.887 6.24 7.123 5.522s-7.123-5.522-7.123-5.522z" opacity=".1" transform="translate(-550.908 -284.722)"/><path d="m732.58 439a3.277 3.277 0 0 0 3.885 3c3.589-.471-3.885-3-3.885-3z" opacity=".1" transform="translate(-554.151 -312.028)"/><path d="m615.931 301.83-1.941 4.327 2.424-2.46z" opacity=".1" transform="translate(-453.364 -202.871)"/><path d="m615.931 300.98-1.941 4.327 2.424-2.46z" fill="#f0f3f7" transform="translate(-453.364 -202.256)"/><path d="m581.953 470.029-1.447-.306-2.656-4.989.268-1.784z" opacity=".3" transform="translate(-427.203 -319.505)"/><path d="m669.485 487.65-.317 1.654-3.768 3.076-1.422-.3z" opacity=".3" transform="translate(-489.552 -337.385)"/><path d="m448.633 374.3c-.729.121-1.436.232-2.082.315-3.589.472-12.126-3.766-12.126-3.766s-10.417-8.711-13.419-16.95 3.589-9.476 3.589-9.476c2.485-1.414 7.888 2.529 8.653 3.178a4.915 4.915 0 0 1 1.353 3.355c-.061 1.06 1.767 2.413 1.767 2.413s3.12 5.414 3.885 6a3.071 3.071 0 0 1 1.176 2.12c.235 1 2.294 1.825 3.178 1.764s1.933.3 1.933.765c0 .378.864.566 1.574.627.21 3.021.417 6.975.519 9.655z" opacity=".1" transform="translate(-328.037 -243.344)"/><path d="m449.838 370.971c-.552.088-1.082.168-1.579.235-3.589.472-12.124-3.766-12.124-3.766s-10.417-8.711-13.419-16.95 3.589-9.476 3.589-9.476c2.485-1.414 7.886 2.529 8.65 3.178a4.93 4.93 0 0 1 1.356 3.355c-.058 1.06 1.764 2.413 1.764 2.413s3.12 5.414 3.885 6a3.084 3.084 0 0 1 1.179 2.12c.237 1 2.294 1.822 3.178 1.764s1.933.3 1.933.765c0 .276.491.461 1.038.552.022.32.041.66.066 1.013.183 2.717.371 6.179.484 8.797z" opacity=".1" transform="translate(-329.275 -240.876)"/><path d="m569.931 428.84-.224 5.29h-.24l-.5-.276.061-4.558a8.011 8.011 0 0 1 .903-.456z" opacity=".1" transform="translate(-435.714 -304.673)"/><path d="m424.6 342.716s-6.591 1.237-3.589 9.476 13.419 16.953 13.419 16.953 8.534 4.235 12.127 3.766 9.062-1.706 9.768-1.53 5.475.177 5.475.177l.235-5.522-5.522-.3-2.825-.588s-1-.828-1.59-.707-1.822-.707-1.822-.707a3.519 3.519 0 0 0 -1.657-.765c-.712 0-2.06-.177-2.06-.646s-1.06-.828-1.933-.765-2.957-.765-3.2-1.778a3.073 3.073 0 0 0 -1.176-2.118c-.765-.588-3.885-6.005-3.885-6.005s-1.825-1.353-1.767-2.41a4.94 4.94 0 0 0 -1.353-3.357c-.769-.645-6.181-4.59-8.645-3.174z" fill="#dce6f2" transform="translate(-328.037 -242.109)"/><path d="m492.239 412.15s-2.532 2.532-1.886 3z" opacity=".1" transform="translate(-378.728 -292.591)"/><path d="m500.539 419.4s-3.3 2.532-2.413 2.709 2.413-2.709 2.413-2.709z" opacity=".1" transform="translate(-384.322 -297.839)"/><path d="m487 433c.472.237 7.474 4.418 10.125 4.357z" opacity=".1" transform="translate(-376.377 -307.684)"/><path d="m460.184 315.989s-1.237 4.061-1.709 4.061c-.37 0-6.582-5.031-9.175-7.146l.113-.094a5.557 5.557 0 0 1 1.176-2.761c.942-.935 9.595 5.94 9.595 5.94z" opacity=".1" transform="translate(-349.086 -218.618)"/><path d="m459.324 314.279s-1.234 4.061-1.706 4.061c-.373 0-6.585-5.031-9.178-7.146l.113-.094a5.572 5.572 0 0 1 1.179-2.761c.942-.939 9.592 5.94 9.592 5.94z" fill="#dce6f2" transform="translate(-348.463 -217.38)"/><g opacity=".15" transform="translate(94.192 70.148)"><path d="m427.49 282.54c.828 1.891 3.109 2.808 4.431 4.315-.786-1.855-3.086-2.761-4.431-4.315z" transform="translate(-427.49 -268.914)"/><path d="m448.548 294.136a1.984 1.984 0 0 1 -1.811.925 5.285 5.285 0 0 1 -1.817-.464 3.532 3.532 0 0 1 .469 1 5.77 5.77 0 0 0 2.054.552 1.965 1.965 0 0 0 1.811-.925c.527-1.008-.022-1.869-.665-2.684a1.753 1.753 0 0 1 -.041 1.596z" transform="translate(-440.108 -276.153)"/><path d="m463.288 237.334a9.468 9.468 0 0 0 -.729-1.447 9.03 9.03 0 0 1 -.3-1.182 3.662 3.662 0 0 0 -.848-1.516 3.519 3.519 0 0 1 .141.417 9.5 9.5 0 0 0 .309 1.187 9.467 9.467 0 0 1 .729 1.447 1.5 1.5 0 0 1 -1.1 1.728c-1.022.224-2.187-.66-3.065-.091a2.205 2.205 0 0 0 -.734 1.7q-.185 1.657-.376 3.294a3.949 3.949 0 0 1 -.243 1.132 2.844 2.844 0 0 1 -2.709 1.444 1.626 1.626 0 0 1 -1.165-.387 7.691 7.691 0 0 0 -.505-.641c-1.381-1.16-1.8 1.676-1.436 2.485a5 5 0 0 0 .674 1.013c-.3-.911.121-3.534 1.469-2.41a7.134 7.134 0 0 1 .5.641 1.637 1.637 0 0 0 1.168.387 2.844 2.844 0 0 0 2.709-1.444 3.948 3.948 0 0 0 .243-1.135q.188-1.657.376-3.291a2.213 2.213 0 0 1 .732-1.7c.881-.569 2.046.315 3.068.088a1.5 1.5 0 0 0 1.1-1.72z" transform="translate(-444.601 -233.19)"/></g><path d="m672.5 260.966a2.134 2.134 0 0 1 -.886-.022 4.97 4.97 0 0 1 -2.838-1.7 1.778 1.778 0 0 1 -.472-1.728c.193-.467.7-.759.828-1.245a1.85 1.85 0 0 0 -.047-.892l-.3-1.361c-.086-.387-.235-.842-.618-.933s-.7.224-1.005.461a3.145 3.145 0 0 1 -3.037.5c-.884-.48-.638-2.076-.781-2.94a.516.516 0 0 0 -.193-.387.787.787 0 0 0 -.4-.03 1.156 1.156 0 0 1 -1-.886 7.84 7.84 0 0 1 -.157-1.422 1.594 1.594 0 0 0 -.638-1.229 1.985 1.985 0 0 0 -1.041-.179l-2.055.027c-.505 0-1.1-.033-1.38-.453a1.376 1.376 0 0 1 .218-1.444 2.858 2.858 0 0 0 .682-1.381 2.6 2.6 0 0 0 -.6-1.425 2.553 2.553 0 0 1 -.348-.79l-.588-.036a1.589 1.589 0 0 0 .276 1.474 2.634 2.634 0 0 1 .6 1.422 2.932 2.932 0 0 1 -.682 1.381 1.352 1.352 0 0 0 -.215 1.444 1.543 1.543 0 0 0 1.381.456l2.049-.025a1.983 1.983 0 0 1 1.041.182 1.585 1.585 0 0 1 .638 1.229 7.633 7.633 0 0 0 .16 1.422 1.143 1.143 0 0 0 1 .884.809.809 0 0 1 .4.03.519.519 0 0 1 .193.389c.144.861-.122 2.46.781 2.94a3.133 3.133 0 0 0 3.037-.5c.3-.237.635-.552 1.008-.464s.533.552.616.933l.3 1.364a1.848 1.848 0 0 1 .044.892c-.138.483-.649.779-.842 1.242a1.782 1.782 0 0 0 .472 1.728 4.97 4.97 0 0 0 2.858 1.7 2.134 2.134 0 0 0 .886.022 2.082 2.082 0 0 0 1.149-.872 1.535 1.535 0 0 1 -.494.222z" opacity=".1" transform="translate(-498.488 -169.036)"/><ellipse cx="47.34" cy="212.843" fill="#6c63ff" opacity=".1" rx="6.673" ry="1.024"/><ellipse cx="280.349" cy="186.21" fill="#6c63ff" opacity=".1" rx="6.673" ry="1.024"/><ellipse cx="212.315" cy="227.488" fill="#6c63ff" opacity=".1" rx="19.327" ry="2.965"/><ellipse cx="267.257" cy="214.925" fill="#6c63ff" opacity=".1" rx="15.075" ry="2.314"/><ellipse cx="264.774" cy="237.979" fill="#6c63ff" opacity=".1" rx="25.564" ry="3.923"/><ellipse cx="20.777" cy="241.431" fill="#6c63ff" opacity=".1" rx="19.327" ry="2.965"/><path d="m253.436 631.85s.757.988-.348 2.485-2.016 2.761-1.657 3.683c0 0 1.657-2.761 3.037-2.811s.462-1.689-1.032-3.357z" fill="#6c63ff" transform="translate(-205.792 -451.631)"/><path d="m253.565 631.85a1.1 1.1 0 0 1 .155.309c1.325 1.557 2.029 3.007.757 3.037-1.184.033-2.606 2.154-2.946 2.689a1.031 1.031 0 0 0 .039.122s1.657-2.761 3.037-2.811.452-1.678-1.042-3.346z" opacity=".1" transform="translate(-205.921 -451.631)"/><path d="m263.537 635.823c0 .348-.041.63-.088.63s-.088-.276-.088-.63.05-.182.1-.182.076-.165.076.182z" fill="#ffd037" transform="translate(-214.484 -454.345)"/><path d="m264.18 637.29c-.3.166-.572.276-.594.224s.2-.21.511-.378.185-.044.207 0 .182-.014-.124.154z" fill="#ffd037" transform="translate(-214.647 -455.395)"/><path d="m239.991 631.85s-.757.988.348 2.485 2.018 2.761 1.657 3.683c0 0-1.657-2.761-3.023-2.811s-.484-1.689 1.018-3.357z" fill="#6c63ff" transform="translate(-196.339 -451.631)"/><path d="m239.975 631.85a1.218 1.218 0 0 0 -.155.309c-1.325 1.557-2.029 3.007-.757 3.037 1.185.033 2.606 2.154 2.949 2.689a1.059 1.059 0 0 1 -.041.122s-1.657-2.761-3.023-2.811-.475-1.678 1.027-3.346z" opacity=".1" transform="translate(-196.324 -451.631)"/><path d="m239.35 635.823c0 .348.039.63.086.63s.088-.276.088-.63-.05-.182-.1-.182-.074-.165-.074.182z" fill="#ffd037" transform="translate(-197.104 -454.345)"/><path d="m237.113 637.29c.306.166.572.276.6.224s-.207-.21-.514-.378-.185-.044-.207 0-.185-.014.121.154z" fill="#ffd037" transform="translate(-195.35 -455.395)"/><ellipse cx="45.648" cy="192.735" fill="#6c63ff" opacity=".1" rx="7.905" ry="1.212"/><path d="m245.065 648.141-.039.309-.052.436-.022.182-.052.436-.025.182-.052.436-.6 4.97c-.052.442-.776.787-1.657.787h-3.136c-.872 0-1.6-.345-1.657-.787l-.6-4.97-.052-.436-.022-.182-.055-.436-.022-.182-.052-.436-.039-.309c-.03-.251.362-.461.856-.461h6.43c.483 0 .883.21.848.461z" fill="#65617d" transform="translate(-195.348 -463.09)"/><path d="m191.022 614.76-.052.436h-7.957l-.052-.436z" fill="#9d9cb5" transform="translate(-141.343 -429.4)"/><path d="m191.143 617-.052.436h-7.805l-.056-.436z" fill="#9d9cb5" transform="translate(-141.539 -431.022)"/><path d="m191.271 619.24-.055.436h-7.654l-.052-.436z" fill="#9d9cb5" transform="translate(-141.741 -432.643)"/><path d="m1082.432 618s-.944 4.4 3.255 4.915l.26-.489s-3.256-3.062-3.515-4.426z" fill="#6c63ff" transform="translate(-807.342 -441.605)"/><path d="m1090.677 616.577-.977.207-.1.022s-2.606-2.115-2.573-6.836a11.663 11.663 0 0 0 1.245 1.969 11.77 11.77 0 0 1 2.405 4.638z" fill="#6c63ff" transform="translate(-810.735 -435.792)"/><path d="m1095.347 612.766a.613.613 0 0 1 -.525.069c-2.507-.585-1.657-8.755-1.657-8.755.138.063.276 1.1.867 2.446 1.008 2.355 2.121 5.649 1.315 6.24z" fill="#6c63ff" transform="translate(-815.077 -431.528)"/><path d="m1110.3 618s.163 4.4-4.037 4.915l-.262-.5s4.038-3.051 4.299-4.415z" fill="#6c63ff" transform="translate(-824.469 -441.605)"/><path d="m1105.606 610a8.13 8.13 0 0 1 -3.352 6.836l-.1-.022-.975-.207a11.906 11.906 0 0 1 2.4-4.639 10.626 10.626 0 0 1 2.027-1.968z" fill="#6c63ff" transform="translate(-820.979 -435.814)"/><path d="m1100.576 612.348a1.521 1.521 0 0 1 -.552.428 1.084 1.084 0 0 1 -.207.069c-.616.144-.828-.3-.8-1.057a19.568 19.568 0 0 1 1.657-5.425 6.776 6.776 0 0 1 1.574-2.272s-.035 6.358-1.672 8.257z" fill="#6c63ff" transform="translate(-819.414 -431.536)"/><path d="m1098.533 593.7s-2.8 9.94-.389 11.425 1.007-10.547.389-11.425z" fill="#6c63ff" transform="translate(-818.072 -424.014)"/><path d="m1082.432 618s-.944 4.4 3.255 4.915l.26-.489s-3.256-3.062-3.515-4.426z" opacity=".1" transform="translate(-807.342 -441.605)"/><path d="m1090.677 616.577-.977.207-.1.022s-2.606-2.115-2.573-6.836a11.663 11.663 0 0 0 1.245 1.969 11.77 11.77 0 0 1 2.405 4.638z" opacity=".1" transform="translate(-810.735 -435.792)"/><path d="m1095.347 612.766a.613.613 0 0 1 -.525.069c-2.507-.585-1.657-8.755-1.657-8.755.138.063.276 1.1.867 2.446 1.008 2.355 2.121 5.649 1.315 6.24z" opacity=".1" transform="translate(-815.077 -431.528)"/><path d="m1110.3 618s.163 4.4-4.037 4.915l-.262-.5s4.038-3.051 4.299-4.415z" opacity=".1" transform="translate(-824.469 -441.605)"/><path d="m1105.606 610a8.13 8.13 0 0 1 -3.352 6.836l-.1-.022-.975-.207a11.906 11.906 0 0 1 2.4-4.639 10.626 10.626 0 0 1 2.027-1.968z" opacity=".1" transform="translate(-820.979 -435.814)"/><path d="m1100.576 612.348a1.521 1.521 0 0 1 -.552.428 1.084 1.084 0 0 1 -.207.069c-.616.144-.828-.3-.8-1.057a19.568 19.568 0 0 1 1.657-5.425 6.776 6.776 0 0 1 1.574-2.272s-.035 6.358-1.672 8.257z" opacity=".1" transform="translate(-819.414 -431.536)"/><path d="m1098.533 593.7s-2.8 9.94-.389 11.425 1.007-10.547.389-11.425z" opacity=".1" transform="translate(-818.072 -424.014)"/><path d="m1082.607 618s-.552 4.4 3.644 4.915l.26-.489s-3.644-3.062-3.904-4.426z" fill="#02cb02" transform="translate(-807.517 -441.605)"/><path d="m1091.044 616.6-.977.207-.1.022a8.394 8.394 0 0 1 -2.967-6.829s.767.828 1.635 1.969a11.6 11.6 0 0 1 2.409 4.631z" fill="#02cb02" transform="translate(-810.714 -435.814)"/><path d="m1095.352 621.739-.977.207c-.925-.812-1.292-2.932-1.425-4.846a11.772 11.772 0 0 1 2.402 4.639z" opacity=".1" transform="translate(-815.022 -440.954)"/><path d="m1096.01 612.766a.619.619 0 0 1 -.527.069c-2.507-.585-2.049-8.755-2.049-8.755a11.341 11.341 0 0 1 1.256 2.446c1.01 2.355 2.123 5.649 1.32 6.24z" fill="#02cb02" transform="translate(-815.348 -431.528)"/><path d="m1111.334 618s.552 4.4-3.644 4.915l-.26-.489s3.645-3.062 3.904-4.426z" fill="#02cb02" transform="translate(-825.504 -441.605)"/><path d="m1106.627 610a8.382 8.382 0 0 1 -2.963 6.836l-.1-.022-.977-.207a11.878 11.878 0 0 1 2.4-4.639c.872-1.14 1.64-1.968 1.64-1.968z" fill="#02cb02" transform="translate(-822 -435.814)"/><path d="m1104.992 617.1c-.127 1.784-.453 3.747-1.245 4.663a1.4 1.4 0 0 1 -.18.182l-.977-.207a11.733 11.733 0 0 1 2.402-4.638z" opacity=".1" transform="translate(-822 -440.954)"/><path d="m1101.987 612.348a1.493 1.493 0 0 1 -.552.428 1.105 1.105 0 0 1 -.2.069c-.619.144-.828-.3-.8-1.057a19.761 19.761 0 0 1 1.657-5.425 10.624 10.624 0 0 1 1.184-2.272s.348 6.358-1.289 8.257z" fill="#02cb02" transform="translate(-820.436 -431.536)"/><path d="m1099 619.18a.661.661 0 0 1 -.4-.127c-1.179-.734-1.2-3.49-.922-6.113 1.016 2.36 2.122 5.649 1.322 6.24z" opacity=".1" transform="translate(-818.339 -437.942)"/><path d="m1101.994 618.306c-.135.3-.318.45-.552.428a.744.744 0 0 1 -.334-.127 1.783 1.783 0 0 1 -.668-.861 19.76 19.76 0 0 1 1.657-5.425c.27 2.42.361 4.988-.103 5.985z" opacity=".1" transform="translate(-820.444 -437.493)"/><path d="m1099.314 593.7s-2.408 9.94 0 11.425.619-10.547 0-11.425z" fill="#02cb02" transform="translate(-818.854 -424.014)"/><path d="m1038.465 597.61h-10.025v1.659h1.53l.039.2.613 3.222h5.828l.613-3.222.036-.2h1.367z" fill="#4b4770" transform="translate(-753.383 -416.985)"/><path d="m1038.465 597.61h-10.025v1.659h1.53l.039.2.613 3.222h5.828l.613-3.222.036-.2h1.367z" opacity=".1" transform="translate(-753.383 -416.985)"/><path d="m1042.311 601.14-.168.881-.613 3.222h-5.83l-.613-3.222-.168-.881z" fill="#4b4770" transform="translate(-758.074 -419.54)"/><path d="m1042.311 601.14-.168.881h-7.055l-.168-.881z" opacity=".1" transform="translate(-758.074 -419.54)"/><path d="m275.446 180.625h10.025v1.659h-10.025z" fill="#4b4770"/><path d="m148.33 730.773a4.818 4.818 0 0 0 -.63 1.187c-.039.1-.077.221-.116.334a1.2 1.2 0 0 0 -.218-.077 3.039 3.039 0 0 0 -.986-.083c0-.13.017-.276.019-.406.041-1.455-.13-3.482-1.519-2.623-1.331.828-.381 2.209.478 3.092.075.077.149.149.221.218-.784.552-.933 1.858-1.063 3.214a7.493 7.493 0 0 1 -2.046 3.681c-.077.086-.146.163-.215.235a2.8 2.8 0 0 0 -2.223-.572c-.03-.119-.066-.243-.1-.373-.618-2.234-1.9-6.1-3.54-6.95l.215-.276c.7-.908 1.48-2.261.323-2.606s-1.262 1.171-1.2 2.308q.017.215.033.406a1.693 1.693 0 0 0 -1.209.591l-.179-.213c-.939-1.1-2.659-2.863-3.181-1.535-.486 1.237 1.03 2.844 2.1 3.774l.066.058c-.715 2.9 2.408 5.268 4.089 6.3l.218.133c-2.319 2.733-3.752 7.858-3.752 7.858l6.494 1.16s4.307-3.716 3.755-7.206h.044c4.3-.861 5.282-5.45 4.611-8.175l.077-.03a4.873 4.873 0 0 0 1.993-1.507 1.6 1.6 0 0 0 -2.559-1.917z" fill="#6c63ff" transform="translate(-118.743 -521.754)"/><path d="m148.33 730.773a4.818 4.818 0 0 0 -.63 1.187c-.039.1-.077.221-.116.334a1.2 1.2 0 0 0 -.218-.077 3.039 3.039 0 0 0 -.986-.083c0-.13.017-.276.019-.406.041-1.455-.13-3.482-1.519-2.623-1.331.828-.381 2.209.478 3.092.075.077.149.149.221.218-.784.552-.933 1.858-1.063 3.214a7.493 7.493 0 0 1 -2.046 3.681c-.077.086-.146.163-.215.235a2.8 2.8 0 0 0 -2.223-.572c-.03-.119-.066-.243-.1-.373-.618-2.234-1.9-6.1-3.54-6.95l.215-.276c.7-.908 1.48-2.261.323-2.606s-1.262 1.171-1.2 2.308q.017.215.033.406a1.693 1.693 0 0 0 -1.209.591l-.179-.213c-.939-1.1-2.659-2.863-3.181-1.535-.486 1.237 1.03 2.844 2.1 3.774l.066.058c-.715 2.9 2.408 5.268 4.089 6.3l.218.133c-2.319 2.733-3.752 7.858-3.752 7.858l6.494 1.16s4.307-3.716 3.755-7.206h.044c4.3-.861 5.282-5.45 4.611-8.175l.077-.03a4.873 4.873 0 0 0 1.993-1.507 1.6 1.6 0 0 0 -2.559-1.917z" opacity=".1" transform="translate(-118.743 -521.754)"/><path d="m136.445 735.633-.759 2.209s-.422-.3-.955-.768c-1.066-.93-2.582-2.537-2.1-3.774.522-1.328 2.242.425 3.181 1.535.382.442.633.798.633.798z" fill="#02cb02" transform="translate(-119.785 -524.725)"/><path d="m150.15 731.389a10.522 10.522 0 0 1 -.74.872 11.65 11.65 0 0 1 -.135-1.171c-.063-1.138.058-2.648 1.2-2.308s.37 1.698-.325 2.607z" fill="#02cb02" transform="translate(-131.889 -521.765)"/><path d="m182.285 732.2c-.022.732-.094 1.317-.094 1.317a9.631 9.631 0 0 1 -.947-.848c-.859-.892-1.808-2.267-.478-3.092 1.375-.858 1.547 1.171 1.519 2.623z" fill="#02cb02" transform="translate(-154.217 -522.229)"/><path d="m194.876 736.42a4.873 4.873 0 0 1 -1.993 1.508 5.971 5.971 0 0 1 -.668.243l-.895-1.256a8.885 8.885 0 0 1 .37-1.22 4.817 4.817 0 0 1 .63-1.187 1.6 1.6 0 0 1 2.556 1.912z" fill="#02cb02" transform="translate(-162.335 -525.487)"/><path d="m141.555 740.11c.378.442.63.784.63.784l-.759 2.209s-.422-.3-.955-.768a4.335 4.335 0 0 1 .856-1.952c.073-.091.154-.183.228-.273z" opacity=".1" transform="translate(-125.525 -530)"/><path d="m150.185 737.568a10.521 10.521 0 0 1 -.74.873 11.655 11.655 0 0 1 -.135-1.171 1.526 1.526 0 0 1 .875.298z" opacity=".1" transform="translate(-131.924 -527.944)"/><path d="m147.4 747.436-1.889.828s-.411-.2-1.005-.569c-1.985-1.22-5.975-4.293-3.313-7.916s4.906 2.874 5.8 6.052c.268.969.407 1.605.407 1.605z" fill="#02cb02" transform="translate(-125.408 -528.988)"/><path d="m184.18 740.089a1.552 1.552 0 0 1 1.041-.469c-.022.732-.094 1.317-.094 1.317a9.645 9.645 0 0 1 -.947-.848z" opacity=".1" transform="translate(-157.166 -529.645)"/><path d="m192.9 742.694a5.981 5.981 0 0 1 -.668.243l-.895-1.256a8.88 8.88 0 0 1 .37-1.22 3.258 3.258 0 0 1 1.193 2.233z" opacity=".1" transform="translate(-162.349 -530.253)"/><path d="m170.045 751.312c-.1.022-.21.041-.318.058-6.331.961-2.087-2.455-2.087-2.455s.276-.276.671-.693a7.478 7.478 0 0 0 2.046-3.68c.2-2.051.428-3.976 2.849-3.413 2.377.558 2.833 8.982-3.161 10.183z" fill="#02cb02" transform="translate(-144.185 -530.666)"/><path d="m13.645 236.409h12.096v3.181h-12.096z" fill="#d4dfec"/><path d="m11.723 226.072h15.804v11.099h-15.804z" fill="#d4dfec"/><path d="m13.645 236.409h12.096v3.181h-12.096z" opacity=".1"/><path d="m11.723 226.072h15.804v11.099h-15.804z" opacity=".1"/><path d="m14.44 236.409h12.096v3.181h-12.096z" fill="#d4dfec"/><path d="m158 764.51c.276.95.409 1.6.409 1.6l-1.889.828s-.411-.2-1.005-.569a4.848 4.848 0 0 1 2.485-1.859z" opacity=".1" transform="translate(-136.419 -547.663)"/><path d="m170.045 770.17c-.1.022-.21.041-.318.058-6.331.961-2.087-2.455-2.087-2.455s.276-.276.671-.693a4.192 4.192 0 0 1 1.734 3.09z" opacity=".1" transform="translate(-144.185 -549.523)"/><path d="m142.72 775.206s3.545-12.7 8.518-8.783-2.024 9.94-2.024 9.94z" fill="#02cb02" transform="translate(-127.154 -548.505)"/><circle cx="17.356" cy="212.783" opacity=".1" r=".398"/><circle cx="17.323" cy="214.638" opacity=".1" r=".398"/><circle cx="28.856" cy="213.148" opacity=".1" r=".398"/><circle cx="19.579" cy="222.659" opacity=".1" r=".398"/><circle cx="28.027" cy="216.229" opacity=".1" r=".398"/><circle cx="23.919" cy="220.34" opacity=".1" r=".398"/><circle cx="18.714" cy="213.578" opacity=".1" r=".398"/><circle cx="27.762" cy="214.34" opacity=".1" r=".398"/><circle cx="26.404" cy="217.422" opacity=".1" r=".398"/><circle cx="22.229" cy="222.361" opacity=".1" r=".398"/><circle cx="21.368" cy="220.406" opacity=".1" r=".398"/><circle cx="19.311" cy="215.997" opacity=".1" r=".398"/><path d="m14.44 236.409h12.096v1.162h-12.096z" opacity=".1"/><path d="m12.518 226.072h15.804v11.099h-15.804z" fill="#d4dfec"/><circle cx="22.759" cy="224.15" opacity=".1" r=".398"/><circle cx="20.374" cy="224.647" opacity=".1" r=".398"/><circle cx="4.906" cy="29.98" fill="#6c63ff" opacity=".1" r="2.888"/><circle cx="282.271" cy="120.842" fill="#6c63ff" opacity=".1" r="3.865"/><circle cx="289.724" cy="112.56" fill="#6c63ff" opacity=".1" r="2.822"/><ellipse cx="12" cy="19.289" fill="#6c63ff" opacity=".1" rx="4" ry="4.5"/></svg>