<svg height="272" viewBox="0 0 307 272" width="307" xmlns="http://www.w3.org/2000/svg"><rect fill="#02cb02" height="307" opacity=".05" rx="40" transform="matrix(0 1 -1 0 307 0)" width="272"/><path d="m910.88 671.758-26.35-18.637c8.887-8.657 16.97-20.984 24.7-34.922l26.35 18.637c-10.529 11.958-19.448 23.694-24.7 34.922z" fill="#02cb02" transform="translate(-679.646 -460.583)"/><circle cx="231.241" cy="183.555" fill="#fff" r="7.777"/><path d="m618.044 536.554h-2.892a.383.383 0 0 0 -.383.383v1.27a.383.383 0 0 0 .383.383h.479v1.9h1.934v-1.9h.479a.384.384 0 0 0 .384-.383v-1.27a.383.383 0 0 0 -.384-.383z" fill="#e6e6e6" transform="translate(-513.921 -410.426)"/><path d="m616.7 551.265a14.87 14.87 0 0 1 -2.587-8.817.314.314 0 0 0 -.245-.313v-.549h-3.055v.541h-.042a.313.313 0 0 0 -.313.314v.023a13.572 13.572 0 0 1 -2.438 9.026.864.864 0 0 0 -.156.523l.334 10.333a.894.894 0 0 0 .887.863h6.91a.9.9 0 0 0 .887-.878l.129-10.032a1.811 1.811 0 0 0 -.311-1.034z" fill="#02cb02" transform="translate(-509.68 -413.518)"/><path d="m619.063 537.627a.827.827 0 0 1 -1.655 0" opacity=".2" transform="translate(-515.543 -411.085)"/><path d="m99.841 139.738h5.833v3.889h-5.833z" fill="#fff"/><path d="m850.834 641.218h-5.414a.718.718 0 0 0 -.718.718v2.377a.718.718 0 0 0 .718.718h.9v3.561h3.62v-3.562h.9a.718.718 0 0 0 .718-.718v-2.377a.718.718 0 0 0 -.718-.718z" fill="#e6e6e6" transform="translate(-655.178 -474.725)"/><path d="m848.318 668.756a27.837 27.837 0 0 1 -4.843-16.5.587.587 0 0 0 -.458-.586v-1.03h-5.717v1.013h-.079a.587.587 0 0 0 -.586.587v.043a25.4 25.4 0 0 1 -4.564 16.895 1.618 1.618 0 0 0 -.293.98l.622 19.342a1.674 1.674 0 0 0 1.66 1.616h12.94a1.675 1.675 0 0 0 1.661-1.645l.241-18.779a3.387 3.387 0 0 0 -.584-1.936z" fill="#02cb02" transform="translate(-647.239 -480.513)"/><path d="m852.742 643.226a1.549 1.549 0 0 1 -3.1 0" opacity=".2" transform="translate(-658.215 -475.959)"/><path d="m849.581 714.273h-11.258a1.156 1.156 0 0 0 -1.142 1.332l1.7 11.058h9.769l2.066-11.021a1.155 1.155 0 0 0 -1.136-1.369z" fill="#fff" transform="translate(-650.549 -519.605)"/><path d="m769.133 688.859h-32.275c2.257-12.2 1.737-26.932 0-42.774h32.275c-1.691 15.843-2.196 30.574 0 42.774z" fill="#02cb02" transform="translate(-588.926 -477.715)"/><circle cx="164.264" cy="188.59" fill="#fff" r="7.777"/><path d="m322.243 302.235 7.245-.659 4.611-11.2-8.234-4.611z" fill="#ffb8b8" transform="translate(-274.049 -225.708)"/><path d="m624.448 477.663a4.085 4.085 0 0 0 -3.549-5.6l-11.25-.671-1.656 5.508 11.581 3.18a4.085 4.085 0 0 0 4.874-2.417z" fill="#ffb8b8" transform="translate(-509.76 -370.396)"/><path d="m531.07 432.737-.124-10.336-24.988-3.987-19.251-22.078a6.3 6.3 0 0 0 -8.212-1.123 6.3 6.3 0 0 0 -1.1 9.612l15.882 19.544z" fill="#035a03" transform="translate(-428.461 -322.958)"/><path d="m463.726 618.321h6.587l16.338-73.868 16.926 22.819 9.88 49.4h6.257l-1.314-53.022-22.069-56.65h-21.737c-5.94 10.75-10.6 21.832-5.27 33.264z" fill="#2f2e41" transform="translate(-421.131 -392.271)"/><path d="m582.079 795.148a1.719 1.719 0 0 0 1.34 2.205l16.118 2.86a2.652 2.652 0 0 0 3.009-1.818 2.636 2.636 0 0 0 -1.289-3.134 24.643 24.643 0 0 1 -8.889-7.728c-1.771 1.65-3.752 1.494-5.854.279l-2.23.279z" fill="#2f2e41" transform="translate(-493.791 -564.612)"/><path d="m455.693 795.148a1.719 1.719 0 0 0 1.34 2.205l16.118 2.86a2.652 2.652 0 0 0 3.009-1.818 2.636 2.636 0 0 0 -1.289-3.134 24.644 24.644 0 0 1 -8.889-7.728c-1.772 1.65-3.751 1.494-5.854.279l-2.23.279z" fill="#2f2e41" transform="translate(-416.148 -564.612)"/><circle cx="60.215" cy="59.566" fill="#ffb8b8" r="9.222"/><path d="m476.327 437.074 24.042-.659-7.06-22.222c4.388-7.034-.028-14.061-6.278-21.087l-4.94-3.293-7.9-.659a19.4 19.4 0 0 0 -5.225 13.518 87.078 87.078 0 0 0 7.361 34.402z" fill="#035a03" transform="translate(-424.346 -319.873)"/><path d="m607.67 533.737a4.085 4.085 0 0 0 -1.06-6.543l-10.078-5.043-3.69 4.412 9.4 7.48a4.085 4.085 0 0 0 5.428-.306z" fill="#ffb8b8" transform="translate(-500.451 -401.578)"/><path d="m538.187 457.8 3.952-9.551-21.4-13.5-9.013-27.871a6.3 6.3 0 0 0 -7.108-4.263 6.3 6.3 0 0 0 -4.79 8.4l6.912 24.216z" fill="#035a03" transform="translate(-443.062 -328.083)"/><path d="m470.13 337.068c0 3.588 2.33 9.145 5.27 11.527 1.978 1.6 4.591 1.535 5.6-.659a26.1 26.1 0 0 1 10.868-10.868c8.36-4.436-2.965-12.026-10.868-10.868-5.941.869-10.87 4.865-10.87 10.868z" fill="#2f2e41" transform="translate(-425.065 -281.125)"/><circle cx="50.664" cy="44.416" fill="#2f2e41" r="6.587"/><path d="m494.583 308.211a6.583 6.583 0 0 0 -6.093-6.562c.164-.012.327-.025.494-.025a6.587 6.587 0 0 1 0 13.174c-.167 0-.33-.013-.494-.025a6.583 6.583 0 0 0 6.093-6.562z" fill="#2f2e41" transform="translate(-436.345 -266.1)"/><ellipse cx="60.38" cy="60.883" fill="#ffb8b8" rx="1.482" ry="1.976"/><g fill="#3f3d56"><path d="m610.31 514h-102.537l-21.713-102.642h-18.531v-4.606h22.264l21.713 102.648h98.8z" transform="translate(-363.304 -300.033)"/><circle cx="159.496" cy="222.852" r="9.87"/><circle cx="233.189" cy="222.852" r="9.87"/><path d="m801.949 620.132h-99.763l-17.6-86.987h133.881a4.73 4.73 0 0 1 4.673 5.464l-16.519 77.528a4.706 4.706 0 0 1 -4.672 3.995zm-98.679-1.316h98.679a3.4 3.4 0 0 0 3.372-2.884l16.519-77.532a3.413 3.413 0 0 0 -3.372-3.943h-132.287z" transform="translate(-556.812 -408.332)"/><path d="m606.151 541.255-11.528-85.943 1.3-.215 11.528 85.944z" transform="translate(-441.382 -329.733)"/><path d="m788.642 540.6-1.3-.211 11.192-85.289 1.3.211z" transform="translate(-559.777 -329.736)"/><path d="m197.011 125.471h1.316v85.944h-1.316z"/><path d="m0 0h1.316v127.383h-1.316z" transform="matrix(.00242601 -.99999706 .99999706 .00242601 134.491 149.815)"/><path d="m0 0h111.911v1.316h-111.911z" transform="matrix(.9999766 -.00684164 .00684164 .9999766 140.982 189.916)"/><ellipse cx="106.2" cy="108.364" rx="7.238" ry="3.948"/></g><path d="m259.441 69.406a28.073 28.073 0 0 0 -4.571-7.286l-63.437-.625 52.23-7.336a29.67 29.67 0 0 0 -10.6-2.1 29.7 29.7 0 0 0 -35.48-1.2 29.574 29.574 0 0 0 -13.583-3.276 28.838 28.838 0 0 0 -28.47 22.708z" fill="#6c63ff" opacity=".1" transform="translate(-5.035 -15.257)"/><path d="m187.132 279.937a27.425 27.425 0 0 0 -1.976-10.247l-109.945 11.541a27.611 27.611 0 0 0 -2.572 6.505l34.049 5.075-34.828 3.7c1.048 14.655 13.611 26.227 28.958 26.227a29.382 29.382 0 0 0 19.947-7.714 29.5 29.5 0 0 0 46.356-8.265 28.621 28.621 0 0 0 19.079-19.725l-43.056-6.678h43.979c.007-.139.009-.279.009-.419z" fill="#6c63ff" opacity=".1" transform="translate(69.504 -214.932)"/></svg>