<svg fill="none" height="241" viewBox="0 0 272 241" width="272" xmlns="http://www.w3.org/2000/svg" xmlns:xlink="http://www.w3.org/1999/xlink"><linearGradient id="a"><stop offset="0" stop-color="#808080" stop-opacity=".251"/><stop offset=".54" stop-color="#808080" stop-opacity=".122"/><stop offset="1" stop-color="#808080" stop-opacity=".102"/></linearGradient><linearGradient id="b" gradientUnits="userSpaceOnUse" x1="145.655" x2="132.744" xlink:href="#a" y1="-30.204" y2="-30.3331"/><linearGradient id="c" gradientUnits="userSpaceOnUse" x1="173.548" x2="173.392" xlink:href="#a" y1="136.684" y2="119.329"/><linearGradient id="d" gradientUnits="userSpaceOnUse" x1="190.871" x2="190.623" xlink:href="#a" y1="90.5905" y2="63.0464"/><linearGradient id="e" gradientUnits="userSpaceOnUse" x1="76.7643" x2="76.5213" xlink:href="#a" y1="10.1021" y2="-16.9022"/><linearGradient id="f" gradientUnits="userSpaceOnUse" x1="38.3929" x2="38.3929" xlink:href="#a" y1="240.423" y2="166.947"/><linearGradient id="g" gradientUnits="userSpaceOnUse" x1="135.25" x2="135.25" xlink:href="#a" y1="80.35" y2="50.245"/><linearGradient id="h" gradientUnits="userSpaceOnUse" x1="85.2828" x2="85.2828" xlink:href="#a" y1="42.171" y2="16.427"/><linearGradient id="i" gradientUnits="userSpaceOnUse" x1="225.926" x2="225.541" xlink:href="#a" y1="177.045" y2="138.594"/><linearGradient id="j" gradientUnits="userSpaceOnUse" x1="72.3208" x2="71.992" xlink:href="#a" y1="48.9195" y2="16.042"/><linearGradient id="k" gradientUnits="userSpaceOnUse" x1="21.6845" x2="21.345" xlink:href="#a" y1="96.8698" y2="59.1448"/><linearGradient id="l" gradientUnits="userSpaceOnUse" x1="163.015" x2="162.725" xlink:href="#a" y1="-8.98085" y2="-41.2276"/><linearGradient id="m" gradientUnits="userSpaceOnUse" x1="131.467" x2="131.467" xlink:href="#a" y1="158.442" y2="118.457"/><linearGradient id="n" gradientUnits="userSpaceOnUse" x1="234.508" x2="234.508" xlink:href="#a" y1="239.379" y2="165.903"/><linearGradient id="o" gradientUnits="userSpaceOnUse" x1="136.206" x2="136.206" xlink:href="#a" y1="239.664" y2="165.656"/><linearGradient id="p" gradientUnits="userSpaceOnUse" x1="135.838" x2="135.838" xlink:href="#a" y1="21.955" y2=".406006"/><linearGradient id="q" gradientUnits="userSpaceOnUse" x1="226.616" x2="226.616" xlink:href="#a" y1="44.412" y2="22.863"/><g opacity=".5"><path d="m72.8471 64.4235-.1 9.9975 8.3786.0838.0999-9.9975z" fill="url(#b)" opacity=".25"/><path d="m72.7536 74.1222 8.097.0728.0863-9.59-8.097-.0728z" fill="#e6e6e6" opacity=".5"/><g fill="#fff"><path d="m78.3227 69.1259c.0074-.8246-.655-1.499-1.4796-1.5065-.8245-.0074-1.499.655-1.5064 1.4796s.655 1.499 1.4795 1.5064c.8246.0075 1.4991-.655 1.5065-1.4795z" opacity=".5"/><path d="m78.1862 69.6195c.0067-.7495-.5954-1.3625-1.3448-1.3693-.7495-.0067-1.3625.5954-1.3692 1.3448-.0068.7495.5953 1.3625 1.3448 1.3692.7494.0068 1.3624-.5953 1.3692-1.3447z" opacity=".5"/><path d="m76.491 71.4873.633.0057.0098-1.085-.633-.0057z" opacity=".5"/><path d="m78.2764 74.171-3.122-.0281.0128-1.427c.0019-.2047.044-.4071.1241-.5955.08-.1885.1964-.3593.3425-.5027.295-.2898.693-.4505 1.1064-.4467.2051.0013.4079.043.5968.1229.1889.0798.3602.1961.5041.3422s.2575.3192.3344.5093.1156.3936.1137.5986z" opacity=".5"/><path d="m77.3859 67.6198c.0027-.3004-.2387-.5462-.5391-.5489-.3005-.0027-.5462.2387-.5489.5391-.0027.3005.2386.5462.5391.5489.3004.0027.5462-.2386.5489-.5391z" opacity=".5"/><path d="m76.674 66.727c-.291-.0312-.585.0168-.851.139-.2406.0733-.4642.1936-.658.354-.3129.3664-.4685.8415-.433 1.322.0358.4757-.0324.9534-.2 1.4-.1209.2339-.3058.4285-.5332.5613-.2273.1328-.4877.1982-.7508.1887.1588.0929.3383.1447.5221.1508.1839.0061.3663-.0337.5309-.1158.2968-.1328.5454-.3538.712-.633.1014-.1948.186-.3979.253-.607.2291-.6189.5352-1.2065.911-1.749.0554-.0878.1228-.1676.2-.237.1128-.0868.2475-.1404.389-.155.117 0 .316.038.386-.076.15-.249-.327-.508-.478-.543z" opacity=".5"/></g></g><g opacity=".5"><path d="m192.161 62.5876-11.267.1014.121 13.443 11.267-.1014z" fill="url(#c)" opacity=".25"/><path d="m191.992 62.855-10.89.098.116 12.896 10.89-.098z" fill="#e6e6e6" opacity=".5"/><g fill="#fff"><path d="m186.649 70.993c1.109-.01 2-.9171 1.99-2.0261s-.918-1.9999-2.027-1.9899c-1.108.0099-1.999.917-1.989 2.026s.917 1.9999 2.026 1.99z" opacity=".5"/><path d="m186.655 71.4816c1.008-.0091 1.817-.8335 1.808-1.8414s-.833-1.8177-1.841-1.8086-1.818.8335-1.809 1.8414.834 1.8177 1.842 1.8086z" opacity=".5"/><path d="m187.072 70.7464-.851.0076.013 1.461.851-.0076z" opacity=".5"/><path d="m186.732 71.7843c.557-.0051 1.094.2114 1.491.6017.397.3902.623.9224.628 1.4794l.018 1.91-4.184.0376-.018-1.9c-.004-.5564.213-1.0918.603-1.4885s.922-.6224 1.479-.6274z" opacity=".5"/><path d="m186.618 67.7124c.404-.0036.728-.3338.725-.7375-.004-.4038-.334-.7281-.738-.7245-.404.0037-.728.3339-.724.7376.003.4037.333.7281.737.7244z" opacity=".5"/><path d="m186.841 65.813c.39-.0416.785.023 1.142.187.323.0988.623.2613.883.478.42.4914.629 1.1291.582 1.774-.049.6451.042 1.293.266 1.9.162.3137.411.5748.716.7529s.654.2659 1.008.2531c-.214.1239-.455.1929-.702.2005-.247.0077-.492-.0461-.712-.1565-.399-.1825-.73-.4845-.949-.864-.137-.2618-.251-.5348-.341-.816-.308-.8325-.719-1.6231-1.224-2.353-.076-.1173-.168-.2237-.272-.316-.152-.1168-.332-.1892-.522-.209-.155-.022-.421.051-.519-.1-.21-.338.419-.686.644-.731z" opacity=".5"/></g></g><g opacity=".5"><path d="m182.857 6.33919-17.868.16081.192 21.319 17.868-.1608z" fill="url(#d)" opacity=".25"/><path d="m182.589 6.76559-17.27.15543.184 20.45198 17.27-.1554z" fill="#e6e6e6" opacity=".5"/><g fill="#fff"><path d="m174.116 19.6743c1.759-.0158 3.173-1.4546 3.157-3.2136s-1.455-3.1722-3.214-3.1564c-1.759.0159-3.172 1.4547-3.156 3.2137s1.454 3.1722 3.213 3.1563z" opacity=".5"/><path d="m174.125 20.443c1.598-.0144 2.882-1.3217 2.868-2.9201-.015-1.5983-1.322-2.8823-2.92-2.8679-1.599.0144-2.883 1.3217-2.868 2.92.014 1.5983 1.321 2.8824 2.92 2.868z" opacity=".5"/><path d="m174.791 19.2789-1.351.0121.021 2.315 1.351-.0121z" opacity=".5"/><path d="m174.323 20.7199c.879-.0088 1.727.3312 2.356.9456.63.6144.991 1.4532 1.004 2.3329l.03 3.0399-6.642.0664-.03-3.0398c-.005-.8777.337-1.7218.952-2.3483s1.452-.9848 2.33-.9967z" opacity=".5"/><path d="m174.07 14.4626c.64-.0058 1.154-.5289 1.148-1.1684-.006-.6396-.529-1.1534-1.168-1.1476-.64.0057-1.154.5289-1.148 1.1684.006.6396.529 1.1533 1.168 1.1476z" opacity=".5"/><path d="m174.435 11.445c.62-.065 1.246.0386 1.812.3.512.1573.988.4153 1.4.759.666.7803.998 1.7917.924 2.815-.078 1.0151.065 2.035.421 2.989.26.495.655.9062 1.139 1.186.485.2798 1.038.4167 1.597.395-.339.1967-.721.306-1.113.3183-.391.0122-.78-.0731-1.13-.2483-.637-.2873-1.167-.7663-1.518-1.37-.217-.414-.398-.8455-.541-1.29-.488-1.3206-1.141-2.5745-1.942-3.732-.119-.1879-.264-.3582-.43-.506-.242-.1798-.529-.2892-.829-.316-.247-.035-.671.082-.826-.161-.321-.516.672-1.069 1.036-1.139z" opacity=".5"/></g></g><g opacity=".5"><path d="m107.465 5.52444-18.3957.16556.1926 21.398 18.3961-.1656z" fill="url(#e)" opacity=".25"/><path d="m107.156 5.94758-17.7126.15941.1888 20.97701 17.7128-.1594z" fill="#e6e6e6" opacity=".5"/><g fill="#fff"><path d="m98.269 19.1886c1.803-.0162 3.251-1.4907 3.235-3.2933-.017-1.8027-1.491-3.2509-3.2937-3.2347-1.8027.0163-3.2509 1.4907-3.2346 3.2934.0162 1.8027 1.4907 3.2509 3.2933 3.2346z" opacity=".5"/><path d="m98.2763 19.9803c1.6386-.0148 2.9547-1.3551 2.9407-2.9937-.015-1.6386-1.3555-2.9551-2.9941-2.9403-1.6387.0147-2.9551 1.3551-2.9403 2.9937.0147 1.6386 1.355 2.955 2.9937 2.9403z" opacity=".5"/><path d="m98.9582 18.7876-1.385.0124.0214 2.375 1.385-.0124z" opacity=".5"/><path d="m98.4306 20.4713c.9052-.0081 1.7764.3436 2.4224.9779s1.013 1.4992 1.021 2.4044l.028 3.115-6.8257.0614-.028-3.112c-.0044-.4484.0796-.8934.2472-1.3093.1676-.416.4156-.7949.7297-1.115s.6882-.5751 1.1009-.7506c.4128-.1754.856-.2678 1.3045-.2718z" opacity=".5"/><path d="m95.9453 13.564s1.967-1.205 2.353-2.5c.5909 1.1675 1.3699 2.2297 2.3057 3.144z" opacity=".5"/></g></g><path d="m75.8854 166.947h-74.985009v73.476h74.985009z" fill="url(#f)"/><path d="m75.5084 167.51h-74.23203v72.347h74.23203z" fill="#fff"/><path d="m8.81445 173.52h59.15705v45.927h-59.15705z" fill="#02cb02"/><path d="m64.6501 224.352h-52.237v2.407h52.237z" fill="#e0e0e0"/><path d="m56.316 229.163h-35.568v2.407h35.568z" fill="#e0e0e0"/><path d="m148.483 50.245h-26.465v30.105h26.465z" fill="url(#g)" opacity=".25"/><path d="m147.922 50.666h-25.067v29.688h25.067z" fill="#e6e6e6"/><path d="m135.109 69.289c2.552 0 4.621-2.0689 4.621-4.621s-2.069-4.621-4.621-4.621-4.621 2.0689-4.621 4.621 2.069 4.621 4.621 4.621z" fill="#fff"/><path d="m135.108 70.408c2.32 0 4.2-1.8804 4.2-4.2s-1.88-4.2-4.2-4.2c-2.319 0-4.2 1.8804-4.2 4.2s1.881 4.2 4.2 4.2z" fill="#fff"/><path d="m136.089 68.73h-1.961v3.362h1.961z" fill="#fff"/><path d="m134.625 71.111h1.385c1.097 0 2.15.4359 2.926 1.2117.775.7758 1.211 1.8281 1.211 2.9253v5.105h-9.659v-5.105c0-1.0972.436-2.1495 1.212-2.9253s1.828-1.2117 2.925-1.2117z" fill="#fff"/><path d="m132.939 59.74c-.297.156-.588.3227-.873.5-.262.128-.482.3291-.633.579-.034.1006-.084.1955-.146.282-.133.146-.354.142-.544.187-.633.146-.949.826-1.1 1.439-.1.3643-.18.7339-.24 1.107-.058.2412-.05.4937.022.731.041.1.1.19.133.294.114.38-.209.74-.288 1.126-.039.3522.022.7083.174 1.028.033.1025.078.2004.136.291.053.068.11.1324.171.193.135.1461.242.3155.316.5.669.1205 1.324.3037 1.958.547.979.5228 2.057.8352 3.163.917.3-.0143.595-.0751.876-.18.55-.206 1.031-.579 1.581-.759.522-.1191 1.05-.2079 1.581-.266.25-.051.56-.24.465-.478.127.0467.265.0576.398.0313s.256-.0887.355-.1803c.198-.1857.356-.4096.465-.658.224-.4118.399-.848.522-1.3.212-.8781.094-1.8033-.332-2.6-.074-.1551-.182-.2917-.316-.4-.1-.073-.221-.117-.316-.2-.098-.0906-.181-.1975-.244-.316-.35-.576-.72-1.138-1.11-1.686-.341-.5783-.845-1.0436-1.449-1.338-.924-.351-1.6.209-2.477.244-.375-.0615-.755-.0816-1.135-.06-.389.0873-.764.2304-1.113.425z" fill="#fff"/><path d="m96.5968 16.427h-22.628v25.744h22.628z" fill="url(#h)" opacity=".25"/><path d="m96.1185 16.787h-21.432v25.383h21.432z" fill="#e6e6e6"/><path d="m85.1629 32.71c2.1821 0 3.951-1.7689 3.951-3.951s-1.7689-3.951-3.951-3.951-3.951 1.7689-3.951 3.951 1.7689 3.951 3.951 3.951z" fill="#fff"/><path d="m85.1623 33.671c1.9844 0 3.593-1.6086 3.593-3.593 0-1.9843-1.6086-3.593-3.593-3.593-1.9843 0-3.593 1.6087-3.593 3.593 0 1.9844 1.6087 3.593 3.593 3.593z" fill="#fff"/><path d="m86.0002 32.232h-1.676v2.872h1.676z" fill="#fff"/><path d="m85.3519 34.266c1.0923.005 2.1382.4425 2.9088 1.2166.7706.7742 1.2032 1.8221 1.2032 2.9144v3.761h-8.252v-3.761c0-.5433.1072-1.0812.3153-1.5829.2082-.5018.5133-.9576.8978-1.3414.3846-.3837.841-.6878 1.3433-.8948.5022-.2071 1.0404-.3131 1.5836-.3119z" fill="#fff"/><path d="m83.3115 24.545c-.2526.1333-.5013.2757-.746.427-.219.1112-.4021.2821-.528.493-.0293.0855-.0708.1663-.123.24-.114.123-.316.12-.465.158-.528.123-.8.705-.949 1.23-.0862.3123-.1549.6291-.206.949-.0513.2088-.0447.4276.019.633.035.085.085.164.114.25.1.316-.177.633-.247.949-.0328.3012.0187.6055.149.879.0279.0881.0672.1722.117.25.0448.0578.0932.1125.145.164.1151.1258.2063.2715.269.43.5703.1054 1.1294.2641 1.67.474.8334.4449 1.7501.7119 2.692.784.2566-.0125.5096-.0648.75-.155.471-.177.882-.493 1.36-.633.4433-.1017.892-.1779 1.344-.228.215-.041.478-.206.4-.408.1072.0376.2226.0456.3339.0233.1114-.0224.2147-.0743.2991-.1503.17-.1587.3061-.3502.4-.563.191-.3526.3407-.7261.446-1.113.1773-.7481.076-1.5351-.285-2.214-.0642-.1353-.1582-.2542-.275-.348-.085-.063-.19-.1-.272-.168-.0845-.077-.1552-.168-.209-.269-.2993-.4913-.6156-.971-.949-1.439-.2927-.4937-.7239-.8908-1.24-1.142-.791-.316-1.366.18-2.116.209-.3207-.0537-.6464-.0708-.971-.051-.3233.0691-.6353.1833-.927.339z" fill="#fff"/><path d="m258.823 51.8174-24.961.2496.298 29.7845 24.961-.2496z" fill="url(#i)" opacity=".25"/><path d="m258.37 52.7019-24.127.2171.257 28.574 24.127-.2171z" fill="#e6e6e6"/><path d="m246.536 70.733c2.456-.0221 4.429-2.031 4.407-4.487-.022-2.4561-2.031-4.4291-4.487-4.407s-4.429 2.031-4.407 4.487 2.031 4.4291 4.487 4.407z" fill="#fff"/><path d="m246.545 71.8106c2.233-.0201 4.026-1.846 4.006-4.0784-.02-2.2323-1.846-4.0257-4.078-4.0056-2.233.0201-4.026 1.8461-4.006 4.0784s1.846 4.0257 4.078 4.0056z" fill="#fff"/><path d="m247.473 70.186-1.888.017.029 3.236 1.888-.017z" fill="#fff"/><path d="m246.241 72.4898 1.025-.0092c.544-.0051 1.083.097 1.587.3003s.963.504 1.35.8847c.388.3807.697.834.909 1.3342.213.5001.325 1.0371.33 1.5805l.042 4.745-9.3.0837-.042-4.745c-.01-1.0972.416-2.1534 1.185-2.9362s1.817-1.2282 2.914-1.238z" fill="#fff"/><path d="m246.469 63.4545c.893-.0081 1.61-.7381 1.602-1.6306s-.738-1.6095-1.631-1.6014c-.892.008-1.609.738-1.601 1.6305s.738 1.6095 1.63 1.6015z" fill="#fff"/><path d="m246.975 59.238c.865-.0927 1.739.0504 2.53.414.715.2197 1.38.5801 1.955 1.06.933 1.0896 1.397 2.5043 1.291 3.935-.114 1.418.087 2.8436.587 4.175.361.6958.912 1.2747 1.589 1.6695s1.452.5892 2.236.5605c-.474.2755-1.008.4288-1.555.4463-.548.0175-1.091-.1016-1.58-.3463-.889-.4024-1.63-1.0727-2.119-1.917-.303-.5795-.556-1.1837-.756-1.806-.682-1.8431-1.593-3.5931-2.711-5.209-.167-.2616-.369-.4989-.6-.705-.336-.2585-.737-.4185-1.158-.462-.345-.047-.949.114-1.151-.228-.452-.717.936-1.492 1.442-1.587z" fill="#fff"/><path d="m61.2433 29.7755-21.3429.2135.2547 25.4667 21.3429-.2134z" fill="url(#j)" opacity=".25"/><path d="m60.8683 30.3904-20.629.1856.2198 24.431 20.629-.1856z" fill="#e6e6e6"/><path d="m50.7484 45.8068c2.0998-.0189 3.7866-1.7364 3.7677-3.8362s-1.7364-3.7867-3.8362-3.7678-3.7867 1.7364-3.7678 3.8362 1.7365 3.7867 3.8363 3.7678z" fill="#fff"/><path d="m50.7575 46.7299c1.9093-.0172 3.4431-1.5789 3.4259-3.4881-.0172-1.9093-1.5789-3.4431-3.4881-3.4259-1.9093.0172-3.4431 1.5789-3.4259 3.4881.0172 1.9093 1.5789 3.4431 3.4881 3.4259z" fill="#fff"/><path d="m51.5515 45.3365-1.613.0145.0249 2.764 1.613-.0145z" fill="#fff"/><path d="m50.9369 47.3032c1.0545-.0095 2.0696.4003 2.822 1.1392.7523.739 1.1803 1.7465 1.1898 2.801l.0327 3.631-7.952.0716-.0327-3.631c-.0095-1.0545.4003-2.0696 1.1393-2.8219.7389-.7524 1.7464-1.1804 2.8009-1.1899z" fill="#fff"/><path d="m50.692 39.5846c.7633-.0069 1.3765-.6312 1.3696-1.3945-.0069-.7632-.6312-1.3764-1.3944-1.3695-.7633.0068-1.3765.6312-1.3696 1.3944.0069.7633.6312 1.3764 1.3944 1.3696z" fill="#fff"/><path d="m51.1252 35.964c.741-.0793 1.4897.043 2.167.354.6119.1858 1.1807.4918 1.673.9.7963.9326 1.1917 2.1421 1.1 3.365-.0955 1.2126.0751 2.4313.5 3.571.309.5933.7801 1.0868 1.3583 1.4231.5783.3363 1.2402.5017 1.9087.4769-.4045.2353-.8611.3663-1.3288.3812-.4677.0148-.9317-.087-1.3502-.2962-.76-.3437-1.3936-.9164-1.812-1.638-.254-.4959-.4658-1.0124-.633-1.544-.5837-1.5782-1.3639-3.0767-2.322-4.46-.142-.2228-.3144-.4247-.512-.6-.2863-.2229-.6292-.3615-.99-.4-.294-.041-.8.1-.984-.2-.394-.59.794-1.251 1.225-1.333z" fill="#fff"/><path d="m27.9588 54.3917-25.69903.2313.26903 29.893 25.699-.2313z" fill="url(#k)" opacity=".25"/><path d="m27.5301 54.9843-24.74397.2227.26375 29.305 24.74402-.2227z" fill="#e6e6e6"/><g fill="#fff"><path d="m15.1177 73.479c2.519-.0227 4.5426-2.0831 4.52-4.6021-.0227-2.519-2.0831-4.5426-4.6021-4.5199-2.519.0226-4.5426 2.083-4.5199 4.602.0226 2.519 2.083 4.5426 4.602 4.52z"/><path d="m15.1279 74.5837c2.2903-.0206 4.1303-1.894 4.1097-4.1844-.0206-2.2903-1.894-4.1302-4.1844-4.1096-2.2903.0206-4.1302 1.894-4.1096 4.1843s1.894 4.1303 4.1843 4.1097z"/><path d="m16.0815 72.9166-1.936.0174.0299 3.318 1.936-.0174z"/><path d="m14.7102 75.2788 1.263-.0114c.5436-.0053 1.0828.0966 1.587.2998.5041.2032.9632.5038 1.3512.8845.3879.3807.697.8342.9096 1.3344.2126.5003.3246 1.0375.3295 1.5811l.0448 4.985-9.54.0858-.0448-4.982c-.0053-.5435.0966-1.0828.2998-1.5869s.5038-.9633.8845-1.3512c.3807-.388.8342-.6971 1.3344-.9097.5003-.2126 1.0375-.3245 1.581-.3294z"/><path d="m11.8721 65.627s2.749-1.683 3.286-3.479c.8232 1.6322 1.9113 3.1166 3.22 4.393z"/><path d="m38.0609 200.732c4.3514-.039 7.8472-3.598 7.8081-7.95-.0392-4.351-3.5985-7.847-7.95-7.808-4.3514.039-7.8472 3.599-7.808 7.95.0391 4.351 3.5984 7.847 7.9499 7.808z"/><path d="m38.0781 202.642c3.9566-.036 7.1351-3.272 7.0995-7.229s-3.2719-7.135-7.2284-7.099c-3.9566.035-7.1352 3.271-7.0996 7.228s3.2719 7.135 7.2285 7.1z"/><path d="m39.7268 199.76-3.343.03.0516 5.731 3.343-.03z"/><path d="m38.1979 203.835.5-.004c1.05-.01 2.0915.188 3.065.581.9735.394 1.8599.975 2.6084 1.712.7485.736 1.3445 1.613 1.7539 2.58.4093.967.624 2.005.6317 3.055l.07 7.775-16.474.148-.07-7.775c-.0111-1.05.1849-2.092.5767-3.066.3919-.974.972-1.861 1.7072-2.611.7351-.75 1.6109-1.347 2.5771-1.758.9663-.411 2.0041-.627 3.054-.637z"/><path d="m32.457 187.156s4.744-2.91 5.674-6.01c1.4241 2.819 3.3029 5.383 5.561 7.591z"/></g><path d="m197.269 17.4751-21.432.1929.22 24.485 21.432-.1929z" fill="url(#l)" opacity=".25"/><path d="m196.91 17.9613-20.635.1857.216 24.001 20.635-.1857z" fill="#e6e6e6"/><path d="m186.555 33.1138c2.101-.0189 3.79-1.7065 3.771-3.7693-.018-2.0628-1.737-3.7196-3.838-3.7007-2.102.0189-3.79 1.7064-3.772 3.7692.019 2.0628 1.737 3.7197 3.839 3.7008z" fill="#fff"/><path d="m186.566 34.0189c1.909-.0172 3.443-1.552 3.426-3.4281-.016-1.8761-1.578-3.3831-3.487-3.3659s-3.443 1.552-3.427 3.4281c.017 1.8761 1.579 3.3831 3.488 3.3659z" fill="#fff"/><path d="m187.421 32.4349-1.613.0161.027 2.7169 1.613-.0162z" fill="#fff"/><path d="m186.743 34.5822c1.054-.0095 2.069.4003 2.822 1.1392.752.739 1.18 1.7465 1.189 2.801l.032 3.5-7.955.0716-.032-3.5c-.004-.5224.094-1.0406.29-1.525.195-.4843.485-.9254.851-1.298s.802-.6693 1.283-.8733.997-.3112 1.52-.3155z" fill="#fff"/><path d="m183.848 26.672s2.293-1.379 2.739-2.847c.69 1.3402 1.597 2.5567 2.685 3.6z" fill="#fff"/><path d="m114.461 118.458v.576l12.47 21.628v12.88l9.163 4.9v-17.78l12.38-21.629v-.576z" fill="url(#m)" opacity=".25"/><path d="m147.91 118.74h-33.069v.569h33.069z" fill="#cfd8dc"/><path d="m147.91 118.74h-33.069v.569h33.069z" fill="#000" opacity=".1"/><path d="m114.841 119.309 12.127 21.322v12.7l8.91 4.548v-17.248l12.033-21.322z" fill="#cfd8dc"/><path d="m127.537 153.327v-12.7l-12.126-21.318h-.566l12.127 21.322v12.7z" fill="#fff" opacity=".2"/><path d="m126.968 153.327 8.91 4.833v-.285l-8.341-4.548z" fill="#cfd8dc"/><path d="m126.968 153.327 8.91 4.833v-.285l-8.341-4.548z" fill="#000" opacity=".1"/><path d="m272.001 165.903h-74.985v73.476h74.985z" fill="url(#n)"/><path d="m271.627 166.469h-74.232v72.347h74.232z" fill="#fff"/><path d="m264.087 172.476h-59.157v45.927h59.157z" fill="#02cb02"/><path d="m261.347 224.855h-52.237v2.407h52.237z" fill="#e0e0e0"/><path d="m253.013 229.666h-35.568v2.407h35.568z" fill="#e0e0e0"/><path d="m173.969 165.656h-75.5256v74.008h75.5256z" fill="url(#o)"/><path d="m173.59 166.226h-74.7668v72.869h74.7668z" fill="#fff"/><path d="m165.998 172.277h-59.584v46.259h59.584z" fill="#02cb02"/><path d="m161.26 224.077h-52.613v2.423h52.613z" fill="#e0e0e0"/><path d="m152.866 228.923h-35.827v2.423h35.827z" fill="#e0e0e0"/><path d="m14.2267 90.052s-.316 35.109 30.681 28.467 31.946-17.4 67.3723-3.479" stroke="#3ad29f" stroke-dasharray="12 12" stroke-miterlimit="10" stroke-width="2"/><path d="m246.391 86.889s.316 35.109-30.681 28.467-31.946-17.4-67.372-3.479" stroke="#3ad29f" stroke-dasharray="12 12" stroke-miterlimit="10" stroke-width="2"/><path d="m135.052 86.889s-4.112 9.805 1.9 14.55-.633 14.866-.633 14.866" stroke="#3ad29f" stroke-dasharray="12 12" stroke-miterlimit="10" stroke-width="2"/><path d="m50.7334 61.977s4.745 23.09 27.834 23.09c23.0886 0 43.3326 25.936 38.8996 29.1" stroke="#3ad29f" stroke-dasharray="12 12" stroke-miterlimit="10" stroke-width="2"/><path d="m84.26 49.009s-6.0791 11.181.5999 22.574c3.2128 5.3735 8.3953 9.2816 14.445 10.893 14.3311 3.928 20.6071 2.1 29.8681 25.677" stroke="#3ad29f" stroke-dasharray="12 12" stroke-miterlimit="10" stroke-width="2"/><path d="m186.426 49.641s4.855 5.912-4.229 18.421c-3.619 4.9015-8.606 8.6241-14.335 10.7-9.173 3.41-18.127 13.263-18.127 27.813" stroke="#3ad29f" stroke-dasharray="12 12" stroke-miterlimit="10" stroke-width="2"/><g opacity=".5"><path d="m145.309.406006h-18.943v21.548994h18.943z" fill="url(#p)" opacity=".25"/><path d="m144.907.705994h-17.94v21.249006h17.94z" fill="#e6e6e6" opacity=".5"/><g fill="#fff"><path d="m135.734 14.038c1.827 0 3.308-1.481 3.308-3.308 0-1.82696-1.481-3.308-3.308-3.308s-3.308 1.48104-3.308 3.308c0 1.827 1.481 3.308 3.308 3.308z" opacity=".5"/><path d="m135.736 14.842c1.661 0 3.008-1.3467 3.008-3.008s-1.347-3.00798-3.008-3.00798c-1.662 0-3.008 1.34668-3.008 3.00798s1.346 3.008 3.008 3.008z" opacity=".5"/><path d="m136.44 13.637h-1.404v2.407h1.404z" opacity=".5"/><path d="m135.89 15.342c.917 0 1.796.3642 2.444 1.0125.648.6484 1.013 1.5277 1.013 2.4445v3.163h-6.917v-3.163c0-.4542.089-.904.263-1.3236s.429-.8009.75-1.1219c.322-.3211.703-.5756 1.123-.7492s.869-.2627 1.324-.2623z" opacity=".5"/><path d="m134.185 7.203c-.21.112-.421.231-.633.357-.184.0931-.337.23671-.443.414-.023.07108-.057.13843-.1.2-.095.1-.253.1-.389.133-.443.1-.671.591-.791 1.028-.072.26123-.131.52631-.174.794-.041.1723-.036.3526.016.522.029.073.073.136.095.209.082.272-.149.528-.206.807-.028.2523.015.5075.123.737.024.0738.058.144.1.209.038.048.079.0934.123.136.096.1044.172.2254.225.357.478.0891.947.223 1.4.4.698.3734 1.466.5965 2.255.655.217-.01.43-.0539.633-.13.4-.149.737-.414 1.139-.541.372-.0849.748-.1483 1.126-.19.18-.035.4-.171.332-.342.091.0347.189.0437.285.026.095-.0176.184-.0612.256-.126.136-.1345.243-.2946.316-.471.163-.2953.29-.6084.38-.933.152-.629.068-1.2921-.237-1.863-.054-.11317-.133-.21265-.231-.291-.073-.054-.158-.085-.228-.142-.07-.06545-.129-.14258-.174-.228-.25-.422-.515-.82366-.794-1.205-.246-.41079-.607-.74067-1.038-.949-.661-.253-1.145.149-1.771.174-.269-.0391-.541-.05382-.813-.044-.273.0615-.536.16149-.782.297z" opacity=".5"/></g></g><g opacity=".5"><path d="m236.088 22.863h-18.943v21.549h18.943z" fill="url(#q)" opacity=".25"/><path d="m235.685 23.163h-17.94v21.249h17.94z" fill="#e6e6e6" opacity=".5"/><g fill="#fff"><path d="m226.512 36.495c1.827 0 3.308-1.481 3.308-3.308s-1.481-3.308-3.308-3.308-3.308 1.481-3.308 3.308 1.481 3.308 3.308 3.308z" opacity=".5"/><path d="m226.514 37.299c1.661 0 3.008-1.3467 3.008-3.008s-1.347-3.008-3.008-3.008-3.008 1.3467-3.008 3.008 1.347 3.008 3.008 3.008z" opacity=".5"/><path d="m227.218 36.094h-1.404v2.407h1.404z" opacity=".5"/><path d="m226.668 37.799c.917 0 1.796.3642 2.444 1.0125.649.6484 1.013 1.5277 1.013 2.4445v3.163h-6.917v-3.163c0-.4542.09-.904.263-1.3236.174-.4196.429-.8009.751-1.1219.321-.3211.702-.5757 1.122-.7492.42-.1736.87-.2627 1.324-.2623z" opacity=".5"/><path d="m224.964 29.66c-.211.112-.422.231-.633.357-.184.0931-.338.2367-.443.414-.024.0711-.058.1384-.1.2-.1.1-.253.1-.389.133-.443.1-.67.591-.791 1.028-.073.2612-.131.5263-.174.794-.042.1723-.036.3526.016.522.029.073.073.136.095.209.082.272-.149.528-.206.807-.029.2523.014.5075.123.737.024.0737.057.144.1.209.037.048.079.0934.123.136.095.1045.171.2254.224.357.478.0891.946.223 1.4.4.697.3734 1.465.5965 2.255.655.216-.01.43-.0539.633-.13.4-.149.737-.414 1.139-.541.371-.0849.747-.1483 1.126-.19.18-.035.4-.171.332-.342.09.0347.189.0437.284.026.096-.0176.184-.0612.257-.126.135-.1345.243-.2946.316-.471.162-.2953.289-.6084.38-.933.152-.6291.067-1.2921-.237-1.863-.055-.1132-.133-.2127-.231-.291-.073-.054-.158-.085-.228-.142-.071-.0655-.13-.1426-.174-.228-.251-.422-.516-.8237-.794-1.205-.246-.4107-.607-.7405-1.037-.949-.661-.253-1.145.149-1.771.174-.27-.0391-.542-.0539-.813-.044-.272.063-.533.164-.775.3z" opacity=".5"/></g></g><path d="m135.217 200.882c4.134-.038 7.454-3.418 7.417-7.552-.037-4.133-3.418-7.454-7.551-7.416-4.134.037-7.454 3.418-7.417 7.551s3.418 7.454 7.551 7.417z" fill="#fff"/><path d="m135.231 202.698c3.758-.034 6.777-3.108 6.743-6.865-.034-3.758-3.108-6.777-6.865-6.743-3.758.034-6.777 3.107-6.743 6.865s3.107 6.777 6.865 6.743z" fill="#fff"/><path d="m136.794 199.957-3.176.029.049 5.444 3.176-.029z" fill="#fff"/><path d="m135.584 203.828c2.075-.019 4.073.787 5.553 2.242 1.481 1.454 2.323 3.437 2.342 5.512l.064 7.142-15.647.141-.064-7.142c-.019-2.075.788-4.072 2.241-5.553 1.454-1.48 3.436-2.323 5.511-2.342z" fill="#fff"/><path d="m135.305 188.469c1.502-.015 2.707-1.245 2.692-2.748-.015-1.502-1.245-2.707-2.747-2.692s-2.708 1.245-2.693 2.747 1.245 2.708 2.748 2.693z" fill="#fff"/><path d="m135.948 181.506c1.457-.154 2.929.088 4.261.7 1.204.369 2.322.976 3.289 1.784 1.74 1.632 2.113 4.235 2.173 6.62s-.073 4.89.993 7.028c.606 1.171 1.532 2.145 2.67 2.81 1.139.665 2.443.992 3.76.945-.797.463-1.696.721-2.617.751-.921.029-1.835-.171-2.659-.583-1.495-.676-2.742-1.803-3.565-3.223-.507-.975-.93-1.99-1.265-3.036-1.149-3.105-2.685-6.053-4.571-8.774-.281-.442-.621-.842-1.012-1.189-.565-.435-1.239-.705-1.948-.778-.582-.079-1.581.193-1.936-.383-.758-1.207 1.584-2.511 2.427-2.672z" fill="#fff"/><path d="m236.176 201.326c4.007 0 7.256-3.249 7.256-7.256s-3.249-7.256-7.256-7.256-7.256 3.249-7.256 7.256 3.249 7.256 7.256 7.256z" fill="#fff"/><path d="m237.872 198.425h-3.388v5.804h3.388z" fill="#fff"/><path d="m236.186 202.521h.718c2.119 0 4.15.841 5.648 2.339s2.339 3.53 2.339 5.648v7.977h-16.695v-7.964c-.001-1.05.204-2.09.604-3.06.401-.971.989-1.853 1.731-2.596.741-.743 1.622-1.332 2.592-1.735.97-.402 2.009-.609 3.059-.609z" fill="#fff"/><path d="m244.309 201.389c-.316.316-15.182.949-16.131 0 .633-3.163 0-10.912 0-10.912 0-2.139.85-4.191 2.362-5.704 1.513-1.512 3.564-2.362 5.704-2.362 2.139 0 4.191.85 5.703 2.362 1.513 1.513 2.363 3.565 2.363 5.704 0 0-.95 9.647-.001 10.912z" fill="#fff"/></svg>